<svg xmlns="http://www.w3.org/2000/svg" xmlns:xlink="http://www.w3.org/1999/xlink" viewBox="0 0 874 349"><defs><style>.cls-1{fill:#6b0b0c;}.cls-2{fill:#b5191e;}.cls-3{fill:url(#Gradiente_sem_nome_145);}.cls-4{fill:url(#Gradiente_sem_nome_6);}.cls-5{fill:url(#Gradiente_sem_nome_8);}.cls-6{fill:#a65e52;}.cls-10,.cls-14,.cls-15,.cls-16,.cls-17,.cls-18,.cls-19,.cls-20,.cls-21,.cls-22,.cls-23,.cls-24,.cls-25,.cls-26,.cls-27,.cls-28,.cls-29,.cls-30,.cls-31,.cls-32,.cls-33,.cls-34,.cls-35,.cls-36,.cls-37,.cls-38,.cls-39,.cls-40,.cls-41,.cls-42,.cls-43,.cls-44,.cls-45,.cls-46,.cls-47,.cls-48,.cls-49,.cls-50,.cls-51,.cls-52,.cls-53,.cls-54,.cls-55,.cls-56,.cls-57,.cls-58,.cls-59,.cls-60,.cls-61,.cls-62,.cls-63,.cls-64,.cls-65,.cls-66,.cls-67,.cls-68,.cls-69,.cls-7,.cls-70,.cls-71,.cls-72,.cls-73,.cls-74,.cls-75,.cls-76,.cls-77,.cls-78,.cls-79,.cls-81,.cls-83{fill:none;}.cls-7,.cls-8{stroke:#a65e52;stroke-linecap:round;stroke-linejoin:round;stroke-width:3.89px;}.cls-12,.cls-8{fill:#00002e;}.cls-9{fill:#fff;}.cls-10,.cls-83{stroke:#bdccd4;}.cls-10,.cls-11,.cls-14,.cls-15,.cls-16,.cls-17,.cls-18,.cls-19,.cls-20,.cls-21,.cls-22,.cls-23,.cls-24,.cls-25,.cls-26,.cls-27,.cls-28,.cls-29,.cls-30,.cls-31,.cls-32,.cls-33,.cls-34,.cls-35,.cls-36,.cls-37,.cls-38,.cls-39,.cls-40,.cls-41,.cls-42,.cls-43,.cls-44,.cls-45,.cls-46,.cls-47,.cls-48,.cls-49,.cls-50,.cls-51,.cls-52,.cls-53,.cls-54,.cls-55,.cls-56,.cls-57,.cls-58,.cls-59,.cls-60,.cls-61,.cls-62,.cls-63,.cls-64,.cls-65,.cls-66,.cls-67,.cls-68,.cls-69,.cls-70,.cls-71,.cls-72,.cls-73,.cls-74,.cls-75,.cls-76,.cls-77,.cls-78,.cls-79,.cls-81,.cls-83{stroke-miterlimit:10;}.cls-10{stroke-width:8.33px;}.cls-11,.cls-14,.cls-15,.cls-16,.cls-17,.cls-18,.cls-19,.cls-20,.cls-21,.cls-22,.cls-23,.cls-24,.cls-25,.cls-26,.cls-27,.cls-28,.cls-29,.cls-30,.cls-31,.cls-32,.cls-33,.cls-34,.cls-35,.cls-36,.cls-37,.cls-38,.cls-39,.cls-40,.cls-41,.cls-42,.cls-43,.cls-44,.cls-45,.cls-46,.cls-47,.cls-48,.cls-49,.cls-50,.cls-51,.cls-52,.cls-53,.cls-54,.cls-55,.cls-56,.cls-57,.cls-58,.cls-59,.cls-60,.cls-61,.cls-62,.cls-63,.cls-64,.cls-65,.cls-66,.cls-67,.cls-68,.cls-69,.cls-70,.cls-71,.cls-72,.cls-73,.cls-74,.cls-75,.cls-76,.cls-77,.cls-78,.cls-79,.cls-81,.cls-83{stroke-width:0.93px;}.cls-11{fill:url(#Gradiente_sem_nome_34);stroke:url(#Gradiente_sem_nome_67);}.cls-13{fill:#bdccd4;}.cls-14{stroke:url(#Gradiente_sem_nome_61);}.cls-15{stroke:url(#Gradiente_sem_nome_61-2);}.cls-16{stroke:url(#Gradiente_sem_nome_61-3);}.cls-17{stroke:url(#Gradiente_sem_nome_61-4);}.cls-18{stroke:url(#Gradiente_sem_nome_61-5);}.cls-19{stroke:url(#Gradiente_sem_nome_61-6);}.cls-20{stroke:url(#Gradiente_sem_nome_61-7);}.cls-21{stroke:url(#Gradiente_sem_nome_61-8);}.cls-22{stroke:url(#Gradiente_sem_nome_61-9);}.cls-23{stroke:url(#Gradiente_sem_nome_61-10);}.cls-24{stroke:url(#Gradiente_sem_nome_61-11);}.cls-25{stroke:url(#Gradiente_sem_nome_61-12);}.cls-26{stroke:url(#Gradiente_sem_nome_61-13);}.cls-27{stroke:url(#Gradiente_sem_nome_61-14);}.cls-28{stroke:url(#Gradiente_sem_nome_61-15);}.cls-29{stroke:url(#Gradiente_sem_nome_61-16);}.cls-30{stroke:url(#Gradiente_sem_nome_61-17);}.cls-31{stroke:url(#Gradiente_sem_nome_61-18);}.cls-32{stroke:url(#Gradiente_sem_nome_61-19);}.cls-33{stroke:url(#Gradiente_sem_nome_61-20);}.cls-34{stroke:url(#Gradiente_sem_nome_61-21);}.cls-35{stroke:url(#Gradiente_sem_nome_61-22);}.cls-36{stroke:url(#Gradiente_sem_nome_61-23);}.cls-37{stroke:url(#Gradiente_sem_nome_61-24);}.cls-38{stroke:url(#Gradiente_sem_nome_61-25);}.cls-39{stroke:url(#Gradiente_sem_nome_61-26);}.cls-40{stroke:url(#Gradiente_sem_nome_61-27);}.cls-41{stroke:url(#Gradiente_sem_nome_61-28);}.cls-42{stroke:url(#Gradiente_sem_nome_61-29);}.cls-43{stroke:url(#Gradiente_sem_nome_61-30);}.cls-44{stroke:url(#Gradiente_sem_nome_61-31);}.cls-45{stroke:url(#Gradiente_sem_nome_61-32);}.cls-46{stroke:url(#Gradiente_sem_nome_61-33);}.cls-47{stroke:url(#Gradiente_sem_nome_61-34);}.cls-48{stroke:url(#Gradiente_sem_nome_61-35);}.cls-49{stroke:url(#Gradiente_sem_nome_61-36);}.cls-50{stroke:url(#Gradiente_sem_nome_61-37);}.cls-51{stroke:url(#Gradiente_sem_nome_61-38);}.cls-52{stroke:url(#Gradiente_sem_nome_61-39);}.cls-53{stroke:url(#Gradiente_sem_nome_61-40);}.cls-54{stroke:url(#Gradiente_sem_nome_61-41);}.cls-55{stroke:url(#Gradiente_sem_nome_61-42);}.cls-56{stroke:url(#Gradiente_sem_nome_61-43);}.cls-57{stroke:url(#Gradiente_sem_nome_61-44);}.cls-58{stroke:url(#Gradiente_sem_nome_61-45);}.cls-59{stroke:url(#Gradiente_sem_nome_61-46);}.cls-60{stroke:url(#Gradiente_sem_nome_61-47);}.cls-61{stroke:url(#Gradiente_sem_nome_61-48);}.cls-62{stroke:url(#Gradiente_sem_nome_61-49);}.cls-63{stroke:url(#Gradiente_sem_nome_61-50);}.cls-64{stroke:url(#Gradiente_sem_nome_61-51);}.cls-65{stroke:url(#Gradiente_sem_nome_61-52);}.cls-66{stroke:url(#Gradiente_sem_nome_61-53);}.cls-67{stroke:url(#Gradiente_sem_nome_61-54);}.cls-68{stroke:url(#Gradiente_sem_nome_61-55);}.cls-69{stroke:url(#Gradiente_sem_nome_61-56);}.cls-70{stroke:url(#Gradiente_sem_nome_61-57);}.cls-71{stroke:url(#Gradiente_sem_nome_61-58);}.cls-72{stroke:url(#Gradiente_sem_nome_61-59);}.cls-73{stroke:url(#Gradiente_sem_nome_61-60);}.cls-74{stroke:url(#Gradiente_sem_nome_61-61);}.cls-75{stroke:url(#Gradiente_sem_nome_61-62);}.cls-76{stroke:url(#Gradiente_sem_nome_61-63);}.cls-77{stroke:url(#Gradiente_sem_nome_61-64);}.cls-78{stroke:url(#Gradiente_sem_nome_61-65);}.cls-79{stroke:url(#Gradiente_sem_nome_61-66);}.cls-80{opacity:0.8;}.cls-81{stroke:#000;}.cls-82{fill:url(#Gradiente_sem_nome_580);}</style><linearGradient id="Gradiente_sem_nome_145" x1="421.51" y1="46.1" x2="421.99" y2="46.1" gradientUnits="userSpaceOnUse"><stop offset="0" stop-color="#091a40"/><stop offset="1" stop-color="#164194"/></linearGradient><linearGradient id="Gradiente_sem_nome_6" x1="407.15" y1="47.02" x2="384.58" y2="47.02" gradientUnits="userSpaceOnUse"><stop offset="0" stop-color="#b5191e"/><stop offset="0.54" stop-color="#8b1114"/><stop offset="1" stop-color="#6b0b0c"/></linearGradient><linearGradient id="Gradiente_sem_nome_8" x1="348.49" y1="111.33" x2="374.06" y2="111.06" gradientUnits="userSpaceOnUse"><stop offset="0" stop-color="#b5191e"/><stop offset="0.42" stop-color="#941316"/><stop offset="1" stop-color="#6b0b0c"/></linearGradient><radialGradient id="Gradiente_sem_nome_34" cx="171.36" cy="147.5" r="41.19" gradientUnits="userSpaceOnUse"><stop offset="0" stop-color="#1c100e"/><stop offset="0.01" stop-color="#291714"/><stop offset="0.05" stop-color="#4a2a25"/><stop offset="0.09" stop-color="#673a33"/><stop offset="0.13" stop-color="#7e483e"/><stop offset="0.18" stop-color="#905247"/><stop offset="0.24" stop-color="#9d594d"/><stop offset="0.32" stop-color="#a45d51"/><stop offset="0.5" stop-color="#a65e52"/><stop offset="0.6" stop-color="#a25c50"/><stop offset="0.69" stop-color="#98564b"/><stop offset="0.78" stop-color="#854c42"/><stop offset="0.86" stop-color="#6c3d35"/><stop offset="0.94" stop-color="#4b2b25"/><stop offset="1" stop-color="#2e1a17"/></radialGradient><radialGradient id="Gradiente_sem_nome_67" cx="171.36" cy="147.5" r="41.66" gradientUnits="userSpaceOnUse"><stop offset="0.01" stop-color="#6b0b0c"/><stop offset="0.73" stop-color="#a65e52"/><stop offset="0.79" stop-color="#a35c51"/><stop offset="0.83" stop-color="#9a574c"/><stop offset="0.87" stop-color="#8a4e44"/><stop offset="0.9" stop-color="#744239"/><stop offset="0.93" stop-color="#58322b"/><stop offset="0.96" stop-color="#351e1a"/><stop offset="0.99" stop-color="#0c0706"/><stop offset="1"/></radialGradient><radialGradient id="Gradiente_sem_nome_61" cx="143.74" cy="181.53" r="13.93" gradientTransform="translate(2.24 -26.27) rotate(-1.92)" xlink:href="#Gradiente_sem_nome_67"/><radialGradient id="Gradiente_sem_nome_61-2" cx="144.04" cy="183.38" r="13.99" gradientTransform="translate(2.24 -26.27) rotate(-1.92)" xlink:href="#Gradiente_sem_nome_67"/><radialGradient id="Gradiente_sem_nome_61-3" cx="144.51" cy="185.19" r="14.05" gradientTransform="translate(2.24 -26.27) rotate(-1.92)" xlink:href="#Gradiente_sem_nome_67"/><radialGradient id="Gradiente_sem_nome_61-4" cx="145.16" cy="186.95" r="14.09" gradientTransform="translate(2.24 -26.27) rotate(-1.92)" xlink:href="#Gradiente_sem_nome_67"/><radialGradient id="Gradiente_sem_nome_61-5" cx="145.97" cy="188.64" r="14.13" gradientTransform="translate(2.24 -26.27) rotate(-1.92)" xlink:href="#Gradiente_sem_nome_67"/><radialGradient id="Gradiente_sem_nome_61-6" cx="146.94" cy="190.25" r="14.16" gradientTransform="translate(2.24 -26.27) rotate(-1.92)" xlink:href="#Gradiente_sem_nome_67"/><radialGradient id="Gradiente_sem_nome_61-7" cx="148.06" cy="191.75" r="14.18" gradientTransform="translate(2.24 -26.27) rotate(-1.92)" xlink:href="#Gradiente_sem_nome_67"/><radialGradient id="Gradiente_sem_nome_61-8" cx="149.31" cy="193.15" r="14.19" gradientTransform="translate(2.24 -26.27) rotate(-1.92)" xlink:href="#Gradiente_sem_nome_67"/><radialGradient id="Gradiente_sem_nome_61-9" cx="150.7" cy="194.41" r="14.18" gradientTransform="translate(2.24 -26.27) rotate(-1.92)" xlink:href="#Gradiente_sem_nome_67"/><radialGradient id="Gradiente_sem_nome_61-10" cx="152.2" cy="195.54" r="14.16" gradientTransform="translate(2.24 -26.27) rotate(-1.92)" xlink:href="#Gradiente_sem_nome_67"/><radialGradient id="Gradiente_sem_nome_61-11" cx="153.79" cy="196.52" r="14.14" gradientTransform="translate(2.24 -26.27) rotate(-1.92)" xlink:href="#Gradiente_sem_nome_67"/><radialGradient id="Gradiente_sem_nome_61-12" cx="155.48" cy="197.34" r="14.1" gradientTransform="translate(2.24 -26.27) rotate(-1.92)" xlink:href="#Gradiente_sem_nome_67"/><radialGradient id="Gradiente_sem_nome_61-13" cx="157.24" cy="197.99" r="14.05" gradientTransform="translate(2.24 -26.27) rotate(-1.92)" xlink:href="#Gradiente_sem_nome_67"/><radialGradient id="Gradiente_sem_nome_61-14" cx="159.05" cy="198.48" r="14" gradientTransform="translate(2.24 -26.27) rotate(-1.92)" xlink:href="#Gradiente_sem_nome_67"/><radialGradient id="Gradiente_sem_nome_61-15" cx="160.9" cy="198.79" r="13.94" gradientTransform="translate(2.24 -26.27) rotate(-1.92)" xlink:href="#Gradiente_sem_nome_67"/><radialGradient id="Gradiente_sem_nome_61-16" cx="162.77" cy="198.92" r="13.88" gradientTransform="translate(2.24 -26.27) rotate(-1.92)" xlink:href="#Gradiente_sem_nome_67"/><radialGradient id="Gradiente_sem_nome_61-17" cx="164.64" cy="198.88" r="13.91" gradientTransform="translate(2.24 -26.27) rotate(-1.92)" xlink:href="#Gradiente_sem_nome_67"/><radialGradient id="Gradiente_sem_nome_61-18" cx="166.5" cy="198.65" r="13.97" gradientTransform="translate(2.24 -26.27) rotate(-1.92)" xlink:href="#Gradiente_sem_nome_67"/><radialGradient id="Gradiente_sem_nome_61-19" cx="168.33" cy="198.25" r="14.03" gradientTransform="translate(2.24 -26.27) rotate(-1.92)" xlink:href="#Gradiente_sem_nome_67"/><radialGradient id="Gradiente_sem_nome_61-20" cx="170.12" cy="197.67" r="14.08" gradientTransform="translate(2.24 -26.27) rotate(-1.92)" xlink:href="#Gradiente_sem_nome_67"/><radialGradient id="Gradiente_sem_nome_61-21" cx="171.84" cy="196.93" r="14.12" gradientTransform="translate(2.24 -26.27) rotate(-1.92)" xlink:href="#Gradiente_sem_nome_67"/><radialGradient id="Gradiente_sem_nome_61-22" cx="173.48" cy="196.02" r="14.15" gradientTransform="translate(2.24 -26.27) rotate(-1.92)" xlink:href="#Gradiente_sem_nome_67"/><radialGradient id="Gradiente_sem_nome_61-23" cx="175.03" cy="194.96" r="14.17" gradientTransform="translate(2.24 -26.27) rotate(-1.92)" xlink:href="#Gradiente_sem_nome_67"/><radialGradient id="Gradiente_sem_nome_61-24" cx="176.47" cy="193.76" r="14.18" gradientTransform="translate(2.24 -26.27) rotate(-1.92)" xlink:href="#Gradiente_sem_nome_67"/><radialGradient id="Gradiente_sem_nome_61-25" cx="177.79" cy="192.43" r="14.18" gradientTransform="translate(2.24 -26.27) rotate(-1.92)" xlink:href="#Gradiente_sem_nome_67"/><radialGradient id="Gradiente_sem_nome_61-26" cx="178.97" cy="190.98" r="14.17" gradientTransform="translate(2.24 -26.27) rotate(-1.92)" xlink:href="#Gradiente_sem_nome_67"/><radialGradient id="Gradiente_sem_nome_61-27" cx="180.02" cy="189.42" r="14.15" gradientTransform="translate(2.24 -26.27) rotate(-1.92)" xlink:href="#Gradiente_sem_nome_67"/><radialGradient id="Gradiente_sem_nome_61-28" cx="180.9" cy="187.77" r="14.11" gradientTransform="translate(2.24 -26.27) rotate(-1.92)" xlink:href="#Gradiente_sem_nome_67"/><radialGradient id="Gradiente_sem_nome_61-29" cx="181.63" cy="186.04" r="14.07" gradientTransform="translate(2.24 -26.27) rotate(-1.92)" xlink:href="#Gradiente_sem_nome_67"/><radialGradient id="Gradiente_sem_nome_61-30" cx="182.18" cy="184.25" r="14.02" gradientTransform="translate(2.24 -26.27) rotate(-1.92)" xlink:href="#Gradiente_sem_nome_67"/><radialGradient id="Gradiente_sem_nome_61-31" cx="182.57" cy="182.41" r="13.96" gradientTransform="translate(2.24 -26.27) rotate(-1.92)" xlink:href="#Gradiente_sem_nome_67"/><radialGradient id="Gradiente_sem_nome_61-32" cx="182.77" cy="180.55" r="13.9" gradientTransform="translate(2.24 -26.27) rotate(-1.92)" xlink:href="#Gradiente_sem_nome_67"/><radialGradient id="Gradiente_sem_nome_61-33" cx="182.8" cy="178.67" r="13.88" gradientTransform="translate(2.24 -26.27) rotate(-1.92)" xlink:href="#Gradiente_sem_nome_67"/><radialGradient id="Gradiente_sem_nome_61-34" cx="182.65" cy="176.8" r="13.95" gradientTransform="translate(2.24 -26.27) rotate(-1.92)" xlink:href="#Gradiente_sem_nome_67"/><radialGradient id="Gradiente_sem_nome_61-35" cx="182.32" cy="174.96" r="14" gradientTransform="translate(2.24 -26.27) rotate(-1.92)" xlink:href="#Gradiente_sem_nome_67"/><radialGradient id="Gradiente_sem_nome_61-36" cx="181.81" cy="173.15" r="14.06" gradientTransform="translate(2.24 -26.27) rotate(-1.92)" xlink:href="#Gradiente_sem_nome_67"/><radialGradient id="Gradiente_sem_nome_61-37" cx="181.14" cy="171.4" r="14.1" gradientTransform="translate(2.24 -26.27) rotate(-1.92)" xlink:href="#Gradiente_sem_nome_67"/><radialGradient id="Gradiente_sem_nome_61-38" cx="180.3" cy="169.73" r="14.14" gradientTransform="translate(2.24 -26.27) rotate(-1.92)" xlink:href="#Gradiente_sem_nome_67"/><radialGradient id="Gradiente_sem_nome_61-39" cx="179.3" cy="168.14" r="14.17" gradientTransform="translate(2.24 -26.27) rotate(-1.92)" xlink:href="#Gradiente_sem_nome_67"/><radialGradient id="Gradiente_sem_nome_61-40" cx="178.16" cy="166.65" r="14.18" gradientTransform="translate(2.24 -26.27) rotate(-1.92)" xlink:href="#Gradiente_sem_nome_67"/><radialGradient id="Gradiente_sem_nome_61-41" cx="176.88" cy="165.28" r="14.19" gradientTransform="translate(2.24 -26.27) rotate(-1.92)" xlink:href="#Gradiente_sem_nome_67"/><radialGradient id="Gradiente_sem_nome_61-42" cx="175.48" cy="164.04" r="14.18" gradientTransform="translate(2.24 -26.27) rotate(-1.92)" xlink:href="#Gradiente_sem_nome_67"/><radialGradient id="Gradiente_sem_nome_61-43" cx="173.96" cy="162.94" r="14.16" gradientTransform="translate(2.24 -26.27) rotate(-1.92)" xlink:href="#Gradiente_sem_nome_67"/><radialGradient id="Gradiente_sem_nome_61-44" cx="172.34" cy="161.99" r="14.13" gradientTransform="translate(2.24 -26.27) rotate(-1.92)" xlink:href="#Gradiente_sem_nome_67"/><radialGradient id="Gradiente_sem_nome_61-45" cx="170.64" cy="161.19" r="14.09" gradientTransform="translate(2.24 -26.27) rotate(-1.92)" xlink:href="#Gradiente_sem_nome_67"/><radialGradient id="Gradiente_sem_nome_61-46" cx="168.88" cy="160.57" r="14.04" gradientTransform="translate(2.24 -26.27) rotate(-1.92)" xlink:href="#Gradiente_sem_nome_67"/><radialGradient id="Gradiente_sem_nome_61-47" cx="167.06" cy="160.11" r="13.99" gradientTransform="translate(2.24 -26.27) rotate(-1.92)" xlink:href="#Gradiente_sem_nome_67"/><radialGradient id="Gradiente_sem_nome_61-48" cx="165.2" cy="159.83" r="13.93" gradientTransform="translate(2.24 -26.27) rotate(-1.92)" xlink:href="#Gradiente_sem_nome_67"/><radialGradient id="Gradiente_sem_nome_61-49" cx="163.33" cy="159.73" r="13.87" gradientTransform="translate(2.24 -26.27) rotate(-1.92)" xlink:href="#Gradiente_sem_nome_67"/><radialGradient id="Gradiente_sem_nome_61-50" cx="161.46" cy="159.81" r="13.92" gradientTransform="translate(2.24 -26.27) rotate(-1.92)" xlink:href="#Gradiente_sem_nome_67"/><radialGradient id="Gradiente_sem_nome_61-51" cx="159.6" cy="160.07" r="13.98" gradientTransform="translate(2.24 -26.27) rotate(-1.92)" xlink:href="#Gradiente_sem_nome_67"/><radialGradient id="Gradiente_sem_nome_61-52" cx="157.78" cy="160.5" r="14.04" gradientTransform="translate(2.24 -26.27) rotate(-1.92)" xlink:href="#Gradiente_sem_nome_67"/><radialGradient id="Gradiente_sem_nome_61-53" cx="156" cy="161.11" r="14.08" gradientTransform="translate(2.24 -26.27) rotate(-1.92)" xlink:href="#Gradiente_sem_nome_67"/><radialGradient id="Gradiente_sem_nome_61-54" cx="154.29" cy="161.88" r="14.12" gradientTransform="translate(2.24 -26.27) rotate(-1.92)" xlink:href="#Gradiente_sem_nome_67"/><radialGradient id="Gradiente_sem_nome_61-55" cx="152.67" cy="162.81" r="14.16" gradientTransform="translate(2.24 -26.27) rotate(-1.92)" xlink:href="#Gradiente_sem_nome_67"/><radialGradient id="Gradiente_sem_nome_61-56" cx="151.14" cy="163.89" r="14.18" gradientTransform="translate(2.24 -26.27) rotate(-1.92)" xlink:href="#Gradiente_sem_nome_67"/><radialGradient id="Gradiente_sem_nome_61-57" cx="149.72" cy="165.12" r="14.19" gradientTransform="translate(2.24 -26.27) rotate(-1.92)" xlink:href="#Gradiente_sem_nome_67"/><radialGradient id="Gradiente_sem_nome_61-58" cx="148.42" cy="166.47" r="14.18" gradientTransform="translate(2.24 -26.27) rotate(-1.92)" xlink:href="#Gradiente_sem_nome_67"/><radialGradient id="Gradiente_sem_nome_61-59" cx="147.26" cy="167.95" r="14.17" gradientTransform="translate(2.24 -26.27) rotate(-1.92)" xlink:href="#Gradiente_sem_nome_67"/><radialGradient id="Gradiente_sem_nome_61-60" cx="146.24" cy="169.52" r="14.14" gradientTransform="translate(2.24 -26.27) rotate(-1.92)" xlink:href="#Gradiente_sem_nome_67"/><radialGradient id="Gradiente_sem_nome_61-61" cx="145.39" cy="171.19" r="14.11" gradientTransform="translate(2.24 -26.27) rotate(-1.92)" xlink:href="#Gradiente_sem_nome_67"/><radialGradient id="Gradiente_sem_nome_61-62" cx="144.69" cy="172.93" r="14.06" gradientTransform="translate(2.24 -26.27) rotate(-1.92)" xlink:href="#Gradiente_sem_nome_67"/><radialGradient id="Gradiente_sem_nome_61-63" cx="144.16" cy="174.73" r="14.01" gradientTransform="translate(2.24 -26.27) rotate(-1.92)" xlink:href="#Gradiente_sem_nome_67"/><radialGradient id="Gradiente_sem_nome_61-64" cx="143.81" cy="176.57" r="13.95" gradientTransform="translate(2.24 -26.27) rotate(-1.92)" xlink:href="#Gradiente_sem_nome_67"/><radialGradient id="Gradiente_sem_nome_61-65" cx="143.63" cy="178.44" r="13.89" gradientTransform="translate(2.24 -26.27) rotate(-1.92)" xlink:href="#Gradiente_sem_nome_67"/><radialGradient id="Gradiente_sem_nome_61-66" cx="143.64" cy="180.31" r="13.89" gradientTransform="translate(2.24 -26.27) rotate(-1.92)" xlink:href="#Gradiente_sem_nome_67"/><linearGradient id="Gradiente_sem_nome_580" x1="182.74" y1="134.94" x2="174.04" y2="139.97" gradientUnits="userSpaceOnUse"><stop offset="0" stop-color="#fff"/><stop offset="0.09" stop-color="#fff" stop-opacity="0.98"/><stop offset="0.22" stop-color="#fff" stop-opacity="0.91"/><stop offset="0.36" stop-color="#fff" stop-opacity="0.79"/><stop offset="0.52" stop-color="#fff" stop-opacity="0.64"/><stop offset="0.69" stop-color="#fff" stop-opacity="0.43"/><stop offset="0.87" stop-color="#fff" stop-opacity="0.19"/><stop offset="1" stop-color="#fff" stop-opacity="0"/></linearGradient></defs><g id="Camada_6" data-name="Camada 6"><path class="cls-1" d="M349.17,215.75h-6.7l-1.64,3.19h-4.58l9.67-18.06H351l3.33,18.06h-4.63Zm-.51-3.34-1.05-6.69-3.43,6.69Z"/><path class="cls-1" d="M359.2,218.61a5,5,0,0,1-2.12-1.51,3.46,3.46,0,0,1-.76-2.22,5.33,5.33,0,0,1,.05-.65h4.22a1.51,1.51,0,0,0,.47,1.28,2.14,2.14,0,0,0,1.5.47,2.66,2.66,0,0,0,1.36-.31,1,1,0,0,0,.54-.87,1,1,0,0,0-.58-.86,12.34,12.34,0,0,0-1.91-.79,18.57,18.57,0,0,1-2.31-.91,4.36,4.36,0,0,1-1.6-1.3,3.29,3.29,0,0,1-.67-2.13,3.81,3.81,0,0,1,.74-2.28,4.84,4.84,0,0,1,2.09-1.58,7.92,7.92,0,0,1,3.11-.57,7.61,7.61,0,0,1,3.07.58,4.68,4.68,0,0,1,2,1.61,4,4,0,0,1,.72,2.31l0,.39h-4a1.45,1.45,0,0,0-.46-1.23,2.12,2.12,0,0,0-1.46-.47,2.25,2.25,0,0,0-1.22.31,1,1,0,0,0-.47.85,1.09,1.09,0,0,0,.63.94,10.59,10.59,0,0,0,1.95.83,18.32,18.32,0,0,1,2.29.92,4.66,4.66,0,0,1,1.57,1.26,3.14,3.14,0,0,1,.65,2,3.66,3.66,0,0,1-.83,2.39,5.23,5.23,0,0,1-2.28,1.53,9.62,9.62,0,0,1-3.29.53A8,8,0,0,1,359.2,218.61Z"/><path class="cls-1" d="M378.48,207.86a8.19,8.19,0,0,1,3-2.58,8.49,8.49,0,0,1,3.88-.9,6.07,6.07,0,0,1,4.25,1.42,5.37,5.37,0,0,1,1.66,4H386.6a1.81,1.81,0,0,0-2-1.64,2.72,2.72,0,0,0-2.07.94,5.12,5.12,0,0,0-1.18,2.69,5.8,5.8,0,0,0-.1,1.13,2.71,2.71,0,0,0,.56,1.85,1.93,1.93,0,0,0,1.54.64,2.71,2.71,0,0,0,2.53-1.64h4.68a8.47,8.47,0,0,1-3.07,4,8.09,8.09,0,0,1-4.73,1.44,6.13,6.13,0,0,1-4.39-1.53,5.45,5.45,0,0,1-1.63-4.18,9,9,0,0,1,.16-1.67A9.15,9.15,0,0,1,378.48,207.86Z"/><path class="cls-1" d="M395.22,218.4a5.35,5.35,0,0,1-2.21-2.11,6.25,6.25,0,0,1-.78-3.16,8.76,8.76,0,0,1,1.15-4.45,8.34,8.34,0,0,1,3.17-3.15,8.93,8.93,0,0,1,4.51-1.15,7.06,7.06,0,0,1,3.29.76,5.52,5.52,0,0,1,2.24,2.12,6.19,6.19,0,0,1,.79,3.17,8.75,8.75,0,0,1-1.16,4.46A8.44,8.44,0,0,1,403,218a9.22,9.22,0,0,1-4.52,1.13A7,7,0,0,1,395.22,218.4Zm5.83-3.69a4.41,4.41,0,0,0,1.33-1.7,5.26,5.26,0,0,0,.47-2.17,2.68,2.68,0,0,0-.69-2,2.37,2.37,0,0,0-1.74-.7,3,3,0,0,0-1.93.66,4.38,4.38,0,0,0-1.3,1.71,5.57,5.57,0,0,0-.46,2.21,2.63,2.63,0,0,0,.67,1.94,2.26,2.26,0,0,0,1.71.69A3.12,3.12,0,0,0,401.05,214.71Z"/><path class="cls-1" d="M422.89,205.64a4.52,4.52,0,0,1,1.23,3.37,8.72,8.72,0,0,1-.15,1.55l-1.49,8.38h-4.35l1.38-7.79a4.68,4.68,0,0,0,.08-.77,2.27,2.27,0,0,0-.6-1.68,2.31,2.31,0,0,0-1.68-.59,3.08,3.08,0,0,0-2.15.8,3.83,3.83,0,0,0-1.12,2.24V211l-1.39,7.92h-4.37l2.51-14.35h4.37l-.33,1.93a6.17,6.17,0,0,1,2.06-1.52,6.11,6.11,0,0,1,2.62-.57A4.63,4.63,0,0,1,422.89,205.64Z"/><path class="cls-1" d="M431.47,214a1.58,1.58,0,0,0,0,.34.79.79,0,0,0,.27.67,1.52,1.52,0,0,0,.88.2h1.56l-.66,3.73h-2.23c-2.86,0-4.3-1.21-4.3-3.63a8.61,8.61,0,0,1,.13-1.36l1-5.71h-1.74l.64-3.65h1.74l.62-3.5h4.38l-.62,3.5H436l-.64,3.65h-2.87Z"/><path class="cls-1" d="M444.64,205.17a5.38,5.38,0,0,1,2.7-.74l-.82,4.66h-1.21a4.23,4.23,0,0,0-2.58.71,3.79,3.79,0,0,0-1.26,2.48l-1.17,6.66h-4.38l2.51-14.35h4.38l-.47,2.6A7.69,7.69,0,0,1,444.64,205.17Z"/><path class="cls-1" d="M450.13,218.4a5.32,5.32,0,0,1-2.22-2.11,6.25,6.25,0,0,1-.78-3.16,8.86,8.86,0,0,1,1.15-4.45,8.3,8.3,0,0,1,3.18-3.15,8.89,8.89,0,0,1,4.5-1.15,7,7,0,0,1,3.29.76,5.52,5.52,0,0,1,2.24,2.12,6.19,6.19,0,0,1,.79,3.17,8.65,8.65,0,0,1-1.16,4.46,8.37,8.37,0,0,1-3.2,3.13,9.19,9.19,0,0,1-4.52,1.13A6.92,6.92,0,0,1,450.13,218.4Zm5.82-3.69a4.41,4.41,0,0,0,1.33-1.7,5.11,5.11,0,0,0,.47-2.17,2.68,2.68,0,0,0-.69-2,2.37,2.37,0,0,0-1.74-.7,3,3,0,0,0-1.93.66,4.27,4.27,0,0,0-1.29,1.71,5.41,5.41,0,0,0-.46,2.21,2.67,2.67,0,0,0,.66,1.94,2.3,2.3,0,0,0,1.72.69A3.09,3.09,0,0,0,456,214.71Z"/><path class="cls-1" d="M470.32,214.83l4.92-10.24h4.68l-7.6,14.35h-5.43l-2.53-14.35H469Z"/><path class="cls-1" d="M492.5,205.89a5.32,5.32,0,0,1,1.63,4.1,8.62,8.62,0,0,1-.13,1.52,10.45,10.45,0,0,1-.31,1.26h-9.9a2.77,2.77,0,0,0,0,.49,2.27,2.27,0,0,0,.61,1.72,2.25,2.25,0,0,0,1.64.59,2.79,2.79,0,0,0,2.51-1.39h4.66a8,8,0,0,1-3,3.58,8.2,8.2,0,0,1-4.65,1.39,6.2,6.2,0,0,1-4.42-1.55,5.44,5.44,0,0,1-1.65-4.19,10,10,0,0,1,1.74-5.55,8.14,8.14,0,0,1,3-2.58,8.62,8.62,0,0,1,3.92-.9A6.18,6.18,0,0,1,492.5,205.89ZM489.75,210a2,2,0,0,0-.64-1.58,2.49,2.49,0,0,0-1.69-.55,3.05,3.05,0,0,0-2,.68,3.78,3.78,0,0,0-1.25,1.94h5.51C489.73,210.29,489.75,210.13,489.75,210Zm2.1-9-6.66,2.6.54-3,6.71-3Z"/><path class="cls-1" d="M503.69,205.17a5.38,5.38,0,0,1,2.7-.74l-.82,4.66h-1.2a4.24,4.24,0,0,0-2.59.71,3.74,3.74,0,0,0-1.25,2.48l-1.18,6.66H495l2.51-14.35h4.38l-.46,2.6A7.66,7.66,0,0,1,503.69,205.17Z"/><path class="cls-1" d="M508.83,218.61a5,5,0,0,1-2.11-1.51,3.46,3.46,0,0,1-.77-2.22c0-.12,0-.34.05-.65h4.23a1.48,1.48,0,0,0,.47,1.28,2.14,2.14,0,0,0,1.5.47,2.62,2.62,0,0,0,1.35-.31,1,1,0,0,0,.54-.87,1,1,0,0,0-.57-.86,12.79,12.79,0,0,0-1.91-.79,19.44,19.44,0,0,1-2.32-.91,4.53,4.53,0,0,1-1.6-1.3,3.34,3.34,0,0,1-.66-2.13,3.75,3.75,0,0,1,.74-2.28,4.79,4.79,0,0,1,2.09-1.58,7.86,7.86,0,0,1,3.1-.57A7.66,7.66,0,0,1,516,205a4.74,4.74,0,0,1,2,1.61,4,4,0,0,1,.72,2.31l0,.39h-4a1.42,1.42,0,0,0-.46-1.23,2.1,2.1,0,0,0-1.46-.47,2.21,2.21,0,0,0-1.21.31,1,1,0,0,0-.48.85,1.09,1.09,0,0,0,.63.94,10.75,10.75,0,0,0,2,.83,19,19,0,0,1,2.29.92,4.53,4.53,0,0,1,1.56,1.26,3.08,3.08,0,0,1,.65,2,3.61,3.61,0,0,1-.83,2.39,5.11,5.11,0,0,1-2.28,1.53,9.58,9.58,0,0,1-3.29.53A8.1,8.1,0,0,1,508.83,218.61Z"/><path class="cls-1" d="M527.09,204.59l-2.5,14.35h-4.38l2.51-14.35Zm-3.51-2.05a1.78,1.78,0,0,1-.61-1.4,2.59,2.59,0,0,1,.9-2,3.09,3.09,0,0,1,2.17-.82,2.26,2.26,0,0,1,1.62.55,1.89,1.89,0,0,1,.59,1.43,2.55,2.55,0,0,1-.9,2,3.07,3.07,0,0,1-2.15.83A2.29,2.29,0,0,1,523.58,202.54Z"/><path class="cls-1" d="M529.68,207.86a8,8,0,0,1,2.71-2.58,6.72,6.72,0,0,1,3.36-.9,4.84,4.84,0,0,1,2.53.62,3.6,3.6,0,0,1,1.48,1.62l.36-2h4.38L542,218.94h-4.38l.38-2a6,6,0,0,1-2.07,1.62,6.21,6.21,0,0,1-2.76.62,5.08,5.08,0,0,1-2.68-.7,4.59,4.59,0,0,1-1.8-2,6.5,6.5,0,0,1-.64-3,11,11,0,0,1,.15-1.75A9.88,9.88,0,0,1,529.68,207.86Zm9.27,3.06a2.68,2.68,0,0,0-.73-2,2.55,2.55,0,0,0-1.86-.72,3.56,3.56,0,0,0-2.38.93,4.27,4.27,0,0,0-1.36,2.59,5.3,5.3,0,0,0-.07.85,2.68,2.68,0,0,0,.73,2,2.45,2.45,0,0,0,1.83.73,3.49,3.49,0,0,0,2.38-.95,4.48,4.48,0,0,0,1.38-2.59A5.49,5.49,0,0,0,539,210.92Z"/><path class="cls-1" d="M548,218.61a5.05,5.05,0,0,1-2.11-1.51,3.46,3.46,0,0,1-.76-2.22,5.33,5.33,0,0,1,.05-.65h4.22a1.51,1.51,0,0,0,.47,1.28,2.14,2.14,0,0,0,1.5.47,2.66,2.66,0,0,0,1.36-.31,1,1,0,0,0,.54-.87,1,1,0,0,0-.58-.86,12.34,12.34,0,0,0-1.91-.79,18.57,18.57,0,0,1-2.31-.91,4.36,4.36,0,0,1-1.6-1.3,3.29,3.29,0,0,1-.67-2.13,3.81,3.81,0,0,1,.74-2.28,4.84,4.84,0,0,1,2.09-1.58,7.88,7.88,0,0,1,3.11-.57,7.61,7.61,0,0,1,3.07.58,4.74,4.74,0,0,1,2,1.61,4,4,0,0,1,.72,2.31l0,.39h-4a1.45,1.45,0,0,0-.46-1.23,2.12,2.12,0,0,0-1.46-.47,2.25,2.25,0,0,0-1.22.31,1,1,0,0,0-.47.85,1.09,1.09,0,0,0,.62.94,10.75,10.75,0,0,0,2,.83,18.32,18.32,0,0,1,2.29.92,4.66,4.66,0,0,1,1.57,1.26,3.14,3.14,0,0,1,.65,2,3.66,3.66,0,0,1-.83,2.39,5.23,5.23,0,0,1-2.28,1.53,9.62,9.62,0,0,1-3.29.53A8.11,8.11,0,0,1,548,218.61Z"/><path class="cls-1" d="M567.25,207.86a8.13,8.13,0,0,1,2.72-2.58,6.68,6.68,0,0,1,3.35-.9,5,5,0,0,1,2.47.59,3.62,3.62,0,0,1,1.55,1.6l1.18-6.66h4.37l-3.35,19h-4.38l.36-2.06a6,6,0,0,1-4.78,2.27,5.08,5.08,0,0,1-2.68-.7,4.72,4.72,0,0,1-1.82-2,6.64,6.64,0,0,1-.65-3,9.83,9.83,0,0,1,.16-1.72A9.72,9.72,0,0,1,567.25,207.86Zm9.27,3.06a2.64,2.64,0,0,0-.73-2,2.51,2.51,0,0,0-1.85-.72,3.54,3.54,0,0,0-2.38.93,4.27,4.27,0,0,0-1.36,2.59,5.38,5.38,0,0,0-.08.85,2.72,2.72,0,0,0,.73,2,2.48,2.48,0,0,0,1.83.73,3.47,3.47,0,0,0,2.38-.95,4.37,4.37,0,0,0,1.38-2.59A4.49,4.49,0,0,0,576.52,210.92Z"/><path class="cls-1" d="M584.63,207.86a8.13,8.13,0,0,1,2.72-2.58,6.68,6.68,0,0,1,3.35-.9,4.88,4.88,0,0,1,2.54.62,3.66,3.66,0,0,1,1.48,1.62l.36-2h4.38l-2.54,14.35h-4.38l.39-2a6.25,6.25,0,0,1-4.84,2.24,5,5,0,0,1-2.67-.7,4.67,4.67,0,0,1-1.81-2,6.5,6.5,0,0,1-.64-3,11,11,0,0,1,.15-1.75A9.88,9.88,0,0,1,584.63,207.86Zm9.27,3.06a2.64,2.64,0,0,0-.73-2,2.51,2.51,0,0,0-1.85-.72,3.54,3.54,0,0,0-2.38.93,4.27,4.27,0,0,0-1.36,2.59,5.38,5.38,0,0,0-.08.85,2.72,2.72,0,0,0,.73,2,2.48,2.48,0,0,0,1.83.73,3.47,3.47,0,0,0,2.38-.95,4.37,4.37,0,0,0,1.38-2.59A4.49,4.49,0,0,0,593.9,210.92Z"/><path class="cls-1" d="M612.89,204.59l-2.51,14.35H606l2.51-14.35Zm-3.52-2.05a1.8,1.8,0,0,1-.6-1.4,2.59,2.59,0,0,1,.9-2,3.07,3.07,0,0,1,2.17-.82,2.27,2.27,0,0,1,1.62.55,1.88,1.88,0,0,1,.58,1.43,2.54,2.54,0,0,1-.89,2,3.08,3.08,0,0,1-2.15.83A2.32,2.32,0,0,1,609.37,202.54Z"/><path class="cls-1" d="M628.17,205.64A4.52,4.52,0,0,1,629.4,209a8.72,8.72,0,0,1-.15,1.55l-1.49,8.38h-4.35l1.38-7.79a3.8,3.8,0,0,0,.08-.77,2.27,2.27,0,0,0-.6-1.68,2.31,2.31,0,0,0-1.68-.59,3.08,3.08,0,0,0-2.15.8,3.83,3.83,0,0,0-1.12,2.24V211l-1.39,7.92h-4.37l2.51-14.35h4.37l-.33,1.93a6.17,6.17,0,0,1,2.06-1.52,6.11,6.11,0,0,1,2.62-.57A4.63,4.63,0,0,1,628.17,205.64Z"/><path class="cls-1" d="M634.06,218.4a5.3,5.3,0,0,1-2.21-2.11,6.25,6.25,0,0,1-.78-3.16,8.76,8.76,0,0,1,1.15-4.45,8.27,8.27,0,0,1,3.17-3.15,8.93,8.93,0,0,1,4.51-1.15,7.09,7.09,0,0,1,3.29.76,5.52,5.52,0,0,1,2.24,2.12,6.29,6.29,0,0,1,.79,3.17,8.66,8.66,0,0,1-1.17,4.46,8.3,8.3,0,0,1-3.2,3.13,9.15,9.15,0,0,1-4.51,1.13A7,7,0,0,1,634.06,218.4Zm5.82-3.69a4.23,4.23,0,0,0,1.33-1.7,5.12,5.12,0,0,0,.48-2.17,2.68,2.68,0,0,0-.69-2,2.37,2.37,0,0,0-1.74-.7,3,3,0,0,0-1.94.66,4.46,4.46,0,0,0-1.29,1.71,5.41,5.41,0,0,0-.46,2.21,2.63,2.63,0,0,0,.67,1.94,2.26,2.26,0,0,0,1.71.69A3.07,3.07,0,0,0,639.88,214.71Z"/><path class="cls-1" d="M654.26,214.83l4.91-10.24h4.68l-7.6,14.35h-5.42l-2.54-14.35H653Z"/><path class="cls-1" d="M665.06,207.86a8,8,0,0,1,2.71-2.58,6.71,6.71,0,0,1,3.35-.9,4.85,4.85,0,0,1,2.54.62,3.6,3.6,0,0,1,1.48,1.62l.36-2h4.38l-2.54,14.35H673l.38-2a6.21,6.21,0,0,1-4.84,2.24,5.07,5.07,0,0,1-2.67-.7,4.67,4.67,0,0,1-1.81-2,6.62,6.62,0,0,1-.64-3,11,11,0,0,1,.16-1.75A9.73,9.73,0,0,1,665.06,207.86Zm9.26,3.06a2.64,2.64,0,0,0-.73-2,2.51,2.51,0,0,0-1.85-.72,3.56,3.56,0,0,0-2.38.93,4.27,4.27,0,0,0-1.36,2.59,5.38,5.38,0,0,0-.08.85,2.72,2.72,0,0,0,.73,2,2.48,2.48,0,0,0,1.83.73,3.51,3.51,0,0,0,2.39-.95,4.48,4.48,0,0,0,1.38-2.59A5.39,5.39,0,0,0,674.32,210.92Z"/><path class="cls-1" d="M689.91,213.75h4.69a8.9,8.9,0,0,1-2.59,3.57,7.83,7.83,0,0,1-3.92,1.72l-.17,1a3.44,3.44,0,0,1,2,.57,2,2,0,0,1,.84,1.74,3.36,3.36,0,0,1,0,.62,3.16,3.16,0,0,1-1.44,2.22,4.7,4.7,0,0,1-2.63.76h-3.95l.44-2.42h3.33a1.75,1.75,0,0,0,.8-.15.64.64,0,0,0,.35-.51.44.44,0,0,0-.15-.51,1.58,1.58,0,0,0-.75-.14h-1.82l.57-3.14a5.5,5.5,0,0,1-3.43-1.83,5.68,5.68,0,0,1-1.26-3.8,9.38,9.38,0,0,1,.16-1.64,9.15,9.15,0,0,1,1.58-3.91,8.22,8.22,0,0,1,3-2.58,8.41,8.41,0,0,1,3.87-.9,6,6,0,0,1,4.25,1.42,5.42,5.42,0,0,1,1.67,4h-4.66a1.81,1.81,0,0,0-2-1.64,2.72,2.72,0,0,0-2.07.94,5.2,5.2,0,0,0-1.18,2.69,5.8,5.8,0,0,0-.1,1.13,2.76,2.76,0,0,0,.56,1.85,1.94,1.94,0,0,0,1.54.64A2.71,2.71,0,0,0,689.91,213.75Z"/><path class="cls-1" d="M697.92,207.86a8,8,0,0,1,2.72-2.58,6.68,6.68,0,0,1,3.35-.9,4.81,4.81,0,0,1,2.53.62,3.63,3.63,0,0,1,1.49,1.62l.36-2h4.37l-2.53,14.35h-4.38l.39-2a6.25,6.25,0,0,1-4.84,2.24,5,5,0,0,1-2.67-.7,4.67,4.67,0,0,1-1.81-2,6.5,6.5,0,0,1-.64-3,11,11,0,0,1,.15-1.75A9.88,9.88,0,0,1,697.92,207.86Zm9.27,3.06a2.64,2.64,0,0,0-.73-2,2.53,2.53,0,0,0-1.86-.72,3.56,3.56,0,0,0-2.38.93,4.26,4.26,0,0,0-1.35,2.59,5.38,5.38,0,0,0-.08.85,2.68,2.68,0,0,0,.73,2,2.48,2.48,0,0,0,1.83.73,3.49,3.49,0,0,0,2.38-.95,4.37,4.37,0,0,0,1.38-2.59A5.49,5.49,0,0,0,707.19,210.92ZM705,199.44a2.55,2.55,0,0,1,1,.17,5.36,5.36,0,0,1,.92.5,3.74,3.74,0,0,0,.67.38,1.67,1.67,0,0,0,.59.11c.65,0,1.08-.38,1.3-1.16h2.26q-1.26,3.81-4.2,3.81a2.37,2.37,0,0,1-1-.17,5.1,5.1,0,0,1-.93-.5,3.86,3.86,0,0,0-.66-.37,1.52,1.52,0,0,0-.59-.12c-.61,0-1.06.39-1.33,1.16h-2.23Q702.1,199.44,705,199.44Z"/><path class="cls-1" d="M716.63,218.4a5.35,5.35,0,0,1-2.21-2.11,6.25,6.25,0,0,1-.78-3.16,8.76,8.76,0,0,1,1.15-4.45,8.3,8.3,0,0,1,3.18-3.15,8.89,8.89,0,0,1,4.5-1.15,7,7,0,0,1,3.29.76,5.52,5.52,0,0,1,2.24,2.12,6.19,6.19,0,0,1,.79,3.17,8.65,8.65,0,0,1-1.16,4.46,8.37,8.37,0,0,1-3.2,3.13,9.19,9.19,0,0,1-4.52,1.13A7,7,0,0,1,716.63,218.4Zm5.83-3.69a4.41,4.41,0,0,0,1.33-1.7,5.26,5.26,0,0,0,.47-2.17,2.68,2.68,0,0,0-.69-2,2.37,2.37,0,0,0-1.74-.7,3,3,0,0,0-1.93.66,4.27,4.27,0,0,0-1.29,1.71,5.41,5.41,0,0,0-.46,2.21,2.67,2.67,0,0,0,.66,1.94,2.28,2.28,0,0,0,1.72.69A3.09,3.09,0,0,0,722.46,214.71Z"/><path class="cls-1" d="M748.9,205.89a5.32,5.32,0,0,1,1.62,4.1,8.68,8.68,0,0,1-.12,1.52,12.76,12.76,0,0,1-.31,1.26h-9.91c0,.1,0,.26,0,.49a2.27,2.27,0,0,0,.61,1.72,2.25,2.25,0,0,0,1.64.59,2.79,2.79,0,0,0,2.51-1.39h4.66a8.05,8.05,0,0,1-3,3.58,8.21,8.21,0,0,1-4.66,1.39,6.19,6.19,0,0,1-4.41-1.55,5.44,5.44,0,0,1-1.65-4.19,9.35,9.35,0,0,1,.15-1.64,9.16,9.16,0,0,1,1.59-3.91,8.14,8.14,0,0,1,3-2.58,8.62,8.62,0,0,1,3.92-.9A6.2,6.2,0,0,1,748.9,205.89ZM746.15,210a2,2,0,0,0-.64-1.58,2.49,2.49,0,0,0-1.69-.55,3.1,3.1,0,0,0-2,.68,3.83,3.83,0,0,0-1.24,1.94h5.51C746.13,210.29,746.15,210.13,746.15,210Z"/><path class="cls-1" d="M343.36,242a3,3,0,0,0,0,.34.77.77,0,0,0,.27.66,1.44,1.44,0,0,0,.88.21h1.56l-.66,3.73h-2.23q-4.31,0-4.3-3.63A8.61,8.61,0,0,1,339,242l1-5.71h-1.74l.64-3.65h1.74l.62-3.5h4.37l-.61,3.5h2.87l-.65,3.65h-2.86Z"/><path class="cls-1" d="M361.12,233.9a5.32,5.32,0,0,1,1.62,4.1,7.76,7.76,0,0,1-.13,1.52,12.56,12.56,0,0,1-.3,1.26H352.4a2.77,2.77,0,0,0,0,.49,2.1,2.1,0,0,0,2.26,2.31,2.77,2.77,0,0,0,2.5-1.39h4.66a8,8,0,0,1-3,3.58,8.24,8.24,0,0,1-4.66,1.39,6.24,6.24,0,0,1-4.42-1.55,5.45,5.45,0,0,1-1.65-4.19,8.69,8.69,0,0,1,.16-1.65,9.26,9.26,0,0,1,1.58-3.91,8.23,8.23,0,0,1,3-2.57,8.59,8.59,0,0,1,3.92-.9A6.2,6.2,0,0,1,361.12,233.9Zm-2.76,4.15a2,2,0,0,0-.64-1.58,2.47,2.47,0,0,0-1.69-.55,3.05,3.05,0,0,0-2,.68,3.83,3.83,0,0,0-1.24,1.94h5.5A3.12,3.12,0,0,0,358.36,238.05Z"/><path class="cls-1" d="M365.58,235.86a8.25,8.25,0,0,1,3-2.57,8.49,8.49,0,0,1,3.88-.9,6.07,6.07,0,0,1,4.25,1.42,5.37,5.37,0,0,1,1.66,4H373.7a1.81,1.81,0,0,0-2-1.64,2.72,2.72,0,0,0-2.07.94,5.12,5.12,0,0,0-1.18,2.68,6,6,0,0,0-.1,1.14,2.71,2.71,0,0,0,.56,1.85,1.93,1.93,0,0,0,1.54.64,2.71,2.71,0,0,0,2.53-1.65h4.68a8.45,8.45,0,0,1-3.07,4,8.09,8.09,0,0,1-4.73,1.44,6.13,6.13,0,0,1-4.39-1.53,5.45,5.45,0,0,1-1.63-4.18,9.07,9.07,0,0,1,.16-1.68A9.26,9.26,0,0,1,365.58,235.86Z"/><path class="cls-1" d="M393.69,233.65a4.52,4.52,0,0,1,1.23,3.37,7.92,7.92,0,0,1-.16,1.55L393.28,247h-4.35l1.38-7.79a4.69,4.69,0,0,0,.08-.78,2.27,2.27,0,0,0-.61-1.67,2.3,2.3,0,0,0-1.67-.59,3.06,3.06,0,0,0-2.15.8,3.84,3.84,0,0,0-1.13,2.24V239L383.45,247h-4.38l2.51-14.35H386l-.34,1.93a6.28,6.28,0,0,1,2.06-1.52,6.16,6.16,0,0,1,2.63-.57A4.64,4.64,0,0,1,393.69,233.65Z"/><path class="cls-1" d="M399.57,246.41a5.35,5.35,0,0,1-2.21-2.11,6.25,6.25,0,0,1-.78-3.16,8.73,8.73,0,0,1,1.15-4.45,8.3,8.3,0,0,1,3.18-3.15,8.87,8.87,0,0,1,4.5-1.15,7,7,0,0,1,3.29.76,5.52,5.52,0,0,1,2.24,2.12,6.19,6.19,0,0,1,.79,3.17,8.75,8.75,0,0,1-1.16,4.46,8.27,8.27,0,0,1-3.2,3.12,9.09,9.09,0,0,1-4.52,1.14A7,7,0,0,1,399.57,246.41Zm5.83-3.69a4.41,4.41,0,0,0,1.33-1.7,5.26,5.26,0,0,0,.47-2.17,2.68,2.68,0,0,0-.69-2,2.33,2.33,0,0,0-1.74-.7,3,3,0,0,0-1.93.66,4.38,4.38,0,0,0-1.3,1.71,5.57,5.57,0,0,0-.46,2.21,2.67,2.67,0,0,0,.67,1.94,2.26,2.26,0,0,0,1.71.69A3.1,3.1,0,0,0,405.4,242.72Z"/><path class="cls-1" d="M420.36,227.92,417,247h-4.37l3.35-19Z"/><path class="cls-1" d="M423.43,246.41a5.3,5.3,0,0,1-2.21-2.11,6.25,6.25,0,0,1-.79-3.16,8.74,8.74,0,0,1,1.16-4.45,8.2,8.2,0,0,1,3.17-3.15,8.93,8.93,0,0,1,4.51-1.15,7,7,0,0,1,3.28.76,5.4,5.4,0,0,1,2.24,2.12,6.19,6.19,0,0,1,.8,3.17,8.66,8.66,0,0,1-1.17,4.46,8.2,8.2,0,0,1-3.2,3.12,9.05,9.05,0,0,1-4.51,1.14A7,7,0,0,1,423.43,246.41Zm5.82-3.69a4.32,4.32,0,0,0,1.33-1.7,5.12,5.12,0,0,0,.48-2.17,2.68,2.68,0,0,0-.69-2,2.33,2.33,0,0,0-1.74-.7,3,3,0,0,0-1.94.66,4.46,4.46,0,0,0-1.29,1.71,5.41,5.41,0,0,0-.46,2.21,2.63,2.63,0,0,0,.67,1.94,2.26,2.26,0,0,0,1.71.69A3.07,3.07,0,0,0,429.25,242.72Z"/><path class="cls-1" d="M447,233a3.3,3.3,0,0,1,1.46,1.62l.36-2h4.37l-2.5,14.32a9.44,9.44,0,0,1-1.43,3.59,7.56,7.56,0,0,1-2.84,2.56,8.54,8.54,0,0,1-4.13,1,7.19,7.19,0,0,1-4.89-1.5,4.71,4.71,0,0,1-1.54-4.08h4.33a1.7,1.7,0,0,0,.76,1.3,3,3,0,0,0,1.8.48,3.46,3.46,0,0,0,2.3-.79,4.08,4.08,0,0,0,1.26-2.51l.36-2a6.42,6.42,0,0,1-2.06,1.64,6,6,0,0,1-2.76.63,5.16,5.16,0,0,1-2.67-.7,4.72,4.72,0,0,1-1.82-2,6.64,6.64,0,0,1-.65-3,10.82,10.82,0,0,1,.15-1.72,10,10,0,0,1,1.51-3.89,8.1,8.1,0,0,1,2.72-2.57,6.66,6.66,0,0,1,3.35-.9A5,5,0,0,1,447,233Zm.64,5.91a2.64,2.64,0,0,0-.73-2,2.55,2.55,0,0,0-1.86-.72,3.57,3.57,0,0,0-2.38.94,4.26,4.26,0,0,0-1.35,2.59,5.38,5.38,0,0,0-.08.85,2.68,2.68,0,0,0,.73,2,2.48,2.48,0,0,0,1.83.73,3.49,3.49,0,0,0,2.38-.95,4.37,4.37,0,0,0,1.38-2.6A5.38,5.38,0,0,0,447.67,238.92Z"/><path class="cls-1" d="M460.75,232.6,458.24,247h-4.38l2.51-14.35Zm-3.52-2a1.82,1.82,0,0,1-.6-1.4,2.62,2.62,0,0,1,.89-2,3.11,3.11,0,0,1,2.18-.82,2.25,2.25,0,0,1,1.61.55,1.89,1.89,0,0,1,.59,1.43,2.56,2.56,0,0,1-.9,1.95,3,3,0,0,1-2.15.83A2.29,2.29,0,0,1,457.23,230.55Z"/><path class="cls-1" d="M463.33,235.86a8.1,8.1,0,0,1,2.72-2.57,6.68,6.68,0,0,1,3.35-.9,4.81,4.81,0,0,1,2.53.62,3.63,3.63,0,0,1,1.49,1.62l.36-2h4.37L475.62,247h-4.38l.39-2a6.25,6.25,0,0,1-4.84,2.24,5.11,5.11,0,0,1-2.67-.7,4.67,4.67,0,0,1-1.81-2,6.52,6.52,0,0,1-.64-3,11,11,0,0,1,.15-1.75A10,10,0,0,1,463.33,235.86Zm9.27,3.06a2.64,2.64,0,0,0-.73-2,2.53,2.53,0,0,0-1.86-.72,3.57,3.57,0,0,0-2.38.94,4.26,4.26,0,0,0-1.35,2.59,5.38,5.38,0,0,0-.08.85,2.68,2.68,0,0,0,.73,2,2.48,2.48,0,0,0,1.83.73,3.49,3.49,0,0,0,2.38-.95,4.37,4.37,0,0,0,1.38-2.6A5.38,5.38,0,0,0,472.6,238.92Z"/><path class="cls-1" d="M499.32,233.65a4.52,4.52,0,0,1,1.23,3.37,8.72,8.72,0,0,1-.15,1.55L498.91,247h-4.35l1.38-7.79a4.69,4.69,0,0,0,.08-.78,2.26,2.26,0,0,0-.6-1.67,2.31,2.31,0,0,0-1.68-.59,3.08,3.08,0,0,0-2.15.8,3.83,3.83,0,0,0-1.12,2.24V239L489.08,247h-4.37l2.5-14.35h4.38l-.33,1.93a6.17,6.17,0,0,1,2.06-1.52,6.08,6.08,0,0,1,2.62-.57A4.63,4.63,0,0,1,499.32,233.65Z"/><path class="cls-1" d="M505.21,246.41A5.3,5.3,0,0,1,503,244.3a6.15,6.15,0,0,1-.79-3.16,8.74,8.74,0,0,1,1.16-4.45,8.2,8.2,0,0,1,3.17-3.15,8.92,8.92,0,0,1,4.5-1.15,7,7,0,0,1,3.29.76,5.46,5.46,0,0,1,2.24,2.12,6.19,6.19,0,0,1,.8,3.17,8.66,8.66,0,0,1-1.17,4.46A8.2,8.2,0,0,1,513,246a9.05,9.05,0,0,1-4.51,1.14A7,7,0,0,1,505.21,246.41Zm5.82-3.69a4.32,4.32,0,0,0,1.33-1.7,5.12,5.12,0,0,0,.48-2.17,2.68,2.68,0,0,0-.69-2,2.34,2.34,0,0,0-1.74-.7,3,3,0,0,0-1.94.66,4.46,4.46,0,0,0-1.29,1.71,5.41,5.41,0,0,0-.46,2.21,2.67,2.67,0,0,0,.66,1.94,2.3,2.3,0,0,0,1.72.69A3.07,3.07,0,0,0,511,242.72Z"/><path class="cls-1" d="M548.56,233.67a4.45,4.45,0,0,1,1.29,3.4,8.45,8.45,0,0,1-.15,1.5L548.21,247h-4.35l1.38-7.79a3.35,3.35,0,0,0,0-.7,2.13,2.13,0,0,0-.6-1.64,2.34,2.34,0,0,0-1.68-.57,3.14,3.14,0,0,0-2.15.76,3.51,3.51,0,0,0-1.1,2.15L538.38,247H534l1.38-7.79a3.35,3.35,0,0,0,.05-.7,2.13,2.13,0,0,0-.6-1.64,2.33,2.33,0,0,0-1.67-.57A3.12,3.12,0,0,0,531,237a3.52,3.52,0,0,0-1.11,2.15V239L528.55,247h-4.38l2.51-14.35h4.38l-.31,1.82a5.91,5.91,0,0,1,2-1.45,6,6,0,0,1,2.52-.53,5.19,5.19,0,0,1,2.78.7,3.84,3.84,0,0,1,1.62,2,7.37,7.37,0,0,1,2.36-1.95,6.15,6.15,0,0,1,2.94-.75A5,5,0,0,1,548.56,233.67Z"/><path class="cls-1" d="M567.89,232.6,565.39,247H561l.33-1.95a6.48,6.48,0,0,1-2.06,1.53,6.06,6.06,0,0,1-2.6.57,4.23,4.23,0,0,1-4.6-4.63,8.57,8.57,0,0,1,.12-1.49l1.49-8.38H558l-1.36,7.79a4.48,4.48,0,0,0-.07.8,2.21,2.21,0,0,0,.6,1.66,2.34,2.34,0,0,0,1.67.58,3.11,3.11,0,0,0,2.09-.74,3.59,3.59,0,0,0,1.14-2.09l1.41-8Z"/><path class="cls-1" d="M583.15,233.65a4.52,4.52,0,0,1,1.23,3.37,7.92,7.92,0,0,1-.16,1.55L582.74,247h-4.35l1.38-7.79a4.69,4.69,0,0,0,.08-.78,2.26,2.26,0,0,0-.6-1.67,2.32,2.32,0,0,0-1.68-.59,3.08,3.08,0,0,0-2.15.8,3.84,3.84,0,0,0-1.13,2.24V239L572.91,247h-4.38L571,232.6h4.38l-.33,1.93a6.17,6.17,0,0,1,2.06-1.52,6.08,6.08,0,0,1,2.62-.57A4.64,4.64,0,0,1,583.15,233.65Z"/><path class="cls-1" d="M587.71,235.86a8.07,8.07,0,0,1,2.71-2.57,6.68,6.68,0,0,1,3.35-.9,5,5,0,0,1,2.47.59,3.62,3.62,0,0,1,1.55,1.6l1.18-6.66h4.37L600,247h-4.38l.36-2.06a6,6,0,0,1-4.78,2.27,5.17,5.17,0,0,1-2.68-.7,4.72,4.72,0,0,1-1.82-2,6.64,6.64,0,0,1-.65-3,9.83,9.83,0,0,1,.16-1.72A9.69,9.69,0,0,1,587.71,235.86Zm9.26,3.06a2.64,2.64,0,0,0-.73-2,2.51,2.51,0,0,0-1.85-.72,3.55,3.55,0,0,0-2.38.94,4.27,4.27,0,0,0-1.36,2.59,5.38,5.38,0,0,0-.08.85,2.72,2.72,0,0,0,.73,2,2.48,2.48,0,0,0,1.83.73,3.47,3.47,0,0,0,2.38-.95,4.37,4.37,0,0,0,1.38-2.6A4.41,4.41,0,0,0,597,238.92Z"/><path class="cls-1" d="M606.42,246.41a5.32,5.32,0,0,1-2.22-2.11,6.25,6.25,0,0,1-.78-3.16,8.83,8.83,0,0,1,1.15-4.45,8.3,8.3,0,0,1,3.18-3.15,8.89,8.89,0,0,1,4.5-1.15,7,7,0,0,1,3.29.76,5.52,5.52,0,0,1,2.24,2.12,6.19,6.19,0,0,1,.79,3.17,8.65,8.65,0,0,1-1.16,4.46,8.27,8.27,0,0,1-3.2,3.12,9.09,9.09,0,0,1-4.52,1.14A6.92,6.92,0,0,1,606.42,246.41Zm5.82-3.69a4.41,4.41,0,0,0,1.33-1.7,5.11,5.11,0,0,0,.47-2.17,2.68,2.68,0,0,0-.69-2,2.33,2.33,0,0,0-1.74-.7,3,3,0,0,0-1.93.66,4.27,4.27,0,0,0-1.29,1.71,5.41,5.41,0,0,0-.46,2.21,2.67,2.67,0,0,0,.66,1.94,2.3,2.3,0,0,0,1.72.69A3.09,3.09,0,0,0,612.24,242.72Z"/><path class="cls-1" d="M627.3,235.86a8.1,8.1,0,0,1,2.72-2.57,6.66,6.66,0,0,1,3.35-.9,5,5,0,0,1,2.47.59,3.67,3.67,0,0,1,1.55,1.6l1.17-6.66h4.38l-3.35,19h-4.38l.36-2.06a6,6,0,0,1-4.79,2.27,5.14,5.14,0,0,1-2.67-.7,4.72,4.72,0,0,1-1.82-2,6.64,6.64,0,0,1-.65-3,10.82,10.82,0,0,1,.15-1.72A10,10,0,0,1,627.3,235.86Zm9.27,3.06a2.64,2.64,0,0,0-.73-2,2.55,2.55,0,0,0-1.86-.72,3.57,3.57,0,0,0-2.38.94,4.26,4.26,0,0,0-1.35,2.59,4.41,4.41,0,0,0-.08.85,2.68,2.68,0,0,0,.73,2,2.45,2.45,0,0,0,1.83.73,3.49,3.49,0,0,0,2.38-.95,4.37,4.37,0,0,0,1.38-2.6A5.38,5.38,0,0,0,636.57,238.92Z"/><path class="cls-1" d="M646,246.41a5.35,5.35,0,0,1-2.21-2.11,6.25,6.25,0,0,1-.78-3.16,8.73,8.73,0,0,1,1.15-4.45,8.34,8.34,0,0,1,3.17-3.15,8.93,8.93,0,0,1,4.51-1.15,7.06,7.06,0,0,1,3.29.76,5.52,5.52,0,0,1,2.24,2.12,6.19,6.19,0,0,1,.79,3.17A8.75,8.75,0,0,1,657,242.9a8.34,8.34,0,0,1-3.2,3.12,9.12,9.12,0,0,1-4.52,1.14A7,7,0,0,1,646,246.41Zm5.83-3.69a4.41,4.41,0,0,0,1.33-1.7,5.26,5.26,0,0,0,.47-2.17,2.68,2.68,0,0,0-.69-2,2.33,2.33,0,0,0-1.74-.7,3,3,0,0,0-1.93.66,4.38,4.38,0,0,0-1.3,1.71,5.57,5.57,0,0,0-.46,2.21,2.63,2.63,0,0,0,.67,1.94,2.26,2.26,0,0,0,1.71.69A3.12,3.12,0,0,0,651.84,242.72Z"/><path class="cls-1" d="M670.92,242a1.58,1.58,0,0,0,0,.34.77.77,0,0,0,.27.66,1.44,1.44,0,0,0,.88.21h1.56l-.66,3.73h-2.23c-2.86,0-4.3-1.21-4.3-3.63a10,10,0,0,1,.13-1.36l1-5.71h-1.74l.64-3.65h1.74l.62-3.5h4.38l-.62,3.5h2.87l-.64,3.65h-2.87Z"/><path class="cls-1" d="M684.09,233.18a5.38,5.38,0,0,1,2.7-.74L686,237.1h-1.21a4.16,4.16,0,0,0-2.58.71,3.79,3.79,0,0,0-1.26,2.48L679.75,247h-4.38l2.51-14.35h4.38l-.47,2.6A7.69,7.69,0,0,1,684.09,233.18Z"/><path class="cls-1" d="M688.25,235.86a8.07,8.07,0,0,1,2.71-2.57,6.68,6.68,0,0,1,3.35-.9,4.88,4.88,0,0,1,2.54.62,3.66,3.66,0,0,1,1.48,1.62l.36-2h4.38L700.53,247h-4.38l.39-2a6.25,6.25,0,0,1-4.84,2.24,5.11,5.11,0,0,1-2.67-.7,4.67,4.67,0,0,1-1.81-2,6.52,6.52,0,0,1-.64-3,10,10,0,0,1,.16-1.75A9.69,9.69,0,0,1,688.25,235.86Zm9.26,3.06a2.64,2.64,0,0,0-.73-2,2.51,2.51,0,0,0-1.85-.72,3.55,3.55,0,0,0-2.38.94,4.27,4.27,0,0,0-1.36,2.59,5.38,5.38,0,0,0-.08.85,2.72,2.72,0,0,0,.73,2,2.48,2.48,0,0,0,1.83.73,3.47,3.47,0,0,0,2.38-.95,4.37,4.37,0,0,0,1.38-2.6A4.41,4.41,0,0,0,697.51,238.92Z"/><path class="cls-1" d="M712.31,233a6.08,6.08,0,0,1,2.73-.62,4.88,4.88,0,0,1,3.73,1.51,5.71,5.71,0,0,1,1.42,4.1,11,11,0,0,1-.15,1.75,10.05,10.05,0,0,1-1.51,3.89,8.2,8.2,0,0,1-2.72,2.6,6.6,6.6,0,0,1-3.35.92,4.91,4.91,0,0,1-2.53-.61,3.56,3.56,0,0,1-1.49-1.61l-.36,2h-4.37l3.35-19h4.38l-1.21,6.71A6.11,6.11,0,0,1,712.31,233Zm3.37,5.94a2.72,2.72,0,0,0-.72-2,2.55,2.55,0,0,0-1.86-.72,3.5,3.5,0,0,0-2.38,1,4.37,4.37,0,0,0-1.38,2.59,5.49,5.49,0,0,0-.08.85,2.68,2.68,0,0,0,.72,2,2.47,2.47,0,0,0,1.84.72,3.52,3.52,0,0,0,2.39-1,4.45,4.45,0,0,0,1.4-2.61A4.73,4.73,0,0,0,715.68,239Z"/><path class="cls-1" d="M723,235.86a8.2,8.2,0,0,1,2.72-2.57,6.68,6.68,0,0,1,3.35-.9,4.88,4.88,0,0,1,2.54.62,3.66,3.66,0,0,1,1.48,1.62l.36-2h4.38L735.29,247h-4.38l.39-2a6.25,6.25,0,0,1-4.84,2.24,5.11,5.11,0,0,1-2.67-.7,4.67,4.67,0,0,1-1.81-2,6.52,6.52,0,0,1-.64-3,10,10,0,0,1,.16-1.75A9.83,9.83,0,0,1,723,235.86Zm9.27,3.06a2.64,2.64,0,0,0-.73-2,2.51,2.51,0,0,0-1.85-.72,3.55,3.55,0,0,0-2.38.94,4.27,4.27,0,0,0-1.36,2.59,5.38,5.38,0,0,0-.08.85,2.72,2.72,0,0,0,.73,2,2.48,2.48,0,0,0,1.83.73,3.47,3.47,0,0,0,2.38-.95,4.37,4.37,0,0,0,1.38-2.6A4.41,4.41,0,0,0,732.27,238.92Z"/><path class="cls-1" d="M746.2,227.92l-3.36,19h-4.38l3.36-19Z"/><path class="cls-1" d="M760.64,233.65a4.51,4.51,0,0,1,1.22,3.37,8.72,8.72,0,0,1-.15,1.55L760.22,247h-4.35l1.38-7.79a4.69,4.69,0,0,0,.08-.78,2.26,2.26,0,0,0-.6-1.67,2.31,2.31,0,0,0-1.68-.59,3.08,3.08,0,0,0-2.15.8,3.83,3.83,0,0,0-1.12,2.24v0L750.39,247H746l3.35-19h4.38l-1.16,6.58a6.2,6.2,0,0,1,2.08-1.5,6.37,6.37,0,0,1,2.66-.56A4.5,4.5,0,0,1,760.64,233.65Z"/><path class="cls-1" d="M766.52,246.41a5.38,5.38,0,0,1-2.22-2.11,6.25,6.25,0,0,1-.78-3.16,8.74,8.74,0,0,1,1.16-4.45,8.2,8.2,0,0,1,3.17-3.15,8.92,8.92,0,0,1,4.5-1.15,7,7,0,0,1,3.29.76,5.46,5.46,0,0,1,2.24,2.12,6.19,6.19,0,0,1,.8,3.17,8.66,8.66,0,0,1-1.17,4.46,8.2,8.2,0,0,1-3.2,3.12,9.06,9.06,0,0,1-4.52,1.14A7,7,0,0,1,766.52,246.41Zm5.82-3.69a4.32,4.32,0,0,0,1.33-1.7,5.12,5.12,0,0,0,.48-2.17,2.68,2.68,0,0,0-.69-2,2.35,2.35,0,0,0-1.75-.7,3,3,0,0,0-1.93.66,4.46,4.46,0,0,0-1.29,1.71,5.41,5.41,0,0,0-.46,2.21,2.67,2.67,0,0,0,.66,1.94,2.3,2.3,0,0,0,1.72.69A3.07,3.07,0,0,0,772.34,242.72Z"/><path class="cls-2" d="M448.94,99.56q.85,7.51,4.86,11.4a13.63,13.63,0,0,0,9.93,3.89,9.58,9.58,0,0,0,6.92-2.42,8.42,8.42,0,0,0,2.54-6.39q0-6-8.17-9.25l-8.43-3.54q-9.81-4.06-9.8-13.4a15,15,0,0,1,2-7.6,14.18,14.18,0,0,1,5.94-5.53,20.42,20.42,0,0,1,9.63-2.08,23.58,23.58,0,0,1,4.82.43,34.45,34.45,0,0,1,4,1.13c1.32.46,2.27.77,2.84,1a8.07,8.07,0,0,0,2.58.52,7.1,7.1,0,0,0,2.41-.35,59.57,59.57,0,0,0-.26,6.57q0,2.51.09,3.63a7.46,7.46,0,0,0,.43,2.07h-2.93a11.21,11.21,0,0,0-3.65-8.68,12.76,12.76,0,0,0-8.9-3.33,10.47,10.47,0,0,0-6.8,2.16,6.88,6.88,0,0,0-2.66,5.62A6.29,6.29,0,0,0,458,79.72a15,15,0,0,0,5.63,3.5L471,86.33q6.72,2.94,9.59,6.27a12.93,12.93,0,0,1,2.88,8.77,16.63,16.63,0,0,1-2.15,8.43,15.25,15.25,0,0,1-6.36,6,21.85,21.85,0,0,1-10.24,2.2,33,33,0,0,1-8.17-1.12,32.47,32.47,0,0,0-6.7-1.3,17.15,17.15,0,0,0-1.85.13,5,5,0,0,0-1.42.31,42.36,42.36,0,0,0,.34-6.66q0-3.45-.17-6.39c-.12-2-.29-3-.52-3.12Z"/><path class="cls-2" d="M518.38,83.78c3.13,2.86,4.72,6.9,4.78,12.15v3.19H498.39q0,7.44,2.71,11.33t8.12,4a11.93,11.93,0,0,0,7-2,12.43,12.43,0,0,0,4.3-5l2.32,1.64a14.14,14.14,0,0,1-6.32,6.57A21.77,21.77,0,0,1,506,118q-10.23,0-15-4.66t-4.73-14.44q0-9.93,4.9-14.64t14.62-4.71C511.08,79.51,515.26,80.93,518.38,83.78Zm-18.19,2.51a24.57,24.57,0,0,0-1.72,10h11.44a1.49,1.49,0,0,0,1.29-.6,4.13,4.13,0,0,0,.43-2.25q0-5.61-1.42-8.3a4.83,4.83,0,0,0-4.6-2.68C503.14,82.44,501.34,83.73,500.19,86.29Z"/><path class="cls-2" d="M592.47,114.16v2.94H573v-2.94l3.09.17c.75-.17,1.12-.72,1.12-1.64V91.78a21.78,21.78,0,0,0-.64-6.31,2.61,2.61,0,0,0-2.71-1.9,6.12,6.12,0,0,0-4,1.9A14.63,14.63,0,0,0,566.33,91a23.91,23.91,0,0,0-1.55,8.56v13.13c0,1.1.37,1.64,1.12,1.64l3-.17v2.94H549.3v-2.94l3.1.17c.74-.17,1.11-.72,1.11-1.64V91.78a20.67,20.67,0,0,0-.68-6.4A2.74,2.74,0,0,0,550,83.57a5.91,5.91,0,0,0-3.83,1.81,14.64,14.64,0,0,0-3.48,5.23A23.67,23.67,0,0,0,541,98.69v14c0,1.16.37,1.7,1.12,1.64l3.09-.17v2.94H525.73v-2.94l2.84.17c.75-.17,1.12-.72,1.12-1.64V84.78c0-1-.37-1.56-1.12-1.73l-2.84.17V80.37h15.74a9.47,9.47,0,0,0-.43,2.94v4.84a14.75,14.75,0,0,1,5.16-6.35,13.84,13.84,0,0,1,8-2.29q4.65,0,7.18,2.16t3.14,7a14.85,14.85,0,0,1,5.25-6.79,14,14,0,0,1,8.17-2.37q5.5,0,8,3t2.54,9.37v20.83c0,1.1.37,1.64,1.11,1.64Z"/><path class="cls-2" d="M609.5,112.69c0,1.16.37,1.7,1.12,1.64l2.84-.17v2.94H594.28v-2.94l2.84.17h.17c.63,0,.94-.54.94-1.64V84.78c0-1-.34-1.56-1-1.73l-2.84.17V80.37H609.5Zm-1.07-50.9a4.74,4.74,0,0,1,1.85,3.89,4.81,4.81,0,0,1-1.85,4,8.49,8.49,0,0,1-9.55,0,4.81,4.81,0,0,1-1.85-4,4.74,4.74,0,0,1,1.85-3.89,8.49,8.49,0,0,1,9.55,0Z"/><path class="cls-2" d="M659.73,114.16v2.94H640.12v-2.94l3.26.17c.75-.17,1.12-.72,1.12-1.64V91.78a19.16,19.16,0,0,0-.73-6.35c-.49-1.24-1.59-1.86-3.31-1.86a6.44,6.44,0,0,0-4.34,1.9,13.93,13.93,0,0,0-3.49,5.62,25.81,25.81,0,0,0-1.37,8.9v12.7c0,1.1.37,1.64,1.12,1.64l3.35-.17v2.94H616v-2.94l2.83.17c.75-.17,1.12-.72,1.12-1.64V84.78c0-1-.37-1.56-1.12-1.73l-2.83.17V80.37h15.65a9.51,9.51,0,0,0-.43,3v4.83a15,15,0,0,1,5.29-6.43,14,14,0,0,1,8-2.29q5.85,0,8.51,3t2.67,9.37v20.83c0,1.1.37,1.64,1.12,1.64Z"/><path class="cls-2" d="M699,114.16v2.94H683.38a22.19,22.19,0,0,0,.34-3.2l.09-2.33q-3.79,6-11.87,6-5.41,0-8.22-2.46c-1.86-1.64-2.79-4.08-2.79-7.3a10,10,0,0,1,5.5-9.34q5.51-3,17.38-3v-6a9.79,9.79,0,0,0-1.12-5.1q-1.12-1.82-4.65-1.82a6.73,6.73,0,0,0-4.25,1A3.14,3.14,0,0,0,672.54,86a4.38,4.38,0,0,0,.43,2,7.2,7.2,0,0,1,.34,1.72A3.5,3.5,0,0,1,672,92.64a5.38,5.38,0,0,1-3.4,1,5.46,5.46,0,0,1-3.91-1.43,4.73,4.73,0,0,1-1.5-3.58q0-4.15,4.29-6.66t11.62-2.5q16,0,16,11.49v21.69c0,1.1.37,1.64,1.12,1.64Zm-17.59-4a11,11,0,0,0,2.37-6V98.43q-5.85,0-8.52,2.08a7.38,7.38,0,0,0-2.67,6.22q0,5.7,4.22,5.7A5.83,5.83,0,0,0,681.44,110.14ZM690.86,65,676.5,73.8a3.72,3.72,0,0,1-2.07.78c-.63,0-.94-.29-.94-.86a4.06,4.06,0,0,1,1.37-2.34l8.17-9a16.22,16.22,0,0,1,1.76-1.81,2.25,2.25,0,0,1,1.34-.35,8.1,8.1,0,0,1,3.7,1.17c1.43.78,2.15,1.46,2.15,2S691.6,64.41,690.86,65Z"/><path class="cls-2" d="M732.27,81.67a7.26,7.26,0,0,1,2.36,5.61,4.86,4.86,0,0,1-1.5,3.89,5.4,5.4,0,0,1-3.66,1.3,5.8,5.8,0,0,1-3.22-.91,2.92,2.92,0,0,1-1.42-2.63,7.28,7.28,0,0,1,.34-1.82c.17-1,.26-1.61.26-1.73,0-1.26-.55-1.9-1.63-1.9q-2.25,0-4,2.55a19.19,19.19,0,0,0-2.71,6.35,33.5,33.5,0,0,0-1,7.35v13c0,1.1.37,1.64,1.11,1.64l5.94-.17v2.94H701.26v-2.94l2.41.17c.75,0,1.12-.54,1.12-1.64V84.78c0-1.15-.37-1.73-1.12-1.73l-2.75.17V80.37h15.65a11.3,11.3,0,0,0-.34,1.69,14.89,14.89,0,0,0-.17,2.29v4q3.09-8.82,10.14-8.81A8.66,8.66,0,0,1,732.27,81.67Z"/><path class="cls-2" d="M751.23,112.69c0,1.16.37,1.7,1.12,1.64l2.84-.17v2.94H736v-2.94l2.84.17H739c.63,0,.94-.54.94-1.64V84.78c0-1-.34-1.56-1-1.73l-2.84.17V80.37h15.14Zm-1.08-50.9A4.71,4.71,0,0,1,752,65.68a4.78,4.78,0,0,1-1.85,4,8.47,8.47,0,0,1-9.54,0,4.81,4.81,0,0,1-1.85-4,4.74,4.74,0,0,1,1.85-3.89,8.47,8.47,0,0,1,9.54,0Z"/><path class="cls-2" d="M762.58,84.43q4.81-4.92,14.45-4.92t14.45,4.92q4.72,4.93,4.73,14.26Q796.21,118,777,118q-9.63,0-14.45-4.92t-4.82-14.35Q757.76,89.36,762.58,84.43Zm8.9,26.84a5.71,5.71,0,0,0,5.55,3.67,5.63,5.63,0,0,0,5.5-3.63q1.63-3.63,1.64-12.45,0-9-1.64-12.7a5.63,5.63,0,0,0-5.5-3.72,5.72,5.72,0,0,0-5.55,3.72q-1.68,3.72-1.67,12.7Q769.81,107.59,771.48,111.27Z"/><path class="cls-2" d="M418.37,75q-7.31-6.15-18.92-6.15a36.6,36.6,0,0,0-14.65,3.31,40.31,40.31,0,0,1-7.12,9q-3.62,3.56-9.07,7.92h0l6.71-5.39c4.89-3.94,6.74-5.47,9.65-6.74a21.8,21.8,0,0,1,5.73-1.63,24.1,24.1,0,0,1,2.76-.19q15.74,0,15.73,18.95,0,9-3,13.92t-10.12,4.89a12.33,12.33,0,0,1-6.61-1.69,5.58,5.58,0,0,1-2.75-5.08,11,11,0,0,1,.5-2.64,12.39,12.39,0,0,0,.75-3.76,5.83,5.83,0,0,0-2.19-4.7,8.19,8.19,0,0,0-5.43-1.82,8.29,8.29,0,0,0-6.05,2.38,8.74,8.74,0,0,0-2.44,6.53q0,7.89,7.56,11.47a38.64,38.64,0,0,0,16.79,3.58,36.28,36.28,0,0,0,15-3,24.79,24.79,0,0,0,10.61-8.66,22.92,22.92,0,0,0,3.87-13.3Q425.67,81.16,418.37,75Z"/><path class="cls-3" d="M421.28,48.81c.1-.74.21-1.5.33-2.29.18-1.15.36-2.2.55-3.14A18.39,18.39,0,0,0,421.28,48.81Z"/><path class="cls-4" d="M410.44,51.7q0-6.51,4.09-10.18c.2-.18.41-.35.62-.52H361.57l16.19,12h32.73C410.45,52.61,410.44,52.16,410.44,51.7Z"/><path class="cls-2" d="M372.17,105c-.49,0-1,.07-1.47.07H347.1l16.23-11.92Q366.2,91,368.68,89l-.06,0h0q3.74-3,6.61-5.6l0,0,.48-.44.27-.25.47-.44.41-.39.2-.19.59-.57.61-.6.22-.23.36-.37.28-.29.28-.31.31-.33.23-.25.33-.37.17-.19c.12-.15.25-.29.37-.43l.09-.11a35.15,35.15,0,0,0,3.87-5.5h0c.2-.35.38-.7.56-1A23.08,23.08,0,0,0,387.8,60.7q0-9.8-7.3-14.74t-18.92-5a35,35,0,0,0-13,2.26,20.84,20.84,0,0,0-8.74,6,12.67,12.67,0,0,0-3.06,8.15,9.21,9.21,0,0,0,2.25,6.4,8.06,8.06,0,0,0,6.36,2.51,9,9,0,0,0,5.43-1.57A5.27,5.27,0,0,0,353,60.19a21.66,21.66,0,0,0-.5-3.76,13.41,13.41,0,0,1-.62-3.76,6.65,6.65,0,0,1,2.43-5.4,10.31,10.31,0,0,1,13.8,1.45q2.87,3.45,2.87,10.6a31.76,31.76,0,0,1-4.87,17.5,90.12,90.12,0,0,1-13.86,16.12L337,107.11l.37,10h58.86a38.64,38.64,0,0,1-16.79-3.58Q373.36,110.71,372.17,105Z"/><path class="cls-5" d="M372.18,105.11h-33l-2.16,2,.37,10h58.86a38.64,38.64,0,0,1-16.79-3.58Q373.4,110.72,372.18,105.11Z"/><path class="cls-2" d="M417.11,43.83c2.1-1.88,5-2.82,8.62-2.82s6.6.93,8.73,2.78a9.92,9.92,0,0,1,3.2,7.89,9.77,9.77,0,0,1-3.16,7.73c-2.1,1.86-5,2.79-8.77,2.79s-6.77-1-8.77-2.94a10.15,10.15,0,0,1-3-7.58A10,10,0,0,1,417.11,43.83ZM423,57.94a2.68,2.68,0,0,0,2.77,1.78,3,3,0,0,0,2.11-.66,4.22,4.22,0,0,0,1.08-2.35,27.2,27.2,0,0,0,.35-5,19.71,19.71,0,0,0-.73-6.5,2.77,2.77,0,0,0-2.81-1.77A2.69,2.69,0,0,0,423,45.26a19.49,19.49,0,0,0-.73,6.42A19.43,19.43,0,0,0,423,57.94Z"/><rect class="cls-2" x="416.19" y="64.81" width="19.23" height="1.88"/><path class="cls-2" d="M341,153.14q2.5-3.12,7.41-3.12a7.63,7.63,0,0,1,4.37,1.24,5.92,5.92,0,0,1,2.45,3.07V136.46c0-.73-.24-1.1-.71-1.1l-2.53.11V133.7h10.46v37.56c0,.7.23,1.05.71,1.05l1.82-.11v1.88H354.82a3.87,3.87,0,0,0,.11-.89V172A7.22,7.22,0,0,1,355,171a3.07,3.07,0,0,0,.06-.45,6,6,0,0,1-2.37,3,7.6,7.6,0,0,1-4.24,1.08q-5.34,0-7.65-3c-1.54-2-2.31-5.07-2.31-9.24S339.3,155.23,341,153.14Zm5.56,15a5.78,5.78,0,0,0,1.24,3,3.22,3.22,0,0,0,2.48.94,3.92,3.92,0,0,0,3.66-2.08,12.84,12.84,0,0,0,1.18-6.22v-2.38a14,14,0,0,0-1.26-6.55,4,4,0,0,0-3.64-2.35c-1.46,0-2.5.84-3.11,2.51a23.15,23.15,0,0,0-.9,7.39A35.36,35.36,0,0,0,346.53,168.16Z"/><path class="cls-2" d="M386.94,152.75q3,2.75,3.05,7.78v2H374.14c0,3.18.58,5.59,1.73,7.25a6,6,0,0,0,5.21,2.54,7.56,7.56,0,0,0,4.45-1.3,7.91,7.91,0,0,0,2.76-3.18l1.48,1.06a9.07,9.07,0,0,1-4,4.2,14.06,14.06,0,0,1-6.69,1.49q-6.56,0-9.58-3c-2-2-3-5.07-3-9.24s1.05-7.37,3.14-9.38,5.21-3,9.36-3A11.44,11.44,0,0,1,386.94,152.75Zm-11.65,1.61a15.84,15.84,0,0,0-1.1,6.39h7.33a.94.94,0,0,0,.82-.39,2.69,2.69,0,0,0,.28-1.44,11.94,11.94,0,0,0-.91-5.31,3.1,3.1,0,0,0-2.95-1.71A3.64,3.64,0,0,0,375.29,154.36Z"/><path class="cls-2" d="M403.42,172l1.93.11h.11c.62,0,.94-.4.94-1.21V144.21a1.44,1.44,0,0,0-.28-1,1.2,1.2,0,0,0-1-.25l-1.71.11v-2H417.9q6.23,0,9.19,2.29t3,7a9.56,9.56,0,0,1-2.89,7.27,10.86,10.86,0,0,1-7.79,2.74H414v10.57c0,.81.37,1.21,1.1,1.21l2.7-.11v2.05H403.42ZM417,158.37a4.27,4.27,0,0,0,3.66-2.27,10.46,10.46,0,0,0,1.46-5.75,8.94,8.94,0,0,0-1.46-5.31,4.48,4.48,0,0,0-3.82-2h-2.21a.7.7,0,0,0-.44.2.6.6,0,0,0-.22.47v14.71Z"/><path class="cls-2" d="M451.07,152.75q3,2.75,3.05,7.78v2H438.27c0,3.18.58,5.59,1.73,7.25a6,6,0,0,0,5.21,2.54,7.56,7.56,0,0,0,4.45-1.3,7.91,7.91,0,0,0,2.76-3.18l1.48,1.06a9.07,9.07,0,0,1-4,4.2,14.06,14.06,0,0,1-6.69,1.49q-6.56,0-9.58-3c-2-2-3-5.07-3-9.24s1.05-7.37,3.14-9.38,5.21-3,9.36-3A11.44,11.44,0,0,1,451.07,152.75Zm-11.65,1.61a15.84,15.84,0,0,0-1.1,6.39h7.33a.94.94,0,0,0,.82-.39,2.69,2.69,0,0,0,.28-1.44,11.94,11.94,0,0,0-.91-5.31,3.1,3.1,0,0,0-2.95-1.71A3.64,3.64,0,0,0,439.42,154.36Z"/><path class="cls-2" d="M456.88,166.22l1.87-.11a5.82,5.82,0,0,0,2.34,4.71,8.74,8.74,0,0,0,5.64,1.88,4.52,4.52,0,0,0,2.89-.86,2.91,2.91,0,0,0,1.07-2.41,2.64,2.64,0,0,0-.8-2,6.46,6.46,0,0,0-2.72-1.24l-4-1.11a9,9,0,0,1-4.71-2.71,7,7,0,0,1-1.51-4.64,7.11,7.11,0,0,1,2.36-5.56A9.62,9.62,0,0,1,466,150a12.08,12.08,0,0,1,2.09.16c.63.11,1.4.3,2.32.56a10.84,10.84,0,0,0,2.75.49,3.19,3.19,0,0,0,1.65-.44l-.33,6.31h-1.65a4.74,4.74,0,0,0-1.74-3.65,6.75,6.75,0,0,0-4.7-1.55,4.11,4.11,0,0,0-2.73.85,2.69,2.69,0,0,0-1,2.13,2.38,2.38,0,0,0,.77,1.8,5,5,0,0,0,2.25,1.14l3.8,1c2.53.67,4.27,1.61,5.2,2.82a8.45,8.45,0,0,1-1.24,10.82,10.65,10.65,0,0,1-7,2.18,13.22,13.22,0,0,1-2.56-.25c-.86-.16-2.21-.48-4-1a6.38,6.38,0,0,0-1.54-.23,3.23,3.23,0,0,0-1.71.34Z"/><path class="cls-2" d="M492.33,150.74a6.75,6.75,0,0,1,2.8,2.32,4.58,4.58,0,0,1,.31.41,1.08,1.08,0,0,0,1,.36c1.28,0,1.93-1.08,1.93-3.26h3.9v33.91q0,1.11.72,1.05l1.54-.06v1.83H491.22v-1.83l3.09.06c.47,0,.71-.39.71-1.05V170.65a6.53,6.53,0,0,1-2.47,2.77,8.2,8.2,0,0,1-4.63,1.21,8.65,8.65,0,0,1-7.16-3.09q-2.47-3.1-2.47-9.19t2.56-9.18c1.7-2.1,4.21-3.15,7.51-3.15A10,10,0,0,1,492.33,150.74Zm-5.43,3.95A20.92,20.92,0,0,0,486,162c0,3.83.32,6.48,1,7.93a3.23,3.23,0,0,0,3.11,2.19,3.86,3.86,0,0,0,3.69-2.66,14.12,14.12,0,0,0,1.15-5.69V161.3a16.59,16.59,0,0,0-1-6.28,3.73,3.73,0,0,0-3.69-2.51A3.28,3.28,0,0,0,486.9,154.69Z"/><path class="cls-2" d="M532.84,172.2v1.88H522.77a8.28,8.28,0,0,0,.27-2.43v-2.49a8.55,8.55,0,0,1-8.37,5.47q-3.57,0-5.23-2t-1.65-6.22V153.34c0-.7-.24-1.06-.71-1.06l-1.82.12v-1.83H515v16.21a12.41,12.41,0,0,0,.47,4,1.88,1.88,0,0,0,2,1.21,3.89,3.89,0,0,0,2.61-1.16,8.36,8.36,0,0,0,2.12-3.46,17.27,17.27,0,0,0,.88-5.5v-8.52q0-1.11-.66-1.11l-2.15.12v-1.83h10.08v20.69c0,.66.24,1,.71,1.05Z"/><path class="cls-2" d="M544.23,171.26q0,1.11.72,1.05l1.82-.11v1.88H534.49V172.2l1.82.11h.11q.6,0,.6-1.05V153.39c0-.63-.22-1-.66-1.11l-1.81.12v-1.83h9.68Zm-.68-32.58a3,3,0,0,1,1.18,2.49,3.1,3.1,0,0,1-1.18,2.54,4.76,4.76,0,0,1-3.06.94,4.71,4.71,0,0,1-3-.94,3.08,3.08,0,0,1-1.19-2.54,3,3,0,0,1,1.19-2.49,4.71,4.71,0,0,1,3-.94A4.76,4.76,0,0,1,543.55,138.68Z"/><path class="cls-2" d="M549.52,166.22l1.87-.11a5.82,5.82,0,0,0,2.34,4.71,8.74,8.74,0,0,0,5.64,1.88,4.5,4.5,0,0,0,2.89-.86,2.89,2.89,0,0,0,1.07-2.41,2.64,2.64,0,0,0-.79-2,6.51,6.51,0,0,0-2.73-1.24l-4-1.11a9,9,0,0,1-4.71-2.71,7,7,0,0,1-1.51-4.64,7.12,7.12,0,0,1,2.37-5.56,9.58,9.58,0,0,1,6.66-2.13,12.16,12.16,0,0,1,2.09.16c.62.11,1.39.3,2.31.56a10.84,10.84,0,0,0,2.75.49,3.19,3.19,0,0,0,1.65-.44l-.33,6.31h-1.65a4.76,4.76,0,0,0-1.73-3.65A6.79,6.79,0,0,0,559,151.9a4.08,4.08,0,0,0-2.72.85,2.7,2.7,0,0,0-1,2.13,2.38,2.38,0,0,0,.77,1.8,5,5,0,0,0,2.26,1.14l3.79,1c2.54.67,4.27,1.61,5.21,2.82a8.49,8.49,0,0,1-1.24,10.82,10.65,10.65,0,0,1-7,2.18,13.14,13.14,0,0,1-2.56-.25c-.87-.16-2.21-.48-4-1a6.38,6.38,0,0,0-1.54-.23,3.23,3.23,0,0,0-1.71.34Z"/><path class="cls-2" d="M594.71,172.2v1.88h-10a13.15,13.15,0,0,0,.22-2.05l.06-1.49c-1.62,2.54-4.15,3.82-7.6,3.82a7.71,7.71,0,0,1-5.25-1.58,5.87,5.87,0,0,1-1.79-4.67,6.37,6.37,0,0,1,3.52-6q3.52-1.94,11.12-1.93v-3.88a6.18,6.18,0,0,0-.72-3.26c-.47-.78-1.46-1.16-3-1.16a4.32,4.32,0,0,0-2.72.66,2,2,0,0,0-.8,1.61,2.86,2.86,0,0,0,.27,1.27,4.46,4.46,0,0,1,.22,1.1,2.22,2.22,0,0,1-.85,1.88,3.39,3.39,0,0,1-2.17.67,3.53,3.53,0,0,1-2.51-.91,3,3,0,0,1-1-2.3,4.8,4.8,0,0,1,2.75-4.26,14.71,14.71,0,0,1,7.43-1.6q10.24,0,10.24,7.35v13.89q0,1.05.72,1.05Zm-11.25-2.57a7.09,7.09,0,0,0,1.51-3.85v-3.65c-2.5,0-4.31.44-5.45,1.33a4.72,4.72,0,0,0-1.71,4c0,2.44.9,3.65,2.7,3.65A3.77,3.77,0,0,0,583.46,169.63Z"/><path class="cls-2" d="M609.33,153.14c1.67-2.08,4.13-3.12,7.4-3.12a7.64,7.64,0,0,1,4.38,1.24,6,6,0,0,1,2.45,3.07V136.46c0-.73-.24-1.1-.72-1.1l-2.53.11V133.7h10.46v37.56c0,.7.24,1.05.71,1.05l1.82-.11v1.88H623.17a3.87,3.87,0,0,0,.11-.89V172a5.57,5.57,0,0,1,.06-.94,4.5,4.5,0,0,0,0-.45,5.93,5.93,0,0,1-2.37,3,7.59,7.59,0,0,1-4.23,1.08q-5.34,0-7.66-3c-1.54-2-2.31-5.07-2.31-9.24S607.66,155.23,609.33,153.14Zm5.56,15a5.78,5.78,0,0,0,1.23,3,3.23,3.23,0,0,0,2.48.94,3.92,3.92,0,0,0,3.66-2.08,12.82,12.82,0,0,0,1.19-6.22v-2.38a14,14,0,0,0-1.27-6.55,4,4,0,0,0-3.63-2.35c-1.47,0-2.51.84-3.11,2.51a22.82,22.82,0,0,0-.91,7.39A35.15,35.15,0,0,0,614.89,168.16Z"/><path class="cls-2" d="M637.87,153.17q3.07-3.15,9.25-3.15c4.14,0,7.23,1,9.24,3.15s3,5.14,3,9.13q0,12.33-12.27,12.33-6.17,0-9.25-3.15t-3.08-9.18Q634.79,156.32,637.87,153.17Zm5.7,17.18a3.65,3.65,0,0,0,3.55,2.35,3.61,3.61,0,0,0,3.52-2.33q1.05-2.33,1.05-8t-1.05-8.13a3.6,3.6,0,0,0-3.52-2.38,3.64,3.64,0,0,0-3.55,2.38q-1.08,2.37-1.08,8.13Q642.49,168,643.57,170.35Z"/><path class="cls-2" d="M676.87,145q4.54-4.53,12.58-4.54a16.51,16.51,0,0,1,3.63.33c1,.23,2.11.56,3.47,1a18.27,18.27,0,0,0,2.48.8,9.68,9.68,0,0,0,2.31.25,32.65,32.65,0,0,0-.22,4.15c0,.77,0,1.47,0,2.07a2.52,2.52,0,0,0,.17,1h-1.76a9.66,9.66,0,0,0-3.36-5.56,9,9,0,0,0-6-2.3,7.88,7.88,0,0,0-7.07,4q-2.52,4-2.51,11.48,0,7.14,2.64,11a8.23,8.23,0,0,0,7.16,3.9,9.07,9.07,0,0,0,6.08-2.24,9.92,9.92,0,0,0,3.33-5.62h2a39.75,39.75,0,0,0-.33,4.7,16.38,16.38,0,0,0,.17,2.6h-.33a9.58,9.58,0,0,0-2.07.25c-.71.17-1.64.44-2.78.8q-2.47.72-4,1.08a14.4,14.4,0,0,1-3.33.36,18.68,18.68,0,0,1-9-2,14,14,0,0,1-5.83-5.84,18.71,18.71,0,0,1-2-9Q672.33,149.57,676.87,145Z"/><path class="cls-2" d="M709.13,145q4.54-4.53,12.58-4.54a16.64,16.64,0,0,1,3.63.33c.95.23,2.11.56,3.47,1a18.65,18.65,0,0,0,2.47.8,9.82,9.82,0,0,0,2.32.25,32.65,32.65,0,0,0-.22,4.15c0,.77,0,1.47,0,2.07a2.52,2.52,0,0,0,.17,1h-1.77a9.69,9.69,0,0,0-3.35-5.56,9,9,0,0,0-6-2.3,7.91,7.91,0,0,0-7.08,4q-2.5,4-2.5,11.48,0,7.14,2.64,11a8.23,8.23,0,0,0,7.16,3.9,9.07,9.07,0,0,0,6.08-2.24,10,10,0,0,0,3.33-5.62h2a39.75,39.75,0,0,0-.33,4.7,16.38,16.38,0,0,0,.17,2.6h-.33a9.58,9.58,0,0,0-2.07.25c-.71.17-1.64.44-2.78.8q-2.47.72-4,1.08a14.4,14.4,0,0,1-3.33.36,18.68,18.68,0,0,1-9-2,14.11,14.11,0,0,1-5.84-5.84,18.7,18.7,0,0,1-2-9Q704.59,149.57,709.13,145Z"/><path class="cls-2" d="M739.21,162.85c.37,3.21,1.4,5.64,3.11,7.3a8.77,8.77,0,0,0,6.36,2.49,6.12,6.12,0,0,0,4.43-1.55,5.38,5.38,0,0,0,1.62-4.09c0-2.58-1.74-4.56-5.23-5.92l-5.39-2.27q-6.27-2.59-6.28-8.57a9.69,9.69,0,0,1,1.27-4.87,9.14,9.14,0,0,1,3.8-3.54,13.07,13.07,0,0,1,6.16-1.33,14.35,14.35,0,0,1,3.09.28,20.49,20.49,0,0,1,2.53.72c.84.29,1.45.5,1.82.61a5,5,0,0,0,1.65.33,4.52,4.52,0,0,0,1.54-.22,37.46,37.46,0,0,0-.17,4.2c0,1.07,0,1.85.06,2.32a5.41,5.41,0,0,0,.27,1.33H758a7.18,7.18,0,0,0-2.34-5.56,8.15,8.15,0,0,0-5.69-2.13,6.62,6.62,0,0,0-4.35,1.39,4.4,4.4,0,0,0-1.71,3.59,4.09,4.09,0,0,0,1.13,2.8,9.91,9.91,0,0,0,3.6,2.24l4.68,2a17.16,17.16,0,0,1,6.14,4,8.27,8.27,0,0,1,1.85,5.61,10.69,10.69,0,0,1-1.38,5.4,9.82,9.82,0,0,1-4.07,3.81,14,14,0,0,1-6.55,1.41,21.23,21.23,0,0,1-5.24-.72,20.79,20.79,0,0,0-4.29-.83,9.29,9.29,0,0,0-1.18.09,3.29,3.29,0,0,0-.91.19,26.58,26.58,0,0,0,.22-4.26c0-1.47,0-2.84-.11-4.09s-.18-1.92-.33-2Z"/><path class="cls-2" d="M796.9,172v2.05H780.39V172l2.53.11q1.65.17,1.65-1.32a5.29,5.29,0,0,0-.55-2.16l-2-4.87H769.87L768,168.33a7.25,7.25,0,0,0-.77,2.76c0,.78.4,1.15,1.21,1.11l2.48-.17v2.05H761V172l1.59.11h.22a2.15,2.15,0,0,0,1.82-1,18.14,18.14,0,0,0,1.65-3.21l11.34-27.38h2.7L791.73,168a14.65,14.65,0,0,0,1.59,3.16,2.37,2.37,0,0,0,1.93,1h.28Zm-26.26-10.18h10.57l-5.34-12.72Z"/><circle class="cls-6" cx="309.04" cy="89.64" r="4.19"/><circle class="cls-6" cx="337.04" cy="127.64" r="4.19"/><polyline class="cls-7" points="235.3 103.44 295.24 103.44 309.04 89.64"/><polyline class="cls-7" points="241.7 147.04 301.12 145.51 314.92 127.72"/><line class="cls-7" x1="256.18" y1="127.56" x2="337" y2="127.56"/><line class="cls-8" x1="256.18" y1="185.23" x2="485" y2="185.23"/><circle class="cls-6" cx="295.87" cy="221.38" r="4.19"/><polyline class="cls-7" points="209.71 208.48 282.98 208.48 295.87 221.38"/><circle class="cls-6" cx="280.33" cy="71.46" r="4.19"/><polyline class="cls-7" points="194.16 58.56 267.44 58.56 280.33 71.46"/><circle class="cls-9" cx="175.01" cy="147.04" r="96.9"/><circle class="cls-10" cx="169.09" cy="149.76" r="63.05"/><circle class="cls-11" cx="171.36" cy="147.5" r="41.19"/><path class="cls-12" d="M171.36,41a106.5,106.5,0,1,0,106.5,106.5A106.5,106.5,0,0,0,171.36,41Zm0,202.17A95.67,95.67,0,1,1,267,147.5,95.67,95.67,0,0,1,171.36,243.17Z"/><path class="cls-13" d="M85,147.5a86.41,86.41,0,0,1,86.41-86.41v-6a92.43,92.43,0,1,0,0,184.86v-6A86.41,86.41,0,0,1,85,147.5Z"/><path class="cls-12" d="M171.36,197.74a50.24,50.24,0,0,1,0-100.48V72.15a75.35,75.35,0,1,0,75.35,75.35H221.59A50.24,50.24,0,0,1,171.36,197.74Z"/><circle cx="171.36" cy="147.5" r="15.07"/><line class="cls-14" x1="171.36" y1="147.5" x2="132.58" y2="153.2"/><line class="cls-15" x1="171.36" y1="147.5" x2="133.3" y2="156.88"/><line class="cls-16" x1="171.36" y1="147.5" x2="134.37" y2="160.47"/><line class="cls-17" x1="171.36" y1="147.5" x2="135.78" y2="163.95"/><line class="cls-18" x1="171.36" y1="147.5" x2="137.51" y2="167.27"/><line class="cls-19" x1="171.36" y1="147.5" x2="139.56" y2="170.41"/><line class="cls-20" x1="171.36" y1="147.5" x2="141.89" y2="173.35"/><line class="cls-21" x1="171.36" y1="147.5" x2="144.5" y2="176.05"/><line class="cls-22" x1="171.36" y1="147.5" x2="147.35" y2="178.48"/><line class="cls-23" x1="171.36" y1="147.5" x2="150.42" y2="180.63"/><line class="cls-24" x1="171.36" y1="147.5" x2="153.68" y2="182.48"/><line class="cls-25" x1="171.36" y1="147.5" x2="157.11" y2="184.01"/><line class="cls-26" x1="171.36" y1="147.5" x2="160.66" y2="185.21"/><line class="cls-27" x1="171.36" y1="147.5" x2="164.31" y2="186.06"/><line class="cls-28" x1="171.36" y1="147.5" x2="168.03" y2="186.55"/><line class="cls-29" x1="171.36" y1="147.5" x2="171.78" y2="186.69"/><line class="cls-30" x1="171.36" y1="147.5" x2="175.52" y2="186.47"/><line class="cls-31" x1="171.36" y1="147.5" x2="179.23" y2="185.9"/><line class="cls-32" x1="171.36" y1="147.5" x2="182.86" y2="184.97"/><line class="cls-33" x1="171.36" y1="147.5" x2="186.39" y2="183.7"/><line class="cls-34" x1="171.36" y1="147.5" x2="189.78" y2="182.1"/><line class="cls-35" x1="171.36" y1="147.5" x2="193" y2="180.18"/><line class="cls-36" x1="171.36" y1="147.5" x2="196.02" y2="177.96"/><line class="cls-37" x1="171.36" y1="147.5" x2="198.82" y2="175.46"/><line class="cls-38" x1="171.36" y1="147.5" x2="201.37" y2="172.71"/><line class="cls-39" x1="171.36" y1="147.5" x2="203.64" y2="169.73"/><line class="cls-40" x1="171.36" y1="147.5" x2="205.62" y2="166.54"/><line class="cls-41" x1="171.36" y1="147.5" x2="207.28" y2="163.18"/><line class="cls-42" x1="171.36" y1="147.5" x2="208.62" y2="159.68"/><line class="cls-43" x1="171.36" y1="147.5" x2="209.61" y2="156.06"/><line class="cls-44" x1="171.36" y1="147.5" x2="210.25" y2="152.37"/><line class="cls-45" x1="171.36" y1="147.5" x2="210.54" y2="148.63"/><line class="cls-46" x1="171.36" y1="147.5" x2="210.47" y2="144.88"/><line class="cls-47" x1="171.36" y1="147.5" x2="210.04" y2="141.15"/><line class="cls-48" x1="171.36" y1="147.5" x2="209.25" y2="137.49"/><line class="cls-49" x1="171.36" y1="147.5" x2="208.12" y2="133.91"/><line class="cls-50" x1="171.36" y1="147.5" x2="206.66" y2="130.46"/><line class="cls-51" x1="171.36" y1="147.5" x2="204.87" y2="127.16"/><line class="cls-52" x1="171.36" y1="147.5" x2="202.77" y2="124.05"/><line class="cls-53" x1="171.36" y1="147.5" x2="200.39" y2="121.16"/><line class="cls-54" x1="171.36" y1="147.5" x2="197.74" y2="118.51"/><line class="cls-55" x1="171.36" y1="147.5" x2="194.85" y2="116.12"/><line class="cls-56" x1="171.36" y1="147.5" x2="191.74" y2="114.02"/><line class="cls-57" x1="171.36" y1="147.5" x2="188.45" y2="112.22"/><line class="cls-58" x1="171.36" y1="147.5" x2="185" y2="110.75"/><line class="cls-59" x1="171.36" y1="147.5" x2="181.42" y2="109.62"/><line class="cls-60" x1="171.36" y1="147.5" x2="177.76" y2="108.83"/><line class="cls-61" x1="171.36" y1="147.5" x2="174.03" y2="108.39"/><line class="cls-62" x1="171.36" y1="147.5" x2="170.28" y2="108.32"/><line class="cls-63" x1="171.36" y1="147.5" x2="166.54" y2="108.6"/><line class="cls-64" x1="171.36" y1="147.5" x2="162.85" y2="109.24"/><line class="cls-65" x1="171.36" y1="147.5" x2="159.23" y2="110.22"/><line class="cls-66" x1="171.36" y1="147.5" x2="155.72" y2="111.55"/><line class="cls-67" x1="171.36" y1="147.5" x2="152.36" y2="113.21"/><line class="cls-68" x1="171.36" y1="147.5" x2="149.17" y2="115.18"/><line class="cls-69" x1="171.36" y1="147.5" x2="146.19" y2="117.45"/><line class="cls-70" x1="171.36" y1="147.5" x2="143.43" y2="120"/><line class="cls-71" x1="171.36" y1="147.5" x2="140.93" y2="122.79"/><line class="cls-72" x1="171.36" y1="147.5" x2="138.71" y2="125.81"/><line class="cls-73" x1="171.36" y1="147.5" x2="136.78" y2="129.03"/><line class="cls-74" x1="171.36" y1="147.5" x2="135.18" y2="132.42"/><line class="cls-75" x1="171.36" y1="147.5" x2="133.9" y2="135.95"/><line class="cls-76" x1="171.36" y1="147.5" x2="132.97" y2="139.58"/><line class="cls-77" x1="171.36" y1="147.5" x2="132.39" y2="143.28"/><line class="cls-78" x1="171.36" y1="147.5" x2="132.16" y2="147.03"/><line class="cls-79" x1="171.36" y1="147.5" x2="132.3" y2="150.77"/><g class="cls-80"><line class="cls-81" x1="171.36" y1="147.5" x2="141.21" y2="147.5"/><line class="cls-81" x1="171.36" y1="147.5" x2="141.35" y2="150.38"/><line class="cls-81" x1="171.36" y1="147.5" x2="141.76" y2="153.23"/><line class="cls-81" x1="171.36" y1="147.5" x2="142.45" y2="156.04"/><line class="cls-81" x1="171.36" y1="147.5" x2="143.4" y2="158.76"/><line class="cls-81" x1="171.36" y1="147.5" x2="144.6" y2="161.38"/><line class="cls-81" x1="171.36" y1="147.5" x2="146.05" y2="163.87"/><line class="cls-81" x1="171.36" y1="147.5" x2="147.73" y2="166.22"/><line class="cls-81" x1="171.36" y1="147.5" x2="149.63" y2="168.39"/><line class="cls-81" x1="171.36" y1="147.5" x2="151.72" y2="170.37"/><line class="cls-81" x1="171.36" y1="147.5" x2="154" y2="172.14"/><line class="cls-81" x1="171.36" y1="147.5" x2="156.43" y2="173.69"/><line class="cls-81" x1="171.36" y1="147.5" x2="159" y2="174.99"/><line class="cls-81" x1="171.36" y1="147.5" x2="161.69" y2="176.05"/><line class="cls-81" x1="171.36" y1="147.5" x2="164.46" y2="176.84"/><line class="cls-81" x1="171.36" y1="147.5" x2="167.29" y2="177.37"/><line class="cls-81" x1="171.36" y1="147.5" x2="170.17" y2="177.62"/><line class="cls-81" x1="171.36" y1="147.5" x2="173.05" y2="177.59"/><line class="cls-81" x1="171.36" y1="147.5" x2="175.92" y2="177.29"/><line class="cls-81" x1="171.36" y1="147.5" x2="178.74" y2="176.72"/><line class="cls-81" x1="171.36" y1="147.5" x2="181.5" y2="175.88"/><line class="cls-81" x1="171.36" y1="147.5" x2="184.17" y2="174.78"/><line class="cls-81" x1="171.36" y1="147.5" x2="186.72" y2="173.43"/><line class="cls-81" x1="171.36" y1="147.5" x2="189.12" y2="171.85"/><line class="cls-81" x1="171.36" y1="147.5" x2="191.37" y2="170.04"/><line class="cls-81" x1="171.36" y1="147.5" x2="193.43" y2="168.02"/><line class="cls-81" x1="171.36" y1="147.5" x2="195.29" y2="165.82"/><line class="cls-81" x1="171.36" y1="147.5" x2="196.93" y2="163.45"/><line class="cls-81" x1="171.36" y1="147.5" x2="198.34" y2="160.93"/><line class="cls-81" x1="171.36" y1="147.5" x2="199.5" y2="158.29"/><line class="cls-81" x1="171.36" y1="147.5" x2="200.4" y2="155.55"/><line class="cls-81" x1="171.36" y1="147.5" x2="201.04" y2="152.74"/><line class="cls-81" x1="171.36" y1="147.5" x2="201.4" y2="149.88"/><line class="cls-81" x1="171.36" y1="147.5" x2="201.49" y2="147"/><line class="cls-81" x1="171.36" y1="147.5" x2="201.31" y2="144.12"/><line class="cls-81" x1="171.36" y1="147.5" x2="200.85" y2="141.27"/><line class="cls-81" x1="171.36" y1="147.5" x2="200.12" y2="138.48"/><line class="cls-81" x1="171.36" y1="147.5" x2="199.12" y2="135.77"/><line class="cls-81" x1="171.36" y1="147.5" x2="197.88" y2="133.17"/><line class="cls-81" x1="171.36" y1="147.5" x2="196.39" y2="130.71"/><line class="cls-81" x1="171.36" y1="147.5" x2="194.67" y2="128.39"/><line class="cls-81" x1="171.36" y1="147.5" x2="192.73" y2="126.25"/><line class="cls-81" x1="171.36" y1="147.5" x2="190.6" y2="124.31"/><line class="cls-81" x1="171.36" y1="147.5" x2="188.3" y2="122.57"/><line class="cls-81" x1="171.36" y1="147.5" x2="185.84" y2="121.07"/><line class="cls-81" x1="171.36" y1="147.5" x2="183.25" y2="119.8"/><line class="cls-81" x1="171.36" y1="147.5" x2="180.55" y2="118.79"/><line class="cls-81" x1="171.36" y1="147.5" x2="177.76" y2="118.05"/><line class="cls-81" x1="171.36" y1="147.5" x2="174.92" y2="117.57"/><line class="cls-81" x1="171.36" y1="147.5" x2="172.04" y2="117.37"/><line class="cls-81" x1="171.36" y1="147.5" x2="169.16" y2="117.44"/><line class="cls-81" x1="171.36" y1="147.5" x2="166.3" y2="117.79"/><line class="cls-81" x1="171.36" y1="147.5" x2="163.48" y2="118.41"/><line class="cls-81" x1="171.36" y1="147.5" x2="160.74" y2="119.29"/><line class="cls-81" x1="171.36" y1="147.5" x2="158.09" y2="120.44"/><line class="cls-81" x1="171.36" y1="147.5" x2="155.56" y2="121.83"/><line class="cls-81" x1="171.36" y1="147.5" x2="153.18" y2="123.45"/><line class="cls-81" x1="171.36" y1="147.5" x2="150.97" y2="125.3"/><line class="cls-81" x1="171.36" y1="147.5" x2="148.94" y2="127.35"/><line class="cls-81" x1="171.36" y1="147.5" x2="147.12" y2="129.58"/><line class="cls-81" x1="171.36" y1="147.5" x2="145.52" y2="131.98"/><line class="cls-81" x1="171.36" y1="147.5" x2="144.15" y2="134.52"/><line class="cls-81" x1="171.36" y1="147.5" x2="143.03" y2="137.18"/><line class="cls-81" x1="171.36" y1="147.5" x2="142.18" y2="139.94"/><line class="cls-81" x1="171.36" y1="147.5" x2="141.59" y2="142.76"/><line class="cls-81" x1="171.36" y1="147.5" x2="141.27" y2="145.62"/></g><circle class="cls-82" cx="178.39" cy="137.45" r="5.02"/><line class="cls-83" x1="169.38" y1="90.26" x2="169.38" y2="106.05"/><line class="cls-83" x1="167.2" y1="90.38" x2="167.8" y2="106.16"/><line class="cls-83" x1="165.03" y1="90.58" x2="166.23" y2="106.32"/><line class="cls-83" x1="162.86" y1="90.86" x2="164.66" y2="106.55"/><line class="cls-83" x1="160.71" y1="91.23" x2="163.11" y2="106.83"/><line class="cls-83" x1="158.57" y1="91.67" x2="161.56" y2="107.18"/><line class="cls-83" x1="156.46" y1="92.2" x2="160.04" y2="107.58"/><line class="cls-83" x1="154.36" y1="92.81" x2="158.52" y2="108.04"/><line class="cls-83" x1="152.29" y1="93.49" x2="157.03" y2="108.56"/><line class="cls-83" x1="150.24" y1="94.26" x2="155.55" y2="109.13"/><line class="cls-83" x1="148.23" y1="95.1" x2="154.1" y2="109.76"/><line class="cls-83" x1="146.25" y1="96.02" x2="152.68" y2="110.45"/><line class="cls-83" x1="144.31" y1="97.02" x2="151.28" y2="111.18"/><line class="cls-83" x1="142.4" y1="98.08" x2="149.91" y2="111.98"/><line class="cls-83" x1="140.54" y1="99.22" x2="148.57" y2="112.82"/><line class="cls-83" x1="138.73" y1="100.43" x2="147.27" y2="113.71"/><line class="cls-83" x1="136.96" y1="101.71" x2="146" y2="114.65"/><line class="cls-83" x1="135.24" y1="103.05" x2="144.77" y2="115.64"/><line class="cls-83" x1="133.57" y1="104.46" x2="143.57" y2="116.68"/><line class="cls-83" x1="131.96" y1="105.93" x2="142.42" y2="117.76"/><line class="cls-83" x1="130.4" y1="107.46" x2="141.3" y2="118.88"/><line class="cls-83" x1="128.91" y1="109.05" x2="140.24" y2="120.05"/><line class="cls-83" x1="127.47" y1="110.7" x2="139.21" y2="121.25"/><line class="cls-83" x1="126.1" y1="112.39" x2="138.24" y2="122.5"/><line class="cls-83" x1="124.8" y1="114.14" x2="137.31" y2="123.78"/><line class="cls-83" x1="123.56" y1="115.94" x2="136.43" y2="125.09"/><line class="cls-83" x1="122.39" y1="117.79" x2="135.6" y2="126.44"/><line class="cls-83" x1="121.29" y1="119.67" x2="134.82" y2="127.82"/><line class="cls-83" x1="120.27" y1="121.6" x2="134.1" y2="129.22"/><line class="cls-83" x1="119.32" y1="123.57" x2="133.43" y2="130.66"/><line class="cls-83" x1="118.45" y1="125.56" x2="132.82" y2="132.11"/><line class="cls-83" x1="117.65" y1="127.6" x2="132.26" y2="133.59"/><line class="cls-83" x1="116.93" y1="129.66" x2="131.76" y2="135.09"/><line class="cls-83" x1="116.29" y1="131.74" x2="131.31" y2="136.61"/><line class="cls-83" x1="115.73" y1="133.85" x2="130.93" y2="138.14"/><line class="cls-83" x1="115.25" y1="135.98" x2="130.6" y2="139.69"/><line class="cls-83" x1="114.85" y1="138.13" x2="130.33" y2="141.25"/><line class="cls-83" x1="114.53" y1="140.29" x2="130.12" y2="142.82"/><line class="cls-83" x1="114.3" y1="142.46" x2="129.97" y2="144.39"/><line class="cls-83" x1="114.15" y1="144.63" x2="129.88" y2="145.97"/><line class="cls-83" x1="114.08" y1="146.82" x2="129.86" y2="147.55"/><line class="cls-83" x1="114.1" y1="149" x2="129.89" y2="149.13"/><line class="cls-83" x1="114.2" y1="151.18" x2="129.98" y2="150.71"/><line class="cls-83" x1="114.38" y1="153.35" x2="130.13" y2="152.28"/><line class="cls-83" x1="114.64" y1="155.52" x2="130.34" y2="153.85"/><line class="cls-83" x1="114.99" y1="157.67" x2="130.62" y2="155.41"/><line class="cls-83" x1="115.42" y1="159.81" x2="130.95" y2="156.95"/><line class="cls-83" x1="115.93" y1="161.94" x2="131.34" y2="158.49"/><line class="cls-83" x1="116.52" y1="164.04" x2="131.78" y2="160"/><line class="cls-83" x1="117.19" y1="166.12" x2="132.29" y2="161.5"/><line class="cls-83" x1="117.94" y1="168.17" x2="132.85" y2="162.98"/><line class="cls-83" x1="118.76" y1="170.19" x2="133.47" y2="164.44"/><line class="cls-83" x1="119.66" y1="172.17" x2="134.14" y2="165.87"/><line class="cls-83" x1="120.64" y1="174.12" x2="134.87" y2="167.27"/><line class="cls-83" x1="121.69" y1="176.04" x2="135.65" y2="168.65"/><line class="cls-83" x1="122.82" y1="177.91" x2="136.48" y2="169.99"/><line class="cls-83" x1="124.01" y1="179.74" x2="137.36" y2="171.3"/><line class="cls-83" x1="125.27" y1="181.52" x2="138.29" y2="172.58"/><line class="cls-83" x1="126.6" y1="183.25" x2="139.27" y2="173.82"/><line class="cls-83" x1="127.99" y1="184.93" x2="140.3" y2="175.03"/><line class="cls-83" x1="129.45" y1="186.55" x2="141.37" y2="176.19"/><line class="cls-83" x1="130.97" y1="188.12" x2="142.48" y2="177.31"/><line class="cls-83" x1="132.55" y1="189.63" x2="143.64" y2="178.39"/><line class="cls-83" x1="134.18" y1="191.08" x2="144.84" y2="179.42"/><line class="cls-83" x1="135.87" y1="192.46" x2="146.07" y2="180.41"/><line class="cls-83" x1="137.61" y1="193.78" x2="147.34" y2="181.35"/><line class="cls-83" x1="139.39" y1="195.03" x2="148.65" y2="182.24"/><line class="cls-83" x1="141.23" y1="196.21" x2="149.99" y2="183.08"/><line class="cls-83" x1="143.1" y1="197.33" x2="151.36" y2="183.87"/><line class="cls-83" x1="145.02" y1="198.37" x2="152.76" y2="184.6"/><line class="cls-83" x1="146.98" y1="199.33" x2="154.19" y2="185.28"/><line class="cls-83" x1="148.97" y1="200.22" x2="155.64" y2="185.91"/><line class="cls-83" x1="151" y1="201.04" x2="157.11" y2="186.48"/><line class="cls-83" x1="153.05" y1="201.78" x2="158.61" y2="187"/><line class="cls-83" x1="155.13" y1="202.43" x2="160.12" y2="187.45"/><line class="cls-83" x1="157.24" y1="203.01" x2="161.65" y2="187.85"/><line class="cls-83" x1="159.36" y1="203.51" x2="163.2" y2="188.19"/><line class="cls-83" x1="161.5" y1="203.92" x2="164.75" y2="188.47"/><line class="cls-83" x1="163.66" y1="204.26" x2="166.32" y2="188.69"/><line class="cls-83" x1="165.83" y1="204.51" x2="167.89" y2="188.86"/><line class="cls-83" x1="168.01" y1="204.68" x2="169.47" y2="188.96"/><line class="cls-83" x1="170.19" y1="204.77" x2="171.05" y2="189"/><line class="cls-83" x1="172.37" y1="204.77" x2="172.63" y2="188.98"/><line class="cls-83" x1="174.55" y1="204.69" x2="174.21" y2="188.9"/><line class="cls-83" x1="176.73" y1="204.53" x2="175.79" y2="188.76"/><line class="cls-83" x1="178.89" y1="204.28" x2="177.36" y2="188.56"/><line class="cls-83" x1="181.05" y1="203.95" x2="178.92" y2="188.31"/><line class="cls-83" x1="183.2" y1="203.54" x2="180.46" y2="187.99"/><line class="cls-83" x1="185.32" y1="203.05" x2="182" y2="187.61"/><line class="cls-83" x1="187.43" y1="202.48" x2="183.52" y2="187.18"/><line class="cls-83" x1="189.51" y1="201.82" x2="185.02" y2="186.68"/><line class="cls-83" x1="191.57" y1="201.09" x2="186.51" y2="186.13"/><line class="cls-83" x1="193.59" y1="200.28" x2="187.97" y2="185.53"/><line class="cls-83" x1="195.59" y1="199.4" x2="189.4" y2="184.87"/><line class="cls-83" x1="197.55" y1="198.44" x2="190.81" y2="184.15"/><line class="cls-83" x1="199.47" y1="197.4" x2="192.2" y2="183.39"/><line class="cls-83" x1="201.35" y1="196.29" x2="193.55" y2="182.57"/><line class="cls-83" x1="203.19" y1="195.12" x2="194.87" y2="181.69"/><line class="cls-83" x1="204.98" y1="193.87" x2="196.15" y2="180.77"/><line class="cls-83" x1="206.72" y1="192.55" x2="197.4" y2="179.8"/><line class="cls-83" x1="208.41" y1="191.17" x2="198.62" y2="178.79"/><line class="cls-83" x1="210.05" y1="189.73" x2="199.79" y2="177.73"/><line class="cls-83" x1="211.63" y1="188.22" x2="200.92" y2="176.62"/><line class="cls-83" x1="213.15" y1="186.66" x2="202.01" y2="175.47"/><line class="cls-83" x1="214.61" y1="185.04" x2="203.05" y2="174.29"/><line class="cls-83" x1="216.01" y1="183.36" x2="204.05" y2="173.06"/><line class="cls-83" x1="217.34" y1="181.64" x2="205" y2="171.8"/><line class="cls-83" x1="218.61" y1="179.86" x2="205.9" y2="170.5"/><line class="cls-83" x1="219.81" y1="178.04" x2="206.75" y2="169.16"/><line class="cls-83" x1="220.94" y1="176.17" x2="207.55" y2="167.8"/><line class="cls-83" x1="221.99" y1="174.26" x2="208.3" y2="166.4"/><line class="cls-83" x1="222.98" y1="172.31" x2="208.99" y2="164.98"/><line class="cls-83" x1="223.88" y1="170.32" x2="209.63" y2="163.54"/><line class="cls-83" x1="224.72" y1="168.31" x2="210.21" y2="162.07"/><line class="cls-83" x1="225.47" y1="166.26" x2="210.74" y2="160.58"/><line class="cls-83" x1="226.14" y1="164.18" x2="211.21" y2="159.07"/><line class="cls-83" x1="226.74" y1="162.08" x2="211.62" y2="157.54"/><line class="cls-83" x1="227.26" y1="159.96" x2="211.97" y2="156"/><line class="cls-83" x1="227.69" y1="157.82" x2="212.27" y2="154.44"/><line class="cls-83" x1="228.04" y1="155.67" x2="212.5" y2="152.88"/><line class="cls-83" x1="228.31" y1="153.5" x2="212.67" y2="151.31"/><line class="cls-83" x1="228.5" y1="151.33" x2="212.79" y2="149.73"/><line class="cls-83" x1="228.6" y1="149.15" x2="212.84" y2="148.15"/><line class="cls-7" x1="511" y1="185.23" x2="794.81" y2="185.23"/><circle class="cls-6" cx="794.46" cy="184.23" r="4.19"/><path class="cls-1" d="M182.39,289.5V287H188V308.7h-2.76V289.5Z"/><path class="cls-1" d="M195.89,289.5V287h5.64V308.7h-2.76V289.5Z"/><path class="cls-1" d="M222.47,296a7.4,7.4,0,0,1,2.81-2.95,7.68,7.68,0,0,1,4-1.05,7.3,7.3,0,0,1,3.75.93,6.2,6.2,0,0,1,2.37,2.34v-3h2.76V308.7h-2.76v-3.06A6.5,6.5,0,0,1,233,308a7.34,7.34,0,0,1-3.74.94,7.45,7.45,0,0,1-4-1.08,7.57,7.57,0,0,1-2.79-3,9.44,9.44,0,0,1-1-4.44A9.28,9.28,0,0,1,222.47,296Zm12.15,1.22a5.36,5.36,0,0,0-2-2.12,5.63,5.63,0,0,0-2.81-.73,5.52,5.52,0,0,0-2.79.72,5.22,5.22,0,0,0-2,2.1,6.68,6.68,0,0,0-.75,3.24,6.86,6.86,0,0,0,.75,3.29,5.28,5.28,0,0,0,2,2.12,5.44,5.44,0,0,0,2.79.74,5.54,5.54,0,0,0,2.81-.74,5.23,5.23,0,0,0,2-2.12,6.79,6.79,0,0,0,.75-3.26A6.68,6.68,0,0,0,234.62,297.21Z"/><path class="cls-1" d="M257.39,289.5V287H263V308.7h-2.76V289.5Z"/><path class="cls-1" d="M285.44,289.38H274.91v6.84a5,5,0,0,1,2-1.58,6.93,6.93,0,0,1,2.91-.61,7.28,7.28,0,0,1,4.05,1,5.84,5.84,0,0,1,2.24,2.67,9.49,9.49,0,0,1-.14,7.34,6.13,6.13,0,0,1-2.47,2.7,8,8,0,0,1-4.13,1,7.72,7.72,0,0,1-5.1-1.62,6.75,6.75,0,0,1-2.37-4.32h2.67a4.48,4.48,0,0,0,1.65,2.67,5.1,5.1,0,0,0,3.18,1A4.43,4.43,0,0,0,283,305a5.68,5.68,0,0,0,1.2-3.77,5.09,5.09,0,0,0-1.2-3.62,4.63,4.63,0,0,0-3.54-1.27,5,5,0,0,0-2.77.76,4.43,4.43,0,0,0-1.73,2.09h-2.58V287h13.05Z"/><path class="cls-1" d="M306.71,296a7.4,7.4,0,0,1,2.81-2.95,7.73,7.73,0,0,1,4-1.05,7.44,7.44,0,0,1,3.57.89,6.3,6.3,0,0,1,2.52,2.32v-8.7h2.76v22.2h-2.76v-3.09a6.47,6.47,0,0,1-2.4,2.42,7.24,7.24,0,0,1-3.72.94,7.49,7.49,0,0,1-6.78-4.11,9.44,9.44,0,0,1-1-4.44A9.28,9.28,0,0,1,306.71,296Zm12.15,1.22a5.36,5.36,0,0,0-2-2.12,5.63,5.63,0,0,0-2.81-.73,5.52,5.52,0,0,0-2.79.72,5.22,5.22,0,0,0-2,2.1,6.68,6.68,0,0,0-.75,3.24,6.86,6.86,0,0,0,.75,3.29,5.28,5.28,0,0,0,2,2.12,5.44,5.44,0,0,0,2.79.74,5.54,5.54,0,0,0,2.81-.74,5.23,5.23,0,0,0,2-2.12,6.79,6.79,0,0,0,.75-3.26A6.68,6.68,0,0,0,318.86,297.21Z"/><path class="cls-1" d="M345.8,301.5H332.66a5.31,5.31,0,0,0,1.67,3.79,5.22,5.22,0,0,0,3.67,1.37,5.07,5.07,0,0,0,3-.83,4.3,4.3,0,0,0,1.66-2.2h2.94a7.06,7.06,0,0,1-2.64,3.85A8,8,0,0,1,338,309a8.27,8.27,0,0,1-4.18-1.05,7.49,7.49,0,0,1-2.9-3,10.21,10.21,0,0,1,0-9,7.1,7.1,0,0,1,2.87-3,8.41,8.41,0,0,1,4.24-1,8.25,8.25,0,0,1,4.14,1,7.06,7.06,0,0,1,2.78,2.8,8.3,8.3,0,0,1,1,4A16.07,16.07,0,0,1,345.8,301.5Zm-3.42-4.91a4.6,4.6,0,0,0-1.87-1.71,5.9,5.9,0,0,0-2.63-.58,5,5,0,0,0-3.52,1.32,5.34,5.34,0,0,0-1.67,3.66h10.38A5.05,5.05,0,0,0,342.38,296.59Z"/><path class="cls-1" d="M367.73,308.32a5.78,5.78,0,0,1-2.37-1.79,4.81,4.81,0,0,1-1-2.66h2.82a2.77,2.77,0,0,0,1.16,2,4.38,4.38,0,0,0,2.71.78,4,4,0,0,0,2.46-.69,2.11,2.11,0,0,0,.9-1.74,1.72,1.72,0,0,0-1-1.61,14,14,0,0,0-3-1,21.35,21.35,0,0,1-3-1,5.32,5.32,0,0,1-2-1.48,3.77,3.77,0,0,1-.83-2.56,3.89,3.89,0,0,1,.75-2.31,5.07,5.07,0,0,1,2.13-1.66,7.66,7.66,0,0,1,3.15-.62,6.73,6.73,0,0,1,4.41,1.38,5,5,0,0,1,1.8,3.78h-2.73a2.85,2.85,0,0,0-1-2.07,4.59,4.59,0,0,0-4.88-.15,2,2,0,0,0-.87,1.65,1.76,1.76,0,0,0,.53,1.33,3.61,3.61,0,0,0,1.32.84,21.5,21.5,0,0,0,2.2.71,25.77,25.77,0,0,1,2.88.94,5,5,0,0,1,1.9,1.4,3.68,3.68,0,0,1,.83,2.43,4.16,4.16,0,0,1-.75,2.43,5,5,0,0,1-2.11,1.7,7.78,7.78,0,0,1-3.14.61A8.5,8.5,0,0,1,367.73,308.32Z"/><path class="cls-1" d="M399.77,301.5H386.63a5.34,5.34,0,0,0,1.66,3.79,5.27,5.27,0,0,0,3.68,1.37,5,5,0,0,0,2.95-.83,4.32,4.32,0,0,0,1.67-2.2h2.94a7.06,7.06,0,0,1-2.64,3.85A8,8,0,0,1,392,309a8.27,8.27,0,0,1-4.18-1.05,7.43,7.43,0,0,1-2.9-3,10.21,10.21,0,0,1,0-9,7.14,7.14,0,0,1,2.86-3,8.47,8.47,0,0,1,4.25-1,8.25,8.25,0,0,1,4.14,1,7,7,0,0,1,2.77,2.8,8.19,8.19,0,0,1,1,4A16.07,16.07,0,0,1,399.77,301.5Zm-3.42-4.91a4.57,4.57,0,0,0-1.88-1.71,5.82,5.82,0,0,0-2.62-.58,5,5,0,0,0-3.52,1.32,5.34,5.34,0,0,0-1.67,3.66H397A5.05,5.05,0,0,0,396.35,296.59Z"/><path class="cls-1" d="M410.69,294.51v9.69a2.29,2.29,0,0,0,.51,1.69,2.51,2.51,0,0,0,1.77.5h2v2.31h-2.46a4.9,4.9,0,0,1-3.42-1.05A4.51,4.51,0,0,1,408,304.2v-9.69h-2.13v-2.25H408v-4.14h2.73v4.14H415v2.25Z"/><path class="cls-1" d="M437.09,301.5H424a5.18,5.18,0,0,0,5.34,5.16,5.09,5.09,0,0,0,3-.83,4.36,4.36,0,0,0,1.66-2.2h2.94a7.06,7.06,0,0,1-2.64,3.85,8,8,0,0,1-4.92,1.49,8.33,8.33,0,0,1-4.19-1.05,7.54,7.54,0,0,1-2.89-3,10.21,10.21,0,0,1,0-9,7.08,7.08,0,0,1,2.86-3,8.45,8.45,0,0,1,4.25-1,8.25,8.25,0,0,1,4.14,1,7.13,7.13,0,0,1,2.78,2.8,8.41,8.41,0,0,1,1,4A16.07,16.07,0,0,1,437.09,301.5Zm-3.42-4.91a4.57,4.57,0,0,0-1.88-1.71,5.82,5.82,0,0,0-2.62-.58,5.07,5.07,0,0,0-3.53,1.32,5.37,5.37,0,0,0-1.66,3.66h10.38A5.05,5.05,0,0,0,433.67,296.59Z"/><path class="cls-1" d="M467.87,292.75a5.81,5.81,0,0,1,2.37,2.39,8,8,0,0,1,.87,3.87v9.69h-2.7v-9.3a5.34,5.34,0,0,0-1.22-3.77,4.29,4.29,0,0,0-3.28-1.3,4.39,4.39,0,0,0-3.39,1.37,5.6,5.6,0,0,0-1.26,3.94v9.06h-2.7v-9.3a5.34,5.34,0,0,0-1.22-3.77,4.28,4.28,0,0,0-3.28-1.3,4.39,4.39,0,0,0-3.39,1.37,5.6,5.6,0,0,0-1.26,3.94v9.06h-2.73V292.26h2.73v2.37a5.38,5.38,0,0,1,2.17-2,6.61,6.61,0,0,1,3-.69,7.11,7.11,0,0,1,3.66.93,5.67,5.67,0,0,1,2.37,2.73,5.39,5.39,0,0,1,2.28-2.7,6.72,6.72,0,0,1,3.54-1A7.19,7.19,0,0,1,467.87,292.75Z"/><path class="cls-1" d="M484.67,292.92a7.28,7.28,0,0,1,3.69-.93,7.67,7.67,0,0,1,4,1.05,7.42,7.42,0,0,1,2.79,2.95,9.28,9.28,0,0,1,1,4.43,9.44,9.44,0,0,1-1,4.44,7.49,7.49,0,0,1-6.78,4.11,7.33,7.33,0,0,1-3.74-.93,6.31,6.31,0,0,1-2.41-2.37v3h-2.73V286.5h2.73v8.82A6.45,6.45,0,0,1,484.67,292.92Zm7.95,4.26a5.2,5.2,0,0,0-2-2.1,5.73,5.73,0,0,0-5.58,0,5.44,5.44,0,0,0-2,2.13,7.31,7.31,0,0,0,0,6.49,5.35,5.35,0,0,0,2,2.12,5.63,5.63,0,0,0,5.58,0,5.26,5.26,0,0,0,2-2.12,6.86,6.86,0,0,0,.75-3.29A6.68,6.68,0,0,0,492.62,297.18Z"/><path class="cls-1" d="M508.44,292.74a6.37,6.37,0,0,1,3.26-.78v2.82H511q-4.59,0-4.59,5v8.94h-2.73V292.26h2.73v2.67A5.23,5.23,0,0,1,508.44,292.74Z"/><path class="cls-1" d="M521.73,307.92a7.53,7.53,0,0,1-2.94-3,9.2,9.2,0,0,1-1.06-4.49,8.93,8.93,0,0,1,1.09-4.46,7.53,7.53,0,0,1,3-3,9.12,9.12,0,0,1,8.46,0,7.48,7.48,0,0,1,3,3,9.56,9.56,0,0,1,0,9,7.84,7.84,0,0,1-3,3,8.73,8.73,0,0,1-4.26,1.05A8.44,8.44,0,0,1,521.73,307.92Zm6.95-2a5.24,5.24,0,0,0,2.08-2.07,6.63,6.63,0,0,0,.8-3.36,6.73,6.73,0,0,0-.78-3.36,5,5,0,0,0-2-2,5.86,5.86,0,0,0-5.48,0,4.87,4.87,0,0,0-2,2,7,7,0,0,0-.75,3.36,7.14,7.14,0,0,0,.73,3.39,4.83,4.83,0,0,0,2,2.05,5.52,5.52,0,0,0,2.7.68A5.76,5.76,0,0,0,528.68,305.88Z"/><path class="cls-1" d="M553.76,296a7.38,7.38,0,0,1,2.8-2.95,7.77,7.77,0,0,1,4-1.05,7.44,7.44,0,0,1,3.57.89,6.3,6.3,0,0,1,2.52,2.32v-8.7h2.76v22.2h-2.76v-3.09a6.47,6.47,0,0,1-2.4,2.42,7.24,7.24,0,0,1-3.72.94,7.46,7.46,0,0,1-6.78-4.11,9.44,9.44,0,0,1-1-4.44A9.28,9.28,0,0,1,553.76,296Zm12.15,1.22a5.39,5.39,0,0,0-2-2.12,5.6,5.6,0,0,0-2.8-.73,5.52,5.52,0,0,0-2.79.72,5.22,5.22,0,0,0-2,2.1,6.68,6.68,0,0,0-.75,3.24,6.86,6.86,0,0,0,.75,3.29,5.28,5.28,0,0,0,2,2.12,5.44,5.44,0,0,0,2.79.74,5.5,5.5,0,0,0,2.8-.74,5.26,5.26,0,0,0,2-2.12,6.79,6.79,0,0,0,.75-3.26A6.68,6.68,0,0,0,565.91,297.21Z"/><path class="cls-1" d="M592.85,301.5H579.71a5.17,5.17,0,0,0,5.34,5.16,5,5,0,0,0,3-.83,4.32,4.32,0,0,0,1.67-2.2h2.94a7.06,7.06,0,0,1-2.64,3.85,8,8,0,0,1-4.92,1.49,8.33,8.33,0,0,1-4.19-1.05,7.47,7.47,0,0,1-2.89-3,10.21,10.21,0,0,1,0-9,7.08,7.08,0,0,1,2.86-3,8.45,8.45,0,0,1,4.25-1,8.25,8.25,0,0,1,4.14,1,7,7,0,0,1,2.77,2.8,8.3,8.3,0,0,1,1,4A16.07,16.07,0,0,1,592.85,301.5Zm-3.42-4.91a4.57,4.57,0,0,0-1.88-1.71,5.82,5.82,0,0,0-2.62-.58,5.07,5.07,0,0,0-3.53,1.32,5.37,5.37,0,0,0-1.66,3.66h10.38A5.05,5.05,0,0,0,589.43,296.59Z"/><path class="cls-1" d="M617.54,301.48a24.13,24.13,0,0,0,3.64-4.1,7.43,7.43,0,0,0,1.49-4.22,4.65,4.65,0,0,0-.95-3.08,3.75,3.75,0,0,0-3-1.12,4,4,0,0,0-3.17,1.27,5.35,5.35,0,0,0-1.21,3.41h-2.64a7.21,7.21,0,0,1,2-5.19,7.74,7.74,0,0,1,9.85-.12,6.16,6.16,0,0,1,1.82,4.71,9,9,0,0,1-1.49,4.84,21,21,0,0,1-3.37,4.15c-1.26,1.18-2.87,2.57-4.83,4.15H626v2.28H611.57v-1.95Q615.38,303.45,617.54,301.48Z"/><path class="cls-1" d="M634.73,289.57q1.68-2.9,5.88-2.89t5.85,2.89a16.17,16.17,0,0,1,1.68,8.06q0,5.25-1.68,8.16t-5.85,2.91q-4.2,0-5.88-2.91t-1.68-8.16A16.17,16.17,0,0,1,634.73,289.57Zm10.36,3.64a5.61,5.61,0,0,0-1.41-2.93,4.05,4.05,0,0,0-3.07-1.11,4.12,4.12,0,0,0-3.11,1.11,5.61,5.61,0,0,0-1.41,2.93,24.06,24.06,0,0,0-.34,4.42,25.05,25.05,0,0,0,.34,4.53,5.64,5.64,0,0,0,1.41,2.94,4.12,4.12,0,0,0,3.11,1.11,4.05,4.05,0,0,0,3.07-1.11,5.64,5.64,0,0,0,1.41-2.94,25,25,0,0,0,.35-4.53A24,24,0,0,0,645.09,293.21Z"/><path class="cls-1" d="M661.43,301.48a24.13,24.13,0,0,0,3.64-4.1,7.43,7.43,0,0,0,1.49-4.22,4.65,4.65,0,0,0-.95-3.08,3.75,3.75,0,0,0-3-1.12,4,4,0,0,0-3.17,1.27,5.35,5.35,0,0,0-1.21,3.41h-2.64a7.21,7.21,0,0,1,2-5.19,7.74,7.74,0,0,1,9.85-.12,6.16,6.16,0,0,1,1.82,4.71,9,9,0,0,1-1.49,4.84A21,21,0,0,1,664.4,302c-1.26,1.18-2.87,2.57-4.83,4.15h10.32v2.28H655.46v-1.95Q659.27,303.45,661.43,301.48Z"/><path class="cls-1" d="M679,288.15a7.65,7.65,0,0,1,5-1.56,7.84,7.84,0,0,1,3.52.73,5.31,5.31,0,0,1,2.25,2,5.39,5.39,0,0,1,.77,2.85,5,5,0,0,1-1.07,3.21,4.77,4.77,0,0,1-2.77,1.74v.15a5.54,5.54,0,0,1,3.09,1.89,5.69,5.69,0,0,1,1.14,3.69,6,6,0,0,1-.78,3.07,5.33,5.33,0,0,1-2.34,2.15,8.31,8.31,0,0,1-3.75.78,8,8,0,0,1-5.22-1.66,6.47,6.47,0,0,1-2.28-4.73h2.64a4.53,4.53,0,0,0,1.47,2.94,4.82,4.82,0,0,0,3.36,1.14,4.31,4.31,0,0,0,3.19-1.09,3.87,3.87,0,0,0,1.1-2.84,3.59,3.59,0,0,0-1.5-3.24,8.32,8.32,0,0,0-4.53-1h-.69V296.1h.72a8.11,8.11,0,0,0,4.17-.91,3,3,0,0,0,1.41-2.75,3.32,3.32,0,0,0-1-2.55,4.17,4.17,0,0,0-3-1,4.5,4.5,0,0,0-3,1,3.89,3.89,0,0,0-1.35,2.58h-2.67A5.87,5.87,0,0,1,679,288.15Z"/></g></svg>