<svg xmlns="http://www.w3.org/2000/svg" xmlns:xlink="http://www.w3.org/1999/xlink" viewBox="0 0 400 400"><defs><style>.cls-1{fill:#fff;}.cls-10,.cls-11,.cls-12,.cls-13,.cls-14,.cls-15,.cls-16,.cls-17,.cls-18,.cls-19,.cls-2,.cls-20,.cls-21,.cls-22,.cls-23,.cls-24,.cls-25,.cls-26,.cls-27,.cls-28,.cls-29,.cls-30,.cls-31,.cls-32,.cls-33,.cls-34,.cls-35,.cls-36,.cls-37,.cls-38,.cls-39,.cls-40,.cls-41,.cls-42,.cls-43,.cls-44,.cls-45,.cls-46,.cls-47,.cls-48,.cls-49,.cls-50,.cls-51,.cls-52,.cls-53,.cls-54,.cls-55,.cls-56,.cls-57,.cls-58,.cls-59,.cls-6,.cls-60,.cls-61,.cls-62,.cls-63,.cls-64,.cls-65,.cls-66,.cls-67,.cls-68,.cls-69,.cls-7,.cls-70,.cls-71,.cls-73,.cls-75,.cls-8,.cls-9{fill:none;}.cls-2,.cls-75{stroke:#bdccd4;}.cls-10,.cls-11,.cls-12,.cls-13,.cls-14,.cls-15,.cls-16,.cls-17,.cls-18,.cls-19,.cls-2,.cls-20,.cls-21,.cls-22,.cls-23,.cls-24,.cls-25,.cls-26,.cls-27,.cls-28,.cls-29,.cls-3,.cls-30,.cls-31,.cls-32,.cls-33,.cls-34,.cls-35,.cls-36,.cls-37,.cls-38,.cls-39,.cls-40,.cls-41,.cls-42,.cls-43,.cls-44,.cls-45,.cls-46,.cls-47,.cls-48,.cls-49,.cls-50,.cls-51,.cls-52,.cls-53,.cls-54,.cls-55,.cls-56,.cls-57,.cls-58,.cls-59,.cls-6,.cls-60,.cls-61,.cls-62,.cls-63,.cls-64,.cls-65,.cls-66,.cls-67,.cls-68,.cls-69,.cls-7,.cls-70,.cls-71,.cls-73,.cls-75,.cls-8,.cls-9{stroke-miterlimit:10;}.cls-2{stroke-width:14.42px;}.cls-10,.cls-11,.cls-12,.cls-13,.cls-14,.cls-15,.cls-16,.cls-17,.cls-18,.cls-19,.cls-20,.cls-21,.cls-22,.cls-23,.cls-24,.cls-25,.cls-26,.cls-27,.cls-28,.cls-29,.cls-3,.cls-30,.cls-31,.cls-32,.cls-33,.cls-34,.cls-35,.cls-36,.cls-37,.cls-38,.cls-39,.cls-40,.cls-41,.cls-42,.cls-43,.cls-44,.cls-45,.cls-46,.cls-47,.cls-48,.cls-49,.cls-50,.cls-51,.cls-52,.cls-53,.cls-54,.cls-55,.cls-56,.cls-57,.cls-58,.cls-59,.cls-6,.cls-60,.cls-61,.cls-62,.cls-63,.cls-64,.cls-65,.cls-66,.cls-67,.cls-68,.cls-69,.cls-7,.cls-70,.cls-71,.cls-73,.cls-75,.cls-8,.cls-9{stroke-width:1.6px;}.cls-3{fill:url(#Gradiente_sem_nome_34);stroke:url(#Gradiente_sem_nome_61);}.cls-4{fill:#00002e;}.cls-5{fill:#bdccd4;}.cls-6{stroke:url(#Gradiente_sem_nome_61-2);}.cls-7{stroke:url(#Gradiente_sem_nome_61-3);}.cls-8{stroke:url(#Gradiente_sem_nome_61-4);}.cls-9{stroke:url(#Gradiente_sem_nome_61-5);}.cls-10{stroke:url(#Gradiente_sem_nome_61-6);}.cls-11{stroke:url(#Gradiente_sem_nome_61-7);}.cls-12{stroke:url(#Gradiente_sem_nome_61-8);}.cls-13{stroke:url(#Gradiente_sem_nome_61-9);}.cls-14{stroke:url(#Gradiente_sem_nome_61-10);}.cls-15{stroke:url(#Gradiente_sem_nome_61-11);}.cls-16{stroke:url(#Gradiente_sem_nome_61-12);}.cls-17{stroke:url(#Gradiente_sem_nome_61-13);}.cls-18{stroke:url(#Gradiente_sem_nome_61-14);}.cls-19{stroke:url(#Gradiente_sem_nome_61-15);}.cls-20{stroke:url(#Gradiente_sem_nome_61-16);}.cls-21{stroke:url(#Gradiente_sem_nome_61-17);}.cls-22{stroke:url(#Gradiente_sem_nome_61-18);}.cls-23{stroke:url(#Gradiente_sem_nome_61-19);}.cls-24{stroke:url(#Gradiente_sem_nome_61-20);}.cls-25{stroke:url(#Gradiente_sem_nome_61-21);}.cls-26{stroke:url(#Gradiente_sem_nome_61-22);}.cls-27{stroke:url(#Gradiente_sem_nome_61-23);}.cls-28{stroke:url(#Gradiente_sem_nome_61-24);}.cls-29{stroke:url(#Gradiente_sem_nome_61-25);}.cls-30{stroke:url(#Gradiente_sem_nome_61-26);}.cls-31{stroke:url(#Gradiente_sem_nome_61-27);}.cls-32{stroke:url(#Gradiente_sem_nome_61-28);}.cls-33{stroke:url(#Gradiente_sem_nome_61-29);}.cls-34{stroke:url(#Gradiente_sem_nome_61-30);}.cls-35{stroke:url(#Gradiente_sem_nome_61-31);}.cls-36{stroke:url(#Gradiente_sem_nome_61-32);}.cls-37{stroke:url(#Gradiente_sem_nome_61-33);}.cls-38{stroke:url(#Gradiente_sem_nome_61-34);}.cls-39{stroke:url(#Gradiente_sem_nome_61-35);}.cls-40{stroke:url(#Gradiente_sem_nome_61-36);}.cls-41{stroke:url(#Gradiente_sem_nome_61-37);}.cls-42{stroke:url(#Gradiente_sem_nome_61-38);}.cls-43{stroke:url(#Gradiente_sem_nome_61-39);}.cls-44{stroke:url(#Gradiente_sem_nome_61-40);}.cls-45{stroke:url(#Gradiente_sem_nome_61-41);}.cls-46{stroke:url(#Gradiente_sem_nome_61-42);}.cls-47{stroke:url(#Gradiente_sem_nome_61-43);}.cls-48{stroke:url(#Gradiente_sem_nome_61-44);}.cls-49{stroke:url(#Gradiente_sem_nome_61-45);}.cls-50{stroke:url(#Gradiente_sem_nome_61-46);}.cls-51{stroke:url(#Gradiente_sem_nome_61-47);}.cls-52{stroke:url(#Gradiente_sem_nome_61-48);}.cls-53{stroke:url(#Gradiente_sem_nome_61-49);}.cls-54{stroke:url(#Gradiente_sem_nome_61-50);}.cls-55{stroke:url(#Gradiente_sem_nome_61-51);}.cls-56{stroke:url(#Gradiente_sem_nome_61-52);}.cls-57{stroke:url(#Gradiente_sem_nome_61-53);}.cls-58{stroke:url(#Gradiente_sem_nome_61-54);}.cls-59{stroke:url(#Gradiente_sem_nome_61-55);}.cls-60{stroke:url(#Gradiente_sem_nome_61-56);}.cls-61{stroke:url(#Gradiente_sem_nome_61-57);}.cls-62{stroke:url(#Gradiente_sem_nome_61-58);}.cls-63{stroke:url(#Gradiente_sem_nome_61-59);}.cls-64{stroke:url(#Gradiente_sem_nome_61-60);}.cls-65{stroke:url(#Gradiente_sem_nome_61-61);}.cls-66{stroke:url(#Gradiente_sem_nome_61-62);}.cls-67{stroke:url(#Gradiente_sem_nome_61-63);}.cls-68{stroke:url(#Gradiente_sem_nome_61-64);}.cls-69{stroke:url(#Gradiente_sem_nome_61-65);}.cls-70{stroke:url(#Gradiente_sem_nome_61-66);}.cls-71{stroke:url(#Gradiente_sem_nome_61-67);}.cls-72{opacity:0.8;}.cls-73{stroke:#000;}.cls-74{fill:url(#Gradiente_sem_nome_580);}</style><radialGradient id="Gradiente_sem_nome_34" cx="200" cy="200" r="71.29" gradientUnits="userSpaceOnUse"><stop offset="0" stop-color="#1c100e"/><stop offset="0.01" stop-color="#291714"/><stop offset="0.05" stop-color="#4a2a25"/><stop offset="0.09" stop-color="#673a33"/><stop offset="0.13" stop-color="#7e483e"/><stop offset="0.18" stop-color="#905247"/><stop offset="0.24" stop-color="#9d594d"/><stop offset="0.32" stop-color="#a45d51"/><stop offset="0.5" stop-color="#a65e52"/><stop offset="0.6" stop-color="#a25c50"/><stop offset="0.69" stop-color="#98564b"/><stop offset="0.78" stop-color="#854c42"/><stop offset="0.86" stop-color="#6c3d35"/><stop offset="0.94" stop-color="#4b2b25"/><stop offset="1" stop-color="#2e1a17"/></radialGradient><radialGradient id="Gradiente_sem_nome_61" cx="200" cy="200" r="72.09" gradientUnits="userSpaceOnUse"><stop offset="0.01" stop-color="#6b0b0c"/><stop offset="0.73" stop-color="#a65e52"/><stop offset="0.79" stop-color="#a35c51"/><stop offset="0.83" stop-color="#9a574c"/><stop offset="0.87" stop-color="#8a4e44"/><stop offset="0.9" stop-color="#744239"/><stop offset="0.93" stop-color="#58322b"/><stop offset="0.96" stop-color="#351e1a"/><stop offset="0.99" stop-color="#0c0706"/><stop offset="1"/></radialGradient><radialGradient id="Gradiente_sem_nome_61-2" cx="180.16" cy="113.11" r="24.12" gradientTransform="translate(-17.4 97.91) rotate(-1.92)" xlink:href="#Gradiente_sem_nome_61"/><radialGradient id="Gradiente_sem_nome_61-3" cx="180.68" cy="116.31" r="24.22" gradientTransform="translate(-17.4 97.91) rotate(-1.92)" xlink:href="#Gradiente_sem_nome_61"/><radialGradient id="Gradiente_sem_nome_61-4" cx="181.5" cy="119.45" r="24.31" gradientTransform="translate(-17.4 97.91) rotate(-1.92)" xlink:href="#Gradiente_sem_nome_61"/><radialGradient id="Gradiente_sem_nome_61-5" cx="182.62" cy="122.5" r="24.39" gradientTransform="translate(-17.4 97.91) rotate(-1.92)" xlink:href="#Gradiente_sem_nome_61"/><radialGradient id="Gradiente_sem_nome_61-6" cx="184.03" cy="125.42" r="24.46" gradientTransform="translate(-17.4 97.91) rotate(-1.92)" xlink:href="#Gradiente_sem_nome_61"/><radialGradient id="Gradiente_sem_nome_61-7" cx="185.7" cy="128.2" r="24.51" gradientTransform="translate(-17.4 97.91) rotate(-1.92)" xlink:href="#Gradiente_sem_nome_61"/><radialGradient id="Gradiente_sem_nome_61-8" cx="187.64" cy="130.8" r="24.54" gradientTransform="translate(-17.4 97.91) rotate(-1.92)" xlink:href="#Gradiente_sem_nome_61"/><radialGradient id="Gradiente_sem_nome_61-9" cx="189.81" cy="133.21" r="24.55" gradientTransform="translate(-17.4 97.91) rotate(-1.92)" xlink:href="#Gradiente_sem_nome_61"/><radialGradient id="Gradiente_sem_nome_61-10" cx="192.21" cy="135.4" r="24.54" gradientTransform="translate(-17.4 97.91) rotate(-1.92)" xlink:href="#Gradiente_sem_nome_61"/><radialGradient id="Gradiente_sem_nome_61-11" cx="194.8" cy="137.35" r="24.51" gradientTransform="translate(-17.4 97.91) rotate(-1.92)" xlink:href="#Gradiente_sem_nome_61"/><radialGradient id="Gradiente_sem_nome_61-12" cx="197.57" cy="139.05" r="24.46" gradientTransform="translate(-17.4 97.91) rotate(-1.92)" xlink:href="#Gradiente_sem_nome_61"/><radialGradient id="Gradiente_sem_nome_61-13" cx="200.49" cy="140.47" r="24.4" gradientTransform="translate(-17.4 97.91) rotate(-1.92)" xlink:href="#Gradiente_sem_nome_61"/><radialGradient id="Gradiente_sem_nome_61-14" cx="203.53" cy="141.6" r="24.32" gradientTransform="translate(-17.4 97.91) rotate(-1.92)" xlink:href="#Gradiente_sem_nome_61"/><radialGradient id="Gradiente_sem_nome_61-15" cx="206.66" cy="142.44" r="24.22" gradientTransform="translate(-17.4 97.91) rotate(-1.92)" xlink:href="#Gradiente_sem_nome_61"/><radialGradient id="Gradiente_sem_nome_61-16" cx="209.86" cy="142.98" r="24.12" gradientTransform="translate(-17.4 97.91) rotate(-1.92)" xlink:href="#Gradiente_sem_nome_61"/><radialGradient id="Gradiente_sem_nome_61-17" cx="213.1" cy="143.21" r="24.02" gradientTransform="translate(-17.4 97.91) rotate(-1.92)" xlink:href="#Gradiente_sem_nome_61"/><radialGradient id="Gradiente_sem_nome_61-18" cx="216.34" cy="143.13" r="24.07" gradientTransform="translate(-17.4 97.91) rotate(-1.92)" xlink:href="#Gradiente_sem_nome_61"/><radialGradient id="Gradiente_sem_nome_61-19" cx="219.56" cy="142.74" r="24.18" gradientTransform="translate(-17.4 97.91) rotate(-1.92)" xlink:href="#Gradiente_sem_nome_61"/><radialGradient id="Gradiente_sem_nome_61-20" cx="222.73" cy="142.04" r="24.27" gradientTransform="translate(-17.4 97.91) rotate(-1.92)" xlink:href="#Gradiente_sem_nome_61"/><radialGradient id="Gradiente_sem_nome_61-21" cx="225.82" cy="141.04" r="24.36" gradientTransform="translate(-17.4 97.91) rotate(-1.92)" xlink:href="#Gradiente_sem_nome_61"/><radialGradient id="Gradiente_sem_nome_61-22" cx="228.8" cy="139.76" r="24.43" gradientTransform="translate(-17.4 97.91) rotate(-1.92)" xlink:href="#Gradiente_sem_nome_61"/><radialGradient id="Gradiente_sem_nome_61-23" cx="231.64" cy="138.19" r="24.49" gradientTransform="translate(-17.4 97.91) rotate(-1.92)" xlink:href="#Gradiente_sem_nome_61"/><radialGradient id="Gradiente_sem_nome_61-24" cx="234.32" cy="136.36" r="24.53" gradientTransform="translate(-17.4 97.91) rotate(-1.92)" xlink:href="#Gradiente_sem_nome_61"/><radialGradient id="Gradiente_sem_nome_61-25" cx="236.81" cy="134.28" r="24.55" gradientTransform="translate(-17.4 97.91) rotate(-1.92)" xlink:href="#Gradiente_sem_nome_61"/><radialGradient id="Gradiente_sem_nome_61-26" cx="239.09" cy="131.98" r="24.55" gradientTransform="translate(-17.4 97.91) rotate(-1.92)" xlink:href="#Gradiente_sem_nome_61"/><radialGradient id="Gradiente_sem_nome_61-27" cx="241.15" cy="129.46" r="24.53" gradientTransform="translate(-17.4 97.91) rotate(-1.92)" xlink:href="#Gradiente_sem_nome_61"/><radialGradient id="Gradiente_sem_nome_61-28" cx="242.95" cy="126.76" r="24.49" gradientTransform="translate(-17.4 97.91) rotate(-1.92)" xlink:href="#Gradiente_sem_nome_61"/><radialGradient id="Gradiente_sem_nome_61-29" cx="244.48" cy="123.9" r="24.43" gradientTransform="translate(-17.4 97.91) rotate(-1.92)" xlink:href="#Gradiente_sem_nome_61"/><radialGradient id="Gradiente_sem_nome_61-30" cx="245.74" cy="120.91" r="24.35" gradientTransform="translate(-17.4 97.91) rotate(-1.92)" xlink:href="#Gradiente_sem_nome_61"/><radialGradient id="Gradiente_sem_nome_61-31" cx="246.7" cy="117.81" r="24.26" gradientTransform="translate(-17.4 97.91) rotate(-1.92)" xlink:href="#Gradiente_sem_nome_61"/><radialGradient id="Gradiente_sem_nome_61-32" cx="247.36" cy="114.64" r="24.17" gradientTransform="translate(-17.4 97.91) rotate(-1.92)" xlink:href="#Gradiente_sem_nome_61"/><radialGradient id="Gradiente_sem_nome_61-33" cx="247.72" cy="111.41" r="24.06" gradientTransform="translate(-17.4 97.91) rotate(-1.92)" xlink:href="#Gradiente_sem_nome_61"/><radialGradient id="Gradiente_sem_nome_61-34" cx="247.77" cy="108.17" r="24.03" gradientTransform="translate(-17.4 97.91) rotate(-1.92)" xlink:href="#Gradiente_sem_nome_61"/><radialGradient id="Gradiente_sem_nome_61-35" cx="247.5" cy="104.93" r="24.13" gradientTransform="translate(-17.4 97.91) rotate(-1.92)" xlink:href="#Gradiente_sem_nome_61"/><radialGradient id="Gradiente_sem_nome_61-36" cx="246.93" cy="101.74" r="24.24" gradientTransform="translate(-17.4 97.91) rotate(-1.92)" xlink:href="#Gradiente_sem_nome_61"/><radialGradient id="Gradiente_sem_nome_61-37" cx="246.06" cy="98.61" r="24.33" gradientTransform="translate(-17.4 97.91) rotate(-1.92)" xlink:href="#Gradiente_sem_nome_61"/><radialGradient id="Gradiente_sem_nome_61-38" cx="244.89" cy="95.59" r="24.41" gradientTransform="translate(-17.4 97.91) rotate(-1.92)" xlink:href="#Gradiente_sem_nome_61"/><radialGradient id="Gradiente_sem_nome_61-39" cx="243.44" cy="92.68" r="24.47" gradientTransform="translate(-17.4 97.91) rotate(-1.92)" xlink:href="#Gradiente_sem_nome_61"/><radialGradient id="Gradiente_sem_nome_61-40" cx="241.71" cy="89.93" r="24.52" gradientTransform="translate(-17.4 97.91) rotate(-1.92)" xlink:href="#Gradiente_sem_nome_61"/><radialGradient id="Gradiente_sem_nome_61-41" cx="239.74" cy="87.36" r="24.54" gradientTransform="translate(-17.4 97.91) rotate(-1.92)" xlink:href="#Gradiente_sem_nome_61"/><radialGradient id="Gradiente_sem_nome_61-42" cx="237.52" cy="84.99" r="24.55" gradientTransform="translate(-17.4 97.91) rotate(-1.92)" xlink:href="#Gradiente_sem_nome_61"/><radialGradient id="Gradiente_sem_nome_61-43" cx="235.09" cy="82.84" r="24.54" gradientTransform="translate(-17.4 97.91) rotate(-1.92)" xlink:href="#Gradiente_sem_nome_61"/><radialGradient id="Gradiente_sem_nome_61-44" cx="232.46" cy="80.94" r="24.5" gradientTransform="translate(-17.4 97.91) rotate(-1.92)" xlink:href="#Gradiente_sem_nome_61"/><radialGradient id="Gradiente_sem_nome_61-45" cx="229.67" cy="79.29" r="24.45" gradientTransform="translate(-17.4 97.91) rotate(-1.92)" xlink:href="#Gradiente_sem_nome_61"/><radialGradient id="Gradiente_sem_nome_61-46" cx="226.73" cy="77.92" r="24.38" gradientTransform="translate(-17.4 97.91) rotate(-1.92)" xlink:href="#Gradiente_sem_nome_61"/><radialGradient id="Gradiente_sem_nome_61-47" cx="223.67" cy="76.83" r="24.3" gradientTransform="translate(-17.4 97.91) rotate(-1.92)" xlink:href="#Gradiente_sem_nome_61"/><radialGradient id="Gradiente_sem_nome_61-48" cx="220.52" cy="76.04" r="24.21" gradientTransform="translate(-17.4 97.91) rotate(-1.92)" xlink:href="#Gradiente_sem_nome_61"/><radialGradient id="Gradiente_sem_nome_61-49" cx="217.31" cy="75.56" r="24.1" gradientTransform="translate(-17.4 97.91) rotate(-1.92)" xlink:href="#Gradiente_sem_nome_61"/><radialGradient id="Gradiente_sem_nome_61-50" cx="214.07" cy="75.38" r="24" gradientTransform="translate(-17.4 97.91) rotate(-1.92)" xlink:href="#Gradiente_sem_nome_61"/><radialGradient id="Gradiente_sem_nome_61-51" cx="210.83" cy="75.52" r="24.09" gradientTransform="translate(-17.4 97.91) rotate(-1.92)" xlink:href="#Gradiente_sem_nome_61"/><radialGradient id="Gradiente_sem_nome_61-52" cx="207.62" cy="75.96" r="24.19" gradientTransform="translate(-17.4 97.91) rotate(-1.92)" xlink:href="#Gradiente_sem_nome_61"/><radialGradient id="Gradiente_sem_nome_61-53" cx="204.46" cy="76.71" r="24.29" gradientTransform="translate(-17.4 97.91) rotate(-1.92)" xlink:href="#Gradiente_sem_nome_61"/><radialGradient id="Gradiente_sem_nome_61-54" cx="201.39" cy="77.76" r="24.38" gradientTransform="translate(-17.4 97.91) rotate(-1.92)" xlink:href="#Gradiente_sem_nome_61"/><radialGradient id="Gradiente_sem_nome_61-55" cx="198.43" cy="79.1" r="24.45" gradientTransform="translate(-17.4 97.91) rotate(-1.92)" xlink:href="#Gradiente_sem_nome_61"/><radialGradient id="Gradiente_sem_nome_61-56" cx="195.62" cy="80.71" r="24.5" gradientTransform="translate(-17.4 97.91) rotate(-1.92)" xlink:href="#Gradiente_sem_nome_61"/><radialGradient id="Gradiente_sem_nome_61-57" cx="192.97" cy="82.59" r="24.53" gradientTransform="translate(-17.4 97.91) rotate(-1.92)" xlink:href="#Gradiente_sem_nome_61"/><radialGradient id="Gradiente_sem_nome_61-58" cx="190.51" cy="84.71" r="24.55" gradientTransform="translate(-17.4 97.91) rotate(-1.92)" xlink:href="#Gradiente_sem_nome_61"/><radialGradient id="Gradiente_sem_nome_61-59" cx="188.27" cy="87.05" r="24.55" gradientTransform="translate(-17.4 97.91) rotate(-1.92)" xlink:href="#Gradiente_sem_nome_61"/><radialGradient id="Gradiente_sem_nome_61-60" cx="186.26" cy="89.6" r="24.52" gradientTransform="translate(-17.4 97.91) rotate(-1.92)" xlink:href="#Gradiente_sem_nome_61"/><radialGradient id="Gradiente_sem_nome_61-61" cx="184.5" cy="92.33" r="24.48" gradientTransform="translate(-17.4 97.91) rotate(-1.92)" xlink:href="#Gradiente_sem_nome_61"/><radialGradient id="Gradiente_sem_nome_61-62" cx="183.02" cy="95.21" r="24.41" gradientTransform="translate(-17.4 97.91) rotate(-1.92)" xlink:href="#Gradiente_sem_nome_61"/><radialGradient id="Gradiente_sem_nome_61-63" cx="181.81" cy="98.23" r="24.34" gradientTransform="translate(-17.4 97.91) rotate(-1.92)" xlink:href="#Gradiente_sem_nome_61"/><radialGradient id="Gradiente_sem_nome_61-64" cx="180.9" cy="101.34" r="24.25" gradientTransform="translate(-17.4 97.91) rotate(-1.92)" xlink:href="#Gradiente_sem_nome_61"/><radialGradient id="Gradiente_sem_nome_61-65" cx="180.29" cy="104.53" r="24.15" gradientTransform="translate(-17.4 97.91) rotate(-1.92)" xlink:href="#Gradiente_sem_nome_61"/><radialGradient id="Gradiente_sem_nome_61-66" cx="179.99" cy="107.76" r="24.04" gradientTransform="translate(-17.4 97.91) rotate(-1.92)" xlink:href="#Gradiente_sem_nome_61"/><radialGradient id="Gradiente_sem_nome_61-67" cx="179.99" cy="111" r="24.05" gradientTransform="translate(-17.4 97.91) rotate(-1.92)" xlink:href="#Gradiente_sem_nome_61"/><linearGradient id="Gradiente_sem_nome_580" x1="219.7" y1="178.26" x2="204.64" y2="186.96" gradientUnits="userSpaceOnUse"><stop offset="0" stop-color="#fff"/><stop offset="0.09" stop-color="#fff" stop-opacity="0.98"/><stop offset="0.22" stop-color="#fff" stop-opacity="0.91"/><stop offset="0.36" stop-color="#fff" stop-opacity="0.79"/><stop offset="0.52" stop-color="#fff" stop-opacity="0.64"/><stop offset="0.69" stop-color="#fff" stop-opacity="0.43"/><stop offset="0.87" stop-color="#fff" stop-opacity="0.19"/><stop offset="1" stop-color="#fff" stop-opacity="0"/></linearGradient></defs><g id="Camada_9" data-name="Camada 9"><circle class="cls-1" cx="201.92" cy="199.21" r="172.1"/><circle class="cls-2" cx="196.09" cy="203.91" r="109.11"/><circle class="cls-3" cx="200" cy="200" r="71.29"/><path class="cls-4" d="M200,15.69C98.21,15.69,15.69,98.21,15.69,200S98.21,384.31,200,384.31,384.31,301.79,384.31,200,301.79,15.69,200,15.69Zm0,349.88A165.57,165.57,0,1,1,365.57,200,165.57,165.57,0,0,1,200,365.57Z"/><path class="cls-5" d="M50.46,200A149.54,149.54,0,0,1,200,50.46V40A160,160,0,0,0,200,360V349.54A149.54,149.54,0,0,1,50.46,200Z"/><path class="cls-4" d="M200,286.94a86.94,86.94,0,0,1,0-173.88V69.59A130.41,130.41,0,1,0,330.41,200H286.94A86.93,86.93,0,0,1,200,286.94Z"/><circle cx="200" cy="200" r="26.08"/><line class="cls-6" x1="200" y1="200" x2="132.89" y2="209.86"/><line class="cls-7" x1="200" y1="200" x2="134.14" y2="216.23"/><line class="cls-8" x1="200" y1="200" x2="135.99" y2="222.45"/><line class="cls-9" x1="200" y1="200" x2="138.43" y2="228.46"/><line class="cls-10" x1="200" y1="200" x2="141.43" y2="234.22"/><line class="cls-11" x1="200" y1="200" x2="144.97" y2="239.66"/><line class="cls-12" x1="200" y1="200" x2="149.01" y2="244.73"/><line class="cls-13" x1="200" y1="200" x2="153.52" y2="249.4"/><line class="cls-14" x1="200" y1="200" x2="158.45" y2="253.62"/><line class="cls-15" x1="200" y1="200" x2="163.77" y2="257.34"/><line class="cls-16" x1="200" y1="200" x2="169.41" y2="260.54"/><line class="cls-17" x1="200" y1="200" x2="175.34" y2="263.19"/><line class="cls-18" x1="200" y1="200" x2="181.49" y2="265.26"/><line class="cls-19" x1="200" y1="200" x2="187.81" y2="266.73"/><line class="cls-20" x1="200" y1="200" x2="194.24" y2="267.59"/><line class="cls-21" x1="200" y1="200" x2="200.73" y2="267.83"/><line class="cls-22" x1="200" y1="200" x2="207.21" y2="267.45"/><line class="cls-23" x1="200" y1="200" x2="213.62" y2="266.45"/><line class="cls-24" x1="200" y1="200" x2="219.91" y2="264.85"/><line class="cls-25" x1="200" y1="200" x2="226.02" y2="262.65"/><line class="cls-26" x1="200" y1="200" x2="231.88" y2="259.88"/><line class="cls-27" x1="200" y1="200" x2="237.46" y2="256.56"/><line class="cls-28" x1="200" y1="200" x2="242.69" y2="252.72"/><line class="cls-29" x1="200" y1="200" x2="247.54" y2="248.4"/><line class="cls-30" x1="200" y1="200" x2="251.94" y2="243.63"/><line class="cls-31" x1="200" y1="200" x2="255.88" y2="238.47"/><line class="cls-32" x1="200" y1="200" x2="259.3" y2="232.96"/><line class="cls-33" x1="200" y1="200" x2="262.17" y2="227.14"/><line class="cls-34" x1="200" y1="200" x2="264.48" y2="221.07"/><line class="cls-35" x1="200" y1="200" x2="266.2" y2="214.81"/><line class="cls-36" x1="200" y1="200" x2="267.32" y2="208.42"/><line class="cls-37" x1="200" y1="200" x2="267.81" y2="201.95"/><line class="cls-38" x1="200" y1="200" x2="267.69" y2="195.46"/><line class="cls-39" x1="200" y1="200" x2="266.95" y2="189.01"/><line class="cls-40" x1="200" y1="200" x2="265.59" y2="182.67"/><line class="cls-41" x1="200" y1="200" x2="263.63" y2="176.48"/><line class="cls-42" x1="200" y1="200" x2="261.1" y2="170.51"/><line class="cls-43" x1="200" y1="200" x2="258" y2="164.8"/><line class="cls-44" x1="200" y1="200" x2="254.37" y2="159.42"/><line class="cls-45" x1="200" y1="200" x2="250.24" y2="154.41"/><line class="cls-46" x1="200" y1="200" x2="245.66" y2="149.82"/><line class="cls-47" x1="200" y1="200" x2="240.65" y2="145.69"/><line class="cls-48" x1="200" y1="200" x2="235.28" y2="142.05"/><line class="cls-49" x1="200" y1="200" x2="229.58" y2="138.95"/><line class="cls-50" x1="200" y1="200" x2="223.61" y2="136.4"/><line class="cls-51" x1="200" y1="200" x2="217.42" y2="134.44"/><line class="cls-52" x1="200" y1="200" x2="211.08" y2="133.07"/><line class="cls-53" x1="200" y1="200" x2="204.63" y2="132.32"/><line class="cls-54" x1="200" y1="200" x2="198.14" y2="132.19"/><line class="cls-55" x1="200" y1="200" x2="191.67" y2="132.67"/><line class="cls-56" x1="200" y1="200" x2="185.28" y2="133.78"/><line class="cls-57" x1="200" y1="200" x2="179.02" y2="135.49"/><line class="cls-58" x1="200" y1="200" x2="172.95" y2="137.79"/><line class="cls-59" x1="200" y1="200" x2="167.13" y2="140.66"/><line class="cls-60" x1="200" y1="200" x2="161.61" y2="144.07"/><line class="cls-61" x1="200" y1="200" x2="156.44" y2="148"/><line class="cls-62" x1="200" y1="200" x2="151.67" y2="152.4"/><line class="cls-63" x1="200" y1="200" x2="147.34" y2="157.24"/><line class="cls-64" x1="200" y1="200" x2="143.5" y2="162.46"/><line class="cls-65" x1="200" y1="200" x2="140.17" y2="168.04"/><line class="cls-66" x1="200" y1="200" x2="137.39" y2="173.9"/><line class="cls-67" x1="200" y1="200" x2="135.18" y2="180"/><line class="cls-68" x1="200" y1="200" x2="133.57" y2="186.29"/><line class="cls-69" x1="200" y1="200" x2="132.56" y2="192.7"/><line class="cls-70" x1="200" y1="200" x2="132.17" y2="199.18"/><line class="cls-71" x1="200" y1="200" x2="132.41" y2="205.66"/><g class="cls-72"><line class="cls-73" x1="200" y1="200" x2="147.84" y2="200"/><line class="cls-73" x1="200" y1="200" x2="148.07" y2="204.98"/><line class="cls-73" x1="200" y1="200" x2="148.79" y2="209.92"/><line class="cls-73" x1="200" y1="200" x2="149.97" y2="214.77"/><line class="cls-73" x1="200" y1="200" x2="151.61" y2="219.49"/><line class="cls-73" x1="200" y1="200" x2="153.7" y2="224.02"/><line class="cls-73" x1="200" y1="200" x2="156.2" y2="228.34"/><line class="cls-73" x1="200" y1="200" x2="159.11" y2="232.39"/><line class="cls-73" x1="200" y1="200" x2="162.39" y2="236.15"/><line class="cls-73" x1="200" y1="200" x2="166.02" y2="239.58"/><line class="cls-73" x1="200" y1="200" x2="169.96" y2="242.64"/><line class="cls-73" x1="200" y1="200" x2="174.17" y2="245.32"/><line class="cls-73" x1="200" y1="200" x2="178.62" y2="247.58"/><line class="cls-73" x1="200" y1="200" x2="183.26" y2="249.41"/><line class="cls-73" x1="200" y1="200" x2="188.06" y2="250.78"/><line class="cls-73" x1="200" y1="200" x2="192.97" y2="251.69"/><line class="cls-73" x1="200" y1="200" x2="197.94" y2="252.12"/><line class="cls-73" x1="200" y1="200" x2="202.93" y2="252.08"/><line class="cls-73" x1="200" y1="200" x2="207.89" y2="251.56"/><line class="cls-73" x1="200" y1="200" x2="212.79" y2="250.57"/><line class="cls-73" x1="200" y1="200" x2="217.56" y2="249.12"/><line class="cls-73" x1="200" y1="200" x2="222.17" y2="247.22"/><line class="cls-73" x1="200" y1="200" x2="226.58" y2="244.88"/><line class="cls-73" x1="200" y1="200" x2="230.75" y2="242.14"/><line class="cls-73" x1="200" y1="200" x2="234.64" y2="239"/><line class="cls-73" x1="200" y1="200" x2="238.21" y2="235.52"/><line class="cls-73" x1="200" y1="200" x2="241.43" y2="231.7"/><line class="cls-73" x1="200" y1="200" x2="244.27" y2="227.6"/><line class="cls-73" x1="200" y1="200" x2="246.7" y2="223.24"/><line class="cls-73" x1="200" y1="200" x2="248.71" y2="218.67"/><line class="cls-73" x1="200" y1="200" x2="250.27" y2="213.93"/><line class="cls-73" x1="200" y1="200" x2="251.37" y2="209.07"/><line class="cls-73" x1="200" y1="200" x2="252" y2="204.12"/><line class="cls-73" x1="200" y1="200" x2="252.16" y2="199.13"/><line class="cls-73" x1="200" y1="200" x2="251.83" y2="194.15"/><line class="cls-73" x1="200" y1="200" x2="251.04" y2="189.22"/><line class="cls-73" x1="200" y1="200" x2="249.77" y2="184.39"/><line class="cls-73" x1="200" y1="200" x2="248.06" y2="179.71"/><line class="cls-73" x1="200" y1="200" x2="245.9" y2="175.21"/><line class="cls-73" x1="200" y1="200" x2="243.32" y2="170.94"/><line class="cls-73" x1="200" y1="200" x2="240.34" y2="166.93"/><line class="cls-73" x1="200" y1="200" x2="237" y2="163.23"/><line class="cls-73" x1="200" y1="200" x2="233.31" y2="159.86"/><line class="cls-73" x1="200" y1="200" x2="229.32" y2="156.86"/><line class="cls-73" x1="200" y1="200" x2="225.07" y2="154.25"/><line class="cls-73" x1="200" y1="200" x2="220.58" y2="152.07"/><line class="cls-73" x1="200" y1="200" x2="215.91" y2="150.32"/><line class="cls-73" x1="200" y1="200" x2="211.09" y2="149.03"/><line class="cls-73" x1="200" y1="200" x2="206.17" y2="148.2"/><line class="cls-73" x1="200" y1="200" x2="201.19" y2="147.85"/><line class="cls-73" x1="200" y1="200" x2="196.2" y2="147.97"/><line class="cls-73" x1="200" y1="200" x2="191.24" y2="148.58"/><line class="cls-73" x1="200" y1="200" x2="186.37" y2="149.65"/><line class="cls-73" x1="200" y1="200" x2="181.62" y2="151.18"/><line class="cls-73" x1="200" y1="200" x2="177.04" y2="153.16"/><line class="cls-73" x1="200" y1="200" x2="172.67" y2="155.57"/><line class="cls-73" x1="200" y1="200" x2="168.55" y2="158.38"/><line class="cls-73" x1="200" y1="200" x2="164.72" y2="161.58"/><line class="cls-73" x1="200" y1="200" x2="161.21" y2="165.13"/><line class="cls-73" x1="200" y1="200" x2="158.05" y2="168.99"/><line class="cls-73" x1="200" y1="200" x2="155.28" y2="173.15"/><line class="cls-73" x1="200" y1="200" x2="152.92" y2="177.54"/><line class="cls-73" x1="200" y1="200" x2="150.99" y2="182.14"/><line class="cls-73" x1="200" y1="200" x2="149.51" y2="186.91"/><line class="cls-73" x1="200" y1="200" x2="148.49" y2="191.79"/><line class="cls-73" x1="200" y1="200" x2="147.94" y2="196.75"/></g><circle class="cls-74" cx="212.17" cy="182.61" r="8.69"/><line class="cls-75" x1="196.58" y1="100.94" x2="196.58" y2="128.27"/><line class="cls-75" x1="192.81" y1="101.15" x2="193.85" y2="128.45"/><line class="cls-75" x1="189.05" y1="101.49" x2="191.13" y2="128.74"/><line class="cls-75" x1="185.3" y1="101.98" x2="188.42" y2="129.13"/><line class="cls-75" x1="181.58" y1="102.61" x2="185.73" y2="129.62"/><line class="cls-75" x1="177.88" y1="103.38" x2="183.06" y2="130.22"/><line class="cls-75" x1="174.21" y1="104.3" x2="180.41" y2="130.91"/><line class="cls-75" x1="170.59" y1="105.35" x2="177.79" y2="131.71"/><line class="cls-75" x1="167" y1="106.54" x2="175.2" y2="132.6"/><line class="cls-75" x1="163.46" y1="107.86" x2="172.65" y2="133.6"/><line class="cls-75" x1="159.98" y1="109.32" x2="170.14" y2="134.69"/><line class="cls-75" x1="156.55" y1="110.91" x2="167.68" y2="135.87"/><line class="cls-75" x1="153.19" y1="112.63" x2="165.26" y2="137.15"/><line class="cls-75" x1="149.9" y1="114.48" x2="162.89" y2="138.52"/><line class="cls-75" x1="146.67" y1="116.45" x2="160.57" y2="139.98"/><line class="cls-75" x1="143.53" y1="118.54" x2="158.31" y2="141.52"/><line class="cls-75" x1="140.47" y1="120.75" x2="156.12" y2="143.15"/><line class="cls-75" x1="137.49" y1="123.08" x2="153.98" y2="144.87"/><line class="cls-75" x1="134.61" y1="125.51" x2="151.91" y2="146.66"/><line class="cls-75" x1="131.81" y1="128.06" x2="149.92" y2="148.53"/><line class="cls-75" x1="129.12" y1="130.71" x2="147.99" y2="150.48"/><line class="cls-75" x1="126.53" y1="133.46" x2="146.14" y2="152.49"/><line class="cls-75" x1="124.05" y1="136.31" x2="144.37" y2="154.58"/><line class="cls-75" x1="121.68" y1="139.25" x2="142.68" y2="156.73"/><line class="cls-75" x1="119.42" y1="142.27" x2="141.07" y2="158.95"/><line class="cls-75" x1="117.28" y1="145.38" x2="139.55" y2="161.22"/><line class="cls-75" x1="115.26" y1="148.58" x2="138.12" y2="163.55"/><line class="cls-75" x1="113.36" y1="151.84" x2="136.78" y2="165.94"/><line class="cls-75" x1="111.59" y1="155.18" x2="135.52" y2="168.37"/><line class="cls-75" x1="109.95" y1="158.58" x2="134.36" y2="170.85"/><line class="cls-75" x1="108.43" y1="162.04" x2="133.3" y2="173.37"/><line class="cls-75" x1="107.05" y1="165.55" x2="132.33" y2="175.93"/><line class="cls-75" x1="105.81" y1="169.12" x2="131.47" y2="178.53"/><line class="cls-75" x1="104.7" y1="172.73" x2="130.7" y2="181.15"/><line class="cls-75" x1="103.73" y1="176.38" x2="130.03" y2="183.81"/><line class="cls-75" x1="102.9" y1="180.07" x2="129.46" y2="186.48"/><line class="cls-75" x1="102.21" y1="183.78" x2="129" y2="189.18"/><line class="cls-75" x1="101.66" y1="187.52" x2="128.64" y2="191.89"/><line class="cls-75" x1="101.26" y1="191.27" x2="128.38" y2="194.62"/><line class="cls-75" x1="101" y1="195.04" x2="128.23" y2="197.35"/><line class="cls-75" x1="100.88" y1="198.82" x2="128.18" y2="200.09"/><line class="cls-75" x1="100.91" y1="202.59" x2="128.23" y2="202.82"/><line class="cls-75" x1="101.08" y1="206.37" x2="128.39" y2="205.55"/><line class="cls-75" x1="101.39" y1="210.13" x2="128.66" y2="208.28"/><line class="cls-75" x1="101.85" y1="213.88" x2="129.02" y2="210.99"/><line class="cls-75" x1="102.45" y1="217.61" x2="129.49" y2="213.69"/><line class="cls-75" x1="103.19" y1="221.31" x2="130.07" y2="216.36"/><line class="cls-75" x1="104.07" y1="224.98" x2="130.74" y2="219.01"/><line class="cls-75" x1="105.09" y1="228.62" x2="131.51" y2="221.64"/><line class="cls-75" x1="106.25" y1="232.22" x2="132.39" y2="224.23"/><line class="cls-75" x1="107.55" y1="235.76" x2="133.36" y2="226.79"/><line class="cls-75" x1="108.98" y1="239.26" x2="134.43" y2="229.31"/><line class="cls-75" x1="110.54" y1="242.7" x2="135.59" y2="231.79"/><line class="cls-75" x1="112.23" y1="246.08" x2="136.85" y2="234.22"/><line class="cls-75" x1="114.05" y1="249.39" x2="138.2" y2="236.6"/><line class="cls-75" x1="115.99" y1="252.63" x2="139.64" y2="238.93"/><line class="cls-75" x1="118.06" y1="255.79" x2="141.17" y2="241.2"/><line class="cls-75" x1="120.24" y1="258.87" x2="142.78" y2="243.41"/><line class="cls-75" x1="122.54" y1="261.86" x2="144.47" y2="245.56"/><line class="cls-75" x1="124.96" y1="264.77" x2="146.25" y2="247.64"/><line class="cls-75" x1="127.48" y1="267.58" x2="148.1" y2="249.65"/><line class="cls-75" x1="130.11" y1="270.3" x2="150.03" y2="251.59"/><line class="cls-75" x1="132.84" y1="272.91" x2="152.03" y2="253.46"/><line class="cls-75" x1="135.66" y1="275.41" x2="154.1" y2="255.25"/><line class="cls-75" x1="138.58" y1="277.81" x2="156.24" y2="256.96"/><line class="cls-75" x1="141.59" y1="280.09" x2="158.44" y2="258.58"/><line class="cls-75" x1="144.68" y1="282.26" x2="160.71" y2="260.12"/><line class="cls-75" x1="147.86" y1="284.31" x2="163.02" y2="261.57"/><line class="cls-75" x1="151.11" y1="286.23" x2="165.4" y2="262.94"/><line class="cls-75" x1="154.43" y1="288.03" x2="167.82" y2="264.21"/><line class="cls-75" x1="157.81" y1="289.7" x2="170.29" y2="265.39"/><line class="cls-75" x1="161.26" y1="291.25" x2="172.8" y2="266.47"/><line class="cls-75" x1="164.77" y1="292.66" x2="175.35" y2="267.46"/><line class="cls-75" x1="168.32" y1="293.93" x2="177.94" y2="268.35"/><line class="cls-75" x1="171.92" y1="295.07" x2="180.56" y2="269.14"/><line class="cls-75" x1="175.57" y1="296.07" x2="183.21" y2="269.83"/><line class="cls-75" x1="179.24" y1="296.93" x2="185.88" y2="270.42"/><line class="cls-75" x1="182.95" y1="297.65" x2="188.58" y2="270.91"/><line class="cls-75" x1="186.68" y1="298.23" x2="191.29" y2="271.29"/><line class="cls-75" x1="190.44" y1="298.67" x2="194.01" y2="271.57"/><line class="cls-75" x1="194.2" y1="298.96" x2="196.74" y2="271.75"/><line class="cls-75" x1="197.98" y1="299.11" x2="199.47" y2="271.82"/><line class="cls-75" x1="201.75" y1="299.11" x2="202.21" y2="271.79"/><line class="cls-75" x1="205.53" y1="298.97" x2="204.94" y2="271.65"/><line class="cls-75" x1="209.29" y1="298.69" x2="207.67" y2="271.41"/><line class="cls-75" x1="213.05" y1="298.26" x2="210.38" y2="271.07"/><line class="cls-75" x1="216.78" y1="297.7" x2="213.08" y2="270.62"/><line class="cls-75" x1="220.49" y1="296.99" x2="215.77" y2="270.07"/><line class="cls-75" x1="224.17" y1="296.13" x2="218.42" y2="269.42"/><line class="cls-75" x1="227.82" y1="295.14" x2="221.05" y2="268.67"/><line class="cls-75" x1="231.42" y1="294.01" x2="223.65" y2="267.81"/><line class="cls-75" x1="234.98" y1="292.75" x2="226.22" y2="266.86"/><line class="cls-75" x1="238.49" y1="291.35" x2="228.75" y2="265.81"/><line class="cls-75" x1="241.94" y1="289.82" x2="231.24" y2="264.67"/><line class="cls-75" x1="245.33" y1="288.15" x2="233.68" y2="263.43"/><line class="cls-75" x1="248.66" y1="286.36" x2="236.07" y2="262.11"/><line class="cls-75" x1="251.91" y1="284.44" x2="238.41" y2="260.69"/><line class="cls-75" x1="255.09" y1="282.41" x2="240.69" y2="259.18"/><line class="cls-75" x1="258.19" y1="280.25" x2="242.92" y2="257.58"/><line class="cls-75" x1="261.2" y1="277.97" x2="245.08" y2="255.91"/><line class="cls-75" x1="264.13" y1="275.58" x2="247.18" y2="254.15"/><line class="cls-75" x1="266.96" y1="273.08" x2="249.21" y2="252.31"/><line class="cls-75" x1="269.7" y1="270.48" x2="251.16" y2="250.4"/><line class="cls-75" x1="272.33" y1="267.77" x2="253.05" y2="248.41"/><line class="cls-75" x1="274.86" y1="264.97" x2="254.85" y2="246.36"/><line class="cls-75" x1="277.28" y1="262.07" x2="256.58" y2="244.23"/><line class="cls-75" x1="279.59" y1="259.08" x2="258.22" y2="242.05"/><line class="cls-75" x1="281.78" y1="256" x2="259.78" y2="239.8"/><line class="cls-75" x1="283.86" y1="252.85" x2="261.25" y2="237.49"/><line class="cls-75" x1="285.81" y1="249.61" x2="262.64" y2="235.13"/><line class="cls-75" x1="287.64" y1="246.31" x2="263.93" y2="232.72"/><line class="cls-75" x1="289.34" y1="242.94" x2="265.13" y2="230.26"/><line class="cls-75" x1="290.91" y1="239.5" x2="266.23" y2="227.75"/><line class="cls-75" x1="292.35" y1="236.01" x2="267.24" y2="225.21"/><line class="cls-75" x1="293.65" y1="232.46" x2="268.16" y2="222.63"/><line class="cls-75" x1="294.82" y1="228.87" x2="268.97" y2="220.02"/><line class="cls-75" x1="295.85" y1="225.24" x2="269.68" y2="217.37"/><line class="cls-75" x1="296.74" y1="221.57" x2="270.29" y2="214.71"/><line class="cls-75" x1="297.49" y1="217.87" x2="270.8" y2="212.02"/><line class="cls-75" x1="298.1" y1="214.14" x2="271.21" y2="209.31"/><line class="cls-75" x1="298.57" y1="210.39" x2="271.51" y2="206.59"/><line class="cls-75" x1="298.9" y1="206.63" x2="271.71" y2="203.86"/><line class="cls-75" x1="299.08" y1="202.85" x2="271.8" y2="201.13"/></g></svg>