<svg xmlns="http://www.w3.org/2000/svg" xmlns:xlink="http://www.w3.org/1999/xlink" viewBox="0 0 802.44 394.55"><defs><style>.cls-1{fill:#fff;}.cls-2{fill:url(#Gradiente_sem_nome_145);}</style><linearGradient id="Gradiente_sem_nome_145" x1="158.68" y1="31.41" x2="159.45" y2="31.41" gradientUnits="userSpaceOnUse"><stop offset="0" stop-color="#091a40"/><stop offset="1" stop-color="#164194"/></linearGradient></defs><g id="Camada_8" data-name="Camada 8"><path class="cls-1" d="M42.84,321.28H32.1l-2.63,5.11H22.13l15.5-28.92h8.12l5.33,28.92H43.66ZM42,315.93l-1.68-10.72-5.5,10.72Z"/><path class="cls-1" d="M58.89,325.85a8,8,0,0,1-3.39-2.41,5.54,5.54,0,0,1-1.23-3.56,10.08,10.08,0,0,1,.09-1h6.76a2.42,2.42,0,0,0,.76,2,3.44,3.44,0,0,0,2.4.76,4.3,4.3,0,0,0,2.17-.49,1.53,1.53,0,0,0-.06-2.78,20.2,20.2,0,0,0-3.06-1.26,32.35,32.35,0,0,1-3.71-1.46,7.31,7.31,0,0,1-2.56-2.08A5.39,5.39,0,0,1,56,310.16a6.05,6.05,0,0,1,1.18-3.65A7.77,7.77,0,0,1,60.53,304a12.61,12.61,0,0,1,5-.91,12.06,12.06,0,0,1,4.92.93,7.7,7.7,0,0,1,3.24,2.57,6.38,6.38,0,0,1,1.14,3.71l0,.62H68.42a2.33,2.33,0,0,0-.74-2,3.4,3.4,0,0,0-2.34-.74,3.47,3.47,0,0,0-1.94.5,1.52,1.52,0,0,0-.76,1.35,1.74,1.74,0,0,0,1,1.51,18.74,18.74,0,0,0,3.14,1.34,29.42,29.42,0,0,1,3.67,1.46,7.37,7.37,0,0,1,2.5,2,5,5,0,0,1,1,3.23,5.8,5.8,0,0,1-1.33,3.83A8.27,8.27,0,0,1,69,325.87a15.13,15.13,0,0,1-5.27.85A12.82,12.82,0,0,1,58.89,325.85Z"/><path class="cls-1" d="M89.78,308.63a13.2,13.2,0,0,1,4.77-4.12,13.57,13.57,0,0,1,6.21-1.44,9.78,9.78,0,0,1,6.81,2.27,8.7,8.7,0,0,1,2.66,6.38h-7.46a2.9,2.9,0,0,0-3.2-2.63,4.39,4.39,0,0,0-3.32,1.5,8.32,8.32,0,0,0-1.88,4.31,9.59,9.59,0,0,0-.17,1.81,4.35,4.35,0,0,0,.9,3,3.12,3.12,0,0,0,2.46,1,4.32,4.32,0,0,0,4.06-2.63h7.5a13.58,13.58,0,0,1-4.91,6.34,13,13,0,0,1-7.59,2.31,9.87,9.87,0,0,1-7-2.45,8.79,8.79,0,0,1-2.6-6.7,15.76,15.76,0,0,1,.24-2.67A14.85,14.85,0,0,1,89.78,308.63Z"/><path class="cls-1" d="M116.59,325.52a8.44,8.44,0,0,1-3.55-3.37,10.08,10.08,0,0,1-1.25-5.07,14.06,14.06,0,0,1,1.84-7.13,13.32,13.32,0,0,1,5.09-5,14.3,14.3,0,0,1,7.21-1.84,11.16,11.16,0,0,1,5.27,1.22,8.73,8.73,0,0,1,3.59,3.4,9.93,9.93,0,0,1,1.27,5.06,13.85,13.85,0,0,1-1.87,7.15,13.32,13.32,0,0,1-5.12,5,14.73,14.73,0,0,1-7.24,1.81A11.15,11.15,0,0,1,116.59,325.52Zm9.32-5.91a6.86,6.86,0,0,0,2.13-2.72,8.24,8.24,0,0,0,.76-3.48,4.33,4.33,0,0,0-1.1-3.17,3.78,3.78,0,0,0-2.79-1.11,4.86,4.86,0,0,0-3.1,1.05,6.9,6.9,0,0,0-2.07,2.74,8.74,8.74,0,0,0-.74,3.54,4.27,4.27,0,0,0,1.07,3.11,3.67,3.67,0,0,0,2.75,1.09A5,5,0,0,0,125.91,319.61Z"/><path class="cls-1" d="M160.9,305.09a7.24,7.24,0,0,1,2,5.4,13,13,0,0,1-.25,2.47l-2.37,13.43h-7l2.21-12.48a7.47,7.47,0,0,0,.12-1.24,3.62,3.62,0,0,0-1-2.68,3.67,3.67,0,0,0-2.69-.94,4.91,4.91,0,0,0-3.44,1.27,6.13,6.13,0,0,0-1.8,3.59v-.21l-2.22,12.69h-7l4-23h7l-.53,3.09a10.11,10.11,0,0,1,3.3-2.43,9.91,9.91,0,0,1,4.2-.91A7.37,7.37,0,0,1,160.9,305.09Z"/><path class="cls-1" d="M174.64,318.48a2.58,2.58,0,0,0,0,.53,1.27,1.27,0,0,0,.44,1.08,2.32,2.32,0,0,0,1.41.33h2.5l-1.07,6h-3.56q-6.88,0-6.89-5.81a14.31,14.31,0,0,1,.21-2.18l1.64-9.15h-2.79l1-5.85h2.79l1-5.6h7l-1,5.6h4.59l-1,5.85h-4.59Z"/><path class="cls-1" d="M195.73,304.33a8.67,8.67,0,0,1,4.32-1.18l-1.31,7.46h-1.93a6.8,6.8,0,0,0-4.14,1.13,6,6,0,0,0-2,4l-1.88,10.67h-7l4-23h7l-.74,4.16A12.29,12.29,0,0,1,195.73,304.33Z"/><path class="cls-1" d="M204.52,325.52a8.55,8.55,0,0,1-3.55-3.37,10.08,10.08,0,0,1-1.25-5.07,14.06,14.06,0,0,1,1.85-7.13,13.29,13.29,0,0,1,5.08-5,14.34,14.34,0,0,1,7.22-1.84,11.22,11.22,0,0,1,5.27,1.22,8.7,8.7,0,0,1,3.58,3.4,9.83,9.83,0,0,1,1.27,5.06,13.94,13.94,0,0,1-1.86,7.15,13.35,13.35,0,0,1-5.13,5,14.69,14.69,0,0,1-7.23,1.81A11.16,11.16,0,0,1,204.52,325.52Zm9.33-5.91a7,7,0,0,0,2.13-2.72,8.39,8.39,0,0,0,.76-3.48,4.29,4.29,0,0,0-1.11-3.17,3.78,3.78,0,0,0-2.79-1.11,4.86,4.86,0,0,0-3.09,1.05,6.9,6.9,0,0,0-2.07,2.74,8.74,8.74,0,0,0-.74,3.54,4.26,4.26,0,0,0,1.06,3.11,3.68,3.68,0,0,0,2.75,1.09A5,5,0,0,0,213.85,319.61Z"/><path class="cls-1" d="M236.87,319.8l7.87-16.4h7.5l-12.18,23h-8.69l-4.06-23h7.47Z"/><path class="cls-1" d="M272.39,305.48a8.54,8.54,0,0,1,2.6,6.57,13.56,13.56,0,0,1-.2,2.43,16,16,0,0,1-.5,2H258.43a5,5,0,0,0,0,.78,3.67,3.67,0,0,0,1,2.76A3.6,3.6,0,0,0,262,321a4.46,4.46,0,0,0,4-2.22h7.46a12.74,12.74,0,0,1-4.79,5.72,13.07,13.07,0,0,1-7.46,2.23,10,10,0,0,1-7.07-2.47,8.74,8.74,0,0,1-2.65-6.72,14.17,14.17,0,0,1,.25-2.63,14.84,14.84,0,0,1,2.54-6.27,13.12,13.12,0,0,1,4.8-4.12,13.76,13.76,0,0,1,6.27-1.44A10,10,0,0,1,272.39,305.48ZM268,312.14a3.19,3.19,0,0,0-1-2.54,4,4,0,0,0-2.71-.88,5,5,0,0,0-3.18,1.09,6.13,6.13,0,0,0-2,3.11h8.81C268,312.53,268,312.27,268,312.14Zm3.36-14.46-10.66,4.16.87-4.86,10.74-4.78Z"/><path class="cls-1" d="M290.3,304.33a8.68,8.68,0,0,1,4.33-1.18l-1.31,7.46h-1.93a6.8,6.8,0,0,0-4.14,1.13,6,6,0,0,0-2,4l-1.89,10.67h-7l4-23h7l-.74,4.16A12.42,12.42,0,0,1,290.3,304.33Z"/><path class="cls-1" d="M298.54,325.85a8,8,0,0,1-3.38-2.41,5.54,5.54,0,0,1-1.23-3.56c0-.19,0-.54.08-1h6.77a2.39,2.39,0,0,0,.76,2,3.43,3.43,0,0,0,2.39.76,4.34,4.34,0,0,0,2.18-.49,1.53,1.53,0,0,0-.06-2.78,20.2,20.2,0,0,0-3.06-1.26,32.35,32.35,0,0,1-3.71-1.46,7.22,7.22,0,0,1-2.56-2.08,5.39,5.39,0,0,1-1.07-3.42,6.06,6.06,0,0,1,1.19-3.65,7.74,7.74,0,0,1,3.34-2.53,12.68,12.68,0,0,1,5-.91,12,12,0,0,1,4.92.93,7.58,7.58,0,0,1,3.24,2.57,6.32,6.32,0,0,1,1.15,3.71l0,.62h-6.35a2.36,2.36,0,0,0-.74-2,3.4,3.4,0,0,0-2.34-.74,3.53,3.53,0,0,0-1.95.5,1.54,1.54,0,0,0-.76,1.35,1.75,1.75,0,0,0,1,1.51,18.56,18.56,0,0,0,3.13,1.34,28.81,28.81,0,0,1,3.67,1.46,7.27,7.27,0,0,1,2.5,2,5,5,0,0,1,1,3.23,5.8,5.8,0,0,1-1.33,3.83,8.33,8.33,0,0,1-3.65,2.45,15.17,15.17,0,0,1-5.27.85A12.91,12.91,0,0,1,298.54,325.85Z"/><path class="cls-1" d="M327.79,303.4l-4,23h-7l4-23Zm-5.63-3.27a2.9,2.9,0,0,1-1-2.25,4.16,4.16,0,0,1,1.44-3.17,5,5,0,0,1,3.48-1.32,3.64,3.64,0,0,1,2.59.89,3,3,0,0,1,.94,2.28,4.09,4.09,0,0,1-1.44,3.13,4.89,4.89,0,0,1-3.44,1.32A3.69,3.69,0,0,1,322.16,300.13Z"/><path class="cls-1" d="M331.93,308.63a13.1,13.1,0,0,1,4.35-4.12,10.71,10.71,0,0,1,5.37-1.44,7.73,7.73,0,0,1,4.06,1,6,6,0,0,1,2.38,2.6l.57-3.26h7l-4.06,23h-7l.62-3.26a9.93,9.93,0,0,1-7.75,3.59,8.26,8.26,0,0,1-4.29-1.11,7.63,7.63,0,0,1-2.89-3.16,10.54,10.54,0,0,1-1-4.79,17.68,17.68,0,0,1,.24-2.81A15.91,15.91,0,0,1,331.93,308.63Zm14.84,4.91a4.3,4.3,0,0,0-1.16-3.18,4.1,4.1,0,0,0-3-1.15,5.68,5.68,0,0,0-3.81,1.5,6.84,6.84,0,0,0-2.17,4.14,8.65,8.65,0,0,0-.12,1.36,4.38,4.38,0,0,0,1.16,3.2,4,4,0,0,0,2.93,1.17,5.66,5.66,0,0,0,3.82-1.52,7.18,7.18,0,0,0,2.21-4.16A8.65,8.65,0,0,0,346.77,313.54Z"/><path class="cls-1" d="M361.35,325.85a8,8,0,0,1-3.39-2.41,5.59,5.59,0,0,1-1.22-3.56,9.26,9.26,0,0,1,.08-1h6.76a2.42,2.42,0,0,0,.76,2,3.44,3.44,0,0,0,2.4.76,4.3,4.3,0,0,0,2.17-.49,1.53,1.53,0,0,0-.06-2.78,19.76,19.76,0,0,0-3.06-1.26,32.35,32.35,0,0,1-3.71-1.46,7.31,7.31,0,0,1-2.56-2.08,5.39,5.39,0,0,1-1.06-3.42,6,6,0,0,1,1.19-3.65A7.68,7.68,0,0,1,363,304a12.61,12.61,0,0,1,5-.91,12.06,12.06,0,0,1,4.92.93,7.7,7.7,0,0,1,3.24,2.57,6.38,6.38,0,0,1,1.14,3.71l0,.62h-6.35a2.33,2.33,0,0,0-.74-2,3.4,3.4,0,0,0-2.34-.74,3.47,3.47,0,0,0-1.94.5,1.52,1.52,0,0,0-.76,1.35,1.74,1.74,0,0,0,1,1.51,18.74,18.74,0,0,0,3.14,1.34,29.42,29.42,0,0,1,3.67,1.46,7.37,7.37,0,0,1,2.5,2,5,5,0,0,1,1,3.23,5.8,5.8,0,0,1-1.33,3.83,8.27,8.27,0,0,1-3.65,2.45,15.12,15.12,0,0,1-5.26.85A12.84,12.84,0,0,1,361.35,325.85Z"/><path class="cls-1" d="M392.11,308.63a13.1,13.1,0,0,1,4.35-4.12,10.71,10.71,0,0,1,5.37-1.44,8.06,8.06,0,0,1,4,.95,5.8,5.8,0,0,1,2.48,2.55l1.88-10.67h7l-5.37,30.49h-7l.58-3.3a9.64,9.64,0,0,1-7.67,3.63,8.2,8.2,0,0,1-4.28-1.11,7.63,7.63,0,0,1-2.92-3.18,10.6,10.6,0,0,1-1-4.82,17.37,17.37,0,0,1,.24-2.76A15.91,15.91,0,0,1,392.11,308.63ZM407,313.54a4.3,4.3,0,0,0-1.16-3.18,4.1,4.1,0,0,0-3-1.15,5.68,5.68,0,0,0-3.81,1.5,6.84,6.84,0,0,0-2.17,4.14,8.65,8.65,0,0,0-.12,1.36,4.34,4.34,0,0,0,1.16,3.2,4,4,0,0,0,2.93,1.17,5.66,5.66,0,0,0,3.82-1.52,7.18,7.18,0,0,0,2.21-4.16A8.65,8.65,0,0,0,407,313.54Z"/><path class="cls-1" d="M420,308.63a13.07,13.07,0,0,1,4.34-4.12,10.76,10.76,0,0,1,5.37-1.44,7.71,7.71,0,0,1,4.06,1,5.83,5.83,0,0,1,2.38,2.6l.57-3.26h7l-4.05,23h-7l.61-3.26a9.67,9.67,0,0,1-3.32,2.6,9.9,9.9,0,0,1-4.43,1,8.2,8.2,0,0,1-4.28-1.11,7.56,7.56,0,0,1-2.89-3.16,10.41,10.41,0,0,1-1-4.79,17.74,17.74,0,0,1,.25-2.81A15.91,15.91,0,0,1,420,308.63Zm14.84,4.91a4.27,4.27,0,0,0-1.17-3.18,4.09,4.09,0,0,0-3-1.15,5.64,5.64,0,0,0-3.81,1.5,6.85,6.85,0,0,0-2.18,4.14,8.65,8.65,0,0,0-.12,1.36,4.34,4.34,0,0,0,1.17,3.2,4,4,0,0,0,2.93,1.17,5.65,5.65,0,0,0,3.81-1.52,7.13,7.13,0,0,0,2.22-4.16A8.65,8.65,0,0,0,434.79,313.54Z"/><path class="cls-1" d="M465.21,303.4l-4,23h-7l4-23Zm-5.64-3.27a2.93,2.93,0,0,1-1-2.25,4.15,4.15,0,0,1,1.43-3.17,5,5,0,0,1,3.49-1.32,3.63,3.63,0,0,1,2.58.89,3,3,0,0,1,.94,2.28,4.11,4.11,0,0,1-1.43,3.13,4.93,4.93,0,0,1-3.45,1.32A3.69,3.69,0,0,1,459.57,300.13Z"/><path class="cls-1" d="M489.68,305.09a7.24,7.24,0,0,1,2,5.4,13,13,0,0,1-.25,2.47L489,326.39h-7l2.21-12.48a7.47,7.47,0,0,0,.12-1.24,3.62,3.62,0,0,0-1-2.68,3.67,3.67,0,0,0-2.69-.94,4.91,4.91,0,0,0-3.44,1.27,6.13,6.13,0,0,0-1.8,3.59v-.21l-2.22,12.69h-7l4-23h7l-.53,3.09a10.11,10.11,0,0,1,3.3-2.43,9.91,9.91,0,0,1,4.2-.91A7.37,7.37,0,0,1,489.68,305.09Z"/><path class="cls-1" d="M499.11,325.52a8.55,8.55,0,0,1-3.55-3.37,10.08,10.08,0,0,1-1.25-5.07,14.06,14.06,0,0,1,1.85-7.13,13.29,13.29,0,0,1,5.08-5,14.34,14.34,0,0,1,7.22-1.84,11.15,11.15,0,0,1,5.26,1.22,8.73,8.73,0,0,1,3.59,3.4,9.83,9.83,0,0,1,1.27,5.06,13.94,13.94,0,0,1-1.86,7.15,13.35,13.35,0,0,1-5.13,5,14.69,14.69,0,0,1-7.23,1.81A11.16,11.16,0,0,1,499.11,325.52Zm9.33-5.91a7,7,0,0,0,2.13-2.72,8.39,8.39,0,0,0,.76-3.48,4.29,4.29,0,0,0-1.11-3.17,3.78,3.78,0,0,0-2.79-1.11,4.84,4.84,0,0,0-3.09,1.05,6.9,6.9,0,0,0-2.07,2.74,8.58,8.58,0,0,0-.74,3.54,4.26,4.26,0,0,0,1.06,3.11,3.67,3.67,0,0,0,2.75,1.09A5,5,0,0,0,508.44,319.61Z"/><path class="cls-1" d="M531.46,319.8l7.87-16.4h7.5l-12.18,23H526l-4.06-23h7.46Z"/><path class="cls-1" d="M548.75,308.63a13.2,13.2,0,0,1,4.35-4.12,10.71,10.71,0,0,1,5.37-1.44,7.73,7.73,0,0,1,4.06,1,5.89,5.89,0,0,1,2.38,2.6l.57-3.26h7l-4.06,23h-7l.62-3.26a9.76,9.76,0,0,1-3.32,2.6,9.9,9.9,0,0,1-4.43,1,8.2,8.2,0,0,1-4.28-1.11,7.5,7.5,0,0,1-2.89-3.16,10.41,10.41,0,0,1-1-4.79,16.64,16.64,0,0,1,.25-2.81A15.9,15.9,0,0,1,548.75,308.63Zm14.85,4.91a4.27,4.27,0,0,0-1.17-3.18,4.09,4.09,0,0,0-3-1.15,5.68,5.68,0,0,0-3.82,1.5,6.84,6.84,0,0,0-2.17,4.14,8.65,8.65,0,0,0-.12,1.36,4.38,4.38,0,0,0,1.16,3.2,4,4,0,0,0,2.94,1.17,5.65,5.65,0,0,0,3.81-1.52,7.12,7.12,0,0,0,2.21-4.16A8.74,8.74,0,0,0,563.6,313.54Z"/><path class="cls-1" d="M588.56,318.07h7.5a14.13,14.13,0,0,1-4.14,5.72,12.49,12.49,0,0,1-6.27,2.76l-.29,1.53a5.55,5.55,0,0,1,3.22.92,3.17,3.17,0,0,1,1.33,2.79,4.32,4.32,0,0,1-.08,1,5.08,5.08,0,0,1-2.29,3.57,7.65,7.65,0,0,1-4.23,1.21H577l.7-3.87H583a2.77,2.77,0,0,0,1.29-.25,1,1,0,0,0,.55-.82c.08-.39,0-.65-.25-.8a2.23,2.23,0,0,0-1.18-.23h-2.91l.9-5a8.78,8.78,0,0,1-5.5-2.94,9.07,9.07,0,0,1-2-6.08,16.09,16.09,0,0,1,2.78-8.9,13.31,13.31,0,0,1,4.78-4.12,13.57,13.57,0,0,1,6.21-1.44,9.73,9.73,0,0,1,6.8,2.27,8.66,8.66,0,0,1,2.67,6.38h-7.46a2.9,2.9,0,0,0-3.2-2.63,4.39,4.39,0,0,0-3.32,1.5,8.32,8.32,0,0,0-1.89,4.31,10.51,10.51,0,0,0-.16,1.81,4.35,4.35,0,0,0,.9,3,3.09,3.09,0,0,0,2.46,1A4.32,4.32,0,0,0,588.56,318.07Z"/><path class="cls-1" d="M601.39,308.63a13,13,0,0,1,4.35-4.12,10.71,10.71,0,0,1,5.37-1.44,7.75,7.75,0,0,1,4.06,1,5.87,5.87,0,0,1,2.37,2.6l.58-3.26h7l-4.06,23h-7l.61-3.26a9.67,9.67,0,0,1-3.32,2.6,9.86,9.86,0,0,1-4.42,1,8.23,8.23,0,0,1-4.29-1.11,7.56,7.56,0,0,1-2.89-3.16,10.54,10.54,0,0,1-1-4.79,17.68,17.68,0,0,1,.24-2.81A15.91,15.91,0,0,1,601.39,308.63Zm14.84,4.91a4.27,4.27,0,0,0-1.17-3.18,4.07,4.07,0,0,0-3-1.15,5.68,5.68,0,0,0-3.81,1.5,6.84,6.84,0,0,0-2.17,4.14,7.67,7.67,0,0,0-.13,1.36,4.34,4.34,0,0,0,1.17,3.2,4,4,0,0,0,2.93,1.17,5.66,5.66,0,0,0,3.82-1.52,7.18,7.18,0,0,0,2.21-4.16A8.65,8.65,0,0,0,616.23,313.54Zm-3.44-18.38a4.11,4.11,0,0,1,1.56.27,9.61,9.61,0,0,1,1.47.8,5.8,5.8,0,0,0,1.07.6,2.5,2.5,0,0,0,.94.19c1,0,1.74-.62,2.09-1.86h3.61q-2,6.1-6.72,6.1a4.11,4.11,0,0,1-1.56-.27,8.86,8.86,0,0,1-1.48-.8,6.42,6.42,0,0,0-1.06-.6,2.55,2.55,0,0,0-1-.18c-1,0-1.69.61-2.13,1.85h-3.56C607.4,297.2,609.65,295.16,612.79,295.16Z"/><path class="cls-1" d="M631.36,325.52a8.55,8.55,0,0,1-3.55-3.37,10.08,10.08,0,0,1-1.25-5.07,14.06,14.06,0,0,1,1.85-7.13,13.29,13.29,0,0,1,5.08-5,14.31,14.31,0,0,1,7.22-1.84,11.15,11.15,0,0,1,5.26,1.22,8.73,8.73,0,0,1,3.59,3.4,9.83,9.83,0,0,1,1.27,5.06A13.94,13.94,0,0,1,649,319.9a13.42,13.42,0,0,1-5.13,5,14.69,14.69,0,0,1-7.23,1.81A11.16,11.16,0,0,1,631.36,325.52Zm9.32-5.91a7,7,0,0,0,2.14-2.72,8.39,8.39,0,0,0,.76-3.48,4.29,4.29,0,0,0-1.11-3.17,3.78,3.78,0,0,0-2.79-1.11,4.82,4.82,0,0,0-3.09,1.05,6.9,6.9,0,0,0-2.07,2.74,8.58,8.58,0,0,0-.74,3.54,4.26,4.26,0,0,0,1.06,3.11,3.67,3.67,0,0,0,2.75,1.09A4.94,4.94,0,0,0,640.68,319.61Z"/><path class="cls-1" d="M683,305.48a8.51,8.51,0,0,1,2.61,6.57,12.64,12.64,0,0,1-.21,2.43,15.93,15.93,0,0,1-.49,2H669.07a6.77,6.77,0,0,0,0,.78,3.64,3.64,0,0,0,1,2.76,3.58,3.58,0,0,0,2.62.95,4.47,4.47,0,0,0,4-2.22h7.46a12.7,12.7,0,0,1-4.8,5.72,13,13,0,0,1-7.46,2.23,10,10,0,0,1-7.07-2.47,8.77,8.77,0,0,1-2.64-6.72,16.09,16.09,0,0,1,2.78-8.9,13.29,13.29,0,0,1,4.8-4.12,13.76,13.76,0,0,1,6.27-1.44A10,10,0,0,1,683,305.48Zm-4.4,6.66a3.19,3.19,0,0,0-1-2.54,4,4,0,0,0-2.7-.88,4.93,4.93,0,0,0-3.18,1.09,6.08,6.08,0,0,0-2,3.11h8.81A6.46,6.46,0,0,0,678.63,312.14Z"/><path class="cls-1" d="M33.53,363.34a2.6,2.6,0,0,0,0,.53,1.25,1.25,0,0,0,.43,1.07,2.36,2.36,0,0,0,1.41.33h2.5l-1.06,6H33.2q-6.89,0-6.88-5.81a14,14,0,0,1,.2-2.18l1.64-9.15H25.37l1-5.85h2.78l1-5.6h7l-1,5.6h4.59l-1,5.85H35.17Z"/><path class="cls-1" d="M62,350.34a8.51,8.51,0,0,1,2.6,6.57,12.7,12.7,0,0,1-.2,2.43,18.38,18.38,0,0,1-.49,2H48a5,5,0,0,0,0,.78,3.67,3.67,0,0,0,1,2.76,3.6,3.6,0,0,0,2.63,1,4.45,4.45,0,0,0,4-2.22h7.47a12.83,12.83,0,0,1-4.8,5.72,13,13,0,0,1-7.46,2.23,10,10,0,0,1-7.07-2.47,8.74,8.74,0,0,1-2.65-6.72,15.28,15.28,0,0,1,.25-2.64,14.93,14.93,0,0,1,2.54-6.26,13,13,0,0,1,4.8-4.12,13.76,13.76,0,0,1,6.27-1.44A9.94,9.94,0,0,1,62,350.34ZM57.55,357a3.18,3.18,0,0,0-1-2.53,4,4,0,0,0-2.71-.89,4.93,4.93,0,0,0-3.17,1.1,6,6,0,0,0-2,3.11h8.81A5.75,5.75,0,0,0,57.55,357Z"/><path class="cls-1" d="M69.11,353.49a13.21,13.21,0,0,1,4.78-4.12,13.57,13.57,0,0,1,6.21-1.44,9.78,9.78,0,0,1,6.81,2.27,8.7,8.7,0,0,1,2.66,6.38H82.11a2.89,2.89,0,0,0-3.2-2.63,4.39,4.39,0,0,0-3.32,1.5,8.24,8.24,0,0,0-1.88,4.3,9.69,9.69,0,0,0-.17,1.82,4.35,4.35,0,0,0,.9,3,3.09,3.09,0,0,0,2.46,1A4.34,4.34,0,0,0,81,362.93h7.5a13.54,13.54,0,0,1-4.92,6.34A12.94,12.94,0,0,1,76,371.58a9.85,9.85,0,0,1-7-2.45,8.75,8.75,0,0,1-2.6-6.7,16,16,0,0,1,.24-2.68A14.93,14.93,0,0,1,69.11,353.49Z"/><path class="cls-1" d="M114.13,350a7.23,7.23,0,0,1,2,5.4,13.91,13.91,0,0,1-.24,2.47l-2.38,13.43h-7l2.21-12.48a6.62,6.62,0,0,0,.13-1.24,3.57,3.57,0,0,0-1-2.68,3.65,3.65,0,0,0-2.68-1,4.89,4.89,0,0,0-3.44,1.28,6.14,6.14,0,0,0-1.81,3.59v-.21l-2.21,12.69h-7l4-23h7l-.54,3.09a10,10,0,0,1,7.5-3.34A7.41,7.41,0,0,1,114.13,350Z"/><path class="cls-1" d="M123.55,370.38A8.43,8.43,0,0,1,120,367a9.92,9.92,0,0,1-1.25-5.06,14.06,14.06,0,0,1,1.84-7.13,13.42,13.42,0,0,1,5.09-5.05,14.39,14.39,0,0,1,7.21-1.83,11.19,11.19,0,0,1,5.27,1.22,8.83,8.83,0,0,1,3.59,3.39,10,10,0,0,1,1.27,5.07,13.85,13.85,0,0,1-1.87,7.15,13.23,13.23,0,0,1-5.12,5,14.63,14.63,0,0,1-7.24,1.82A11.16,11.16,0,0,1,123.55,370.38Zm9.33-5.91a6.93,6.93,0,0,0,2.13-2.72,8.24,8.24,0,0,0,.76-3.48,4.33,4.33,0,0,0-1.1-3.17,3.78,3.78,0,0,0-2.79-1.11,4.86,4.86,0,0,0-3.1,1.05,6.9,6.9,0,0,0-2.07,2.74,8.74,8.74,0,0,0-.74,3.54,4.27,4.27,0,0,0,1.07,3.11,3.67,3.67,0,0,0,2.75,1.09A5,5,0,0,0,132.88,364.47Z"/><path class="cls-1" d="M156.84,340.76l-5.37,30.49h-7l5.37-30.49Z"/><path class="cls-1" d="M161.76,370.38a8.43,8.43,0,0,1-3.54-3.38,9.92,9.92,0,0,1-1.25-5.06,14.06,14.06,0,0,1,1.84-7.13,13.46,13.46,0,0,1,5.08-5.05,14.43,14.43,0,0,1,7.22-1.83,11.19,11.19,0,0,1,5.27,1.22,8.74,8.74,0,0,1,3.58,3.39,9.89,9.89,0,0,1,1.28,5.07,14,14,0,0,1-1.87,7.15,13.23,13.23,0,0,1-5.12,5,14.66,14.66,0,0,1-7.24,1.82A11.16,11.16,0,0,1,161.76,370.38Zm9.33-5.91a7.11,7.11,0,0,0,2.13-2.72,8.24,8.24,0,0,0,.76-3.48,4.29,4.29,0,0,0-1.11-3.17,3.77,3.77,0,0,0-2.79-1.11A4.86,4.86,0,0,0,167,355a6.9,6.9,0,0,0-2.07,2.74,8.74,8.74,0,0,0-.74,3.54,4.27,4.27,0,0,0,1.07,3.11,3.65,3.65,0,0,0,2.74,1.09A5,5,0,0,0,171.09,364.47Z"/><path class="cls-1" d="M199.56,348.92a5.35,5.35,0,0,1,2.34,2.59l.57-3.25h7l-4,22.95a15.19,15.19,0,0,1-2.27,5.74,12.26,12.26,0,0,1-4.55,4.1,13.79,13.79,0,0,1-6.62,1.53c-3.39,0-6-.81-7.83-2.41a7.51,7.51,0,0,1-2.46-6.53h6.93a2.72,2.72,0,0,0,1.21,2.08,5,5,0,0,0,2.89.76,5.62,5.62,0,0,0,3.69-1.26,6.43,6.43,0,0,0,2-4L199,368a10.33,10.33,0,0,1-3.3,2.62,9.66,9.66,0,0,1-4.41,1,8.11,8.11,0,0,1-4.28-1.12,7.46,7.46,0,0,1-2.91-3.17,10.47,10.47,0,0,1-1-4.82,16.34,16.34,0,0,1,.25-2.76,15.76,15.76,0,0,1,2.42-6.22,13,13,0,0,1,4.34-4.12,10.76,10.76,0,0,1,5.37-1.44A8,8,0,0,1,199.56,348.92Zm1,9.47a4.26,4.26,0,0,0-1.17-3.17,4,4,0,0,0-3-1.15,5.68,5.68,0,0,0-3.82,1.5,6.84,6.84,0,0,0-2.17,4.14,8.65,8.65,0,0,0-.12,1.36,4.34,4.34,0,0,0,1.16,3.19,4,4,0,0,0,2.94,1.18,5.61,5.61,0,0,0,3.81-1.53,7.06,7.06,0,0,0,2.21-4.16A8.52,8.52,0,0,0,200.59,358.39Z"/><path class="cls-1" d="M221.53,348.26l-4,23h-7l4-23ZM215.9,345a2.9,2.9,0,0,1-1-2.25,4.14,4.14,0,0,1,1.44-3.17,5,5,0,0,1,3.48-1.32,3.64,3.64,0,0,1,2.59.89,3,3,0,0,1,.94,2.28,4.11,4.11,0,0,1-1.44,3.13,4.89,4.89,0,0,1-3.44,1.32A3.69,3.69,0,0,1,215.9,345Z"/><path class="cls-1" d="M225.67,353.49a13,13,0,0,1,4.35-4.12,10.71,10.71,0,0,1,5.37-1.44,7.73,7.73,0,0,1,4.06,1,5.92,5.92,0,0,1,2.38,2.59l.57-3.25h7l-4.06,23h-7L239,368a9.93,9.93,0,0,1-7.75,3.59,8.17,8.17,0,0,1-4.29-1.12,7.54,7.54,0,0,1-2.89-3.15,10.61,10.61,0,0,1-1-4.8,17.65,17.65,0,0,1,.24-2.8A16.07,16.07,0,0,1,225.67,353.49Zm14.84,4.9a4.29,4.29,0,0,0-1.16-3.17,4.06,4.06,0,0,0-3-1.15,5.68,5.68,0,0,0-3.81,1.5,6.84,6.84,0,0,0-2.17,4.14,8.65,8.65,0,0,0-.12,1.36,4.34,4.34,0,0,0,1.16,3.19,4,4,0,0,0,2.94,1.18,5.61,5.61,0,0,0,3.81-1.53,7.06,7.06,0,0,0,2.21-4.16A8.45,8.45,0,0,0,240.51,358.39Z"/><path class="cls-1" d="M283.31,350a7.24,7.24,0,0,1,2,5.4,13.09,13.09,0,0,1-.25,2.47l-2.37,13.43h-7l2.21-12.48a7.47,7.47,0,0,0,.12-1.24,3.6,3.6,0,0,0-1-2.68,3.67,3.67,0,0,0-2.68-1,4.93,4.93,0,0,0-3.45,1.28,6.13,6.13,0,0,0-1.8,3.59v-.21l-2.22,12.69h-7l4-23h7l-.53,3.09a10,10,0,0,1,7.5-3.34A7.37,7.37,0,0,1,283.31,350Z"/><path class="cls-1" d="M292.74,370.38A8.43,8.43,0,0,1,289.2,367a9.92,9.92,0,0,1-1.25-5.06,14.06,14.06,0,0,1,1.84-7.13,13.39,13.39,0,0,1,5.08-5.05,14.43,14.43,0,0,1,7.22-1.83,11.19,11.19,0,0,1,5.27,1.22,8.74,8.74,0,0,1,3.58,3.39,9.89,9.89,0,0,1,1.27,5.07,13.94,13.94,0,0,1-1.86,7.15,13.25,13.25,0,0,1-5.13,5,14.59,14.59,0,0,1-7.23,1.82A11.16,11.16,0,0,1,292.74,370.38Zm9.33-5.91a7.11,7.11,0,0,0,2.13-2.72,8.24,8.24,0,0,0,.76-3.48,4.29,4.29,0,0,0-1.11-3.17,3.78,3.78,0,0,0-2.79-1.11A4.86,4.86,0,0,0,298,355a6.9,6.9,0,0,0-2.07,2.74,8.74,8.74,0,0,0-.74,3.54,4.23,4.23,0,0,0,1.07,3.11,3.65,3.65,0,0,0,2.74,1.09A5,5,0,0,0,302.07,364.47Z"/><path class="cls-1" d="M362.17,350a7.14,7.14,0,0,1,2.07,5.46,12.7,12.7,0,0,1-.25,2.39l-2.38,13.43h-7l2.22-12.48a6.54,6.54,0,0,0,.08-1.12,3.44,3.44,0,0,0-1-2.63,3.76,3.76,0,0,0-2.69-.91,5,5,0,0,0-3.44,1.22,5.6,5.6,0,0,0-1.77,3.44l-2.21,12.48h-7l2.22-12.48a6.54,6.54,0,0,0,.08-1.12,3.41,3.41,0,0,0-1-2.63,3.72,3.72,0,0,0-2.68-.91,5,5,0,0,0-3.44,1.22,5.6,5.6,0,0,0-1.77,3.44v-.21l-2.21,12.69h-7l4-23h7l-.5,2.93a9.36,9.36,0,0,1,3.18-2.33,9.75,9.75,0,0,1,4-.85,8.33,8.33,0,0,1,4.45,1.12,6.15,6.15,0,0,1,2.6,3.21,11.6,11.6,0,0,1,3.77-3.13,9.94,9.94,0,0,1,4.72-1.2A8.07,8.07,0,0,1,362.17,350Z"/><path class="cls-1" d="M393.14,348.26l-4,23h-7l.53-3.13a10.31,10.31,0,0,1-3.3,2.45,9.48,9.48,0,0,1-4.16.92,6.79,6.79,0,0,1-7.38-7.41,12.43,12.43,0,0,1,.21-2.39l2.38-13.43h7l-2.18,12.48a7.18,7.18,0,0,0-.12,1.28,3.54,3.54,0,0,0,1,2.66,3.77,3.77,0,0,0,2.69.92,5,5,0,0,0,3.34-1.17,5.8,5.8,0,0,0,1.82-3.36l2.26-12.81Z"/><path class="cls-1" d="M417.57,350a7.24,7.24,0,0,1,2,5.4,13.09,13.09,0,0,1-.25,2.47l-2.37,13.43h-7l2.21-12.48a7.47,7.47,0,0,0,.12-1.24,3.6,3.6,0,0,0-1-2.68,3.68,3.68,0,0,0-2.69-1,4.92,4.92,0,0,0-3.44,1.28,6.13,6.13,0,0,0-1.8,3.59v-.21l-2.22,12.69h-7l4-23h7l-.53,3.09a10,10,0,0,1,7.5-3.34A7.37,7.37,0,0,1,417.57,350Z"/><path class="cls-1" d="M424.87,353.49a13,13,0,0,1,4.34-4.12,10.76,10.76,0,0,1,5.37-1.44,8,8,0,0,1,4,.95,5.8,5.8,0,0,1,2.48,2.55l1.89-10.67h7l-5.37,30.49h-7l.57-3.3a9.64,9.64,0,0,1-7.67,3.63,8.11,8.11,0,0,1-4.28-1.12,7.58,7.58,0,0,1-2.91-3.17,10.47,10.47,0,0,1-1-4.82,17.37,17.37,0,0,1,.24-2.76A15.91,15.91,0,0,1,424.87,353.49Zm14.84,4.9a4.26,4.26,0,0,0-1.17-3.17,4,4,0,0,0-3-1.15,5.66,5.66,0,0,0-3.81,1.5,6.85,6.85,0,0,0-2.18,4.14,8.65,8.65,0,0,0-.12,1.36,4.31,4.31,0,0,0,1.17,3.19,3.93,3.93,0,0,0,2.93,1.18,5.61,5.61,0,0,0,3.81-1.53,7.07,7.07,0,0,0,2.22-4.16A8.45,8.45,0,0,0,439.71,358.39Z"/><path class="cls-1" d="M454.84,370.38a8.4,8.4,0,0,1-3.55-3.38,10,10,0,0,1-1.25-5.06,14.06,14.06,0,0,1,1.84-7.13,13.42,13.42,0,0,1,5.09-5.05,14.39,14.39,0,0,1,7.21-1.83,11.16,11.16,0,0,1,5.27,1.22,8.77,8.77,0,0,1,3.59,3.39,10,10,0,0,1,1.27,5.07,13.85,13.85,0,0,1-1.87,7.15,13.23,13.23,0,0,1-5.12,5,14.63,14.63,0,0,1-7.24,1.82A11.15,11.15,0,0,1,454.84,370.38Zm9.32-5.91a6.93,6.93,0,0,0,2.13-2.72,8.24,8.24,0,0,0,.76-3.48,4.33,4.33,0,0,0-1.1-3.17,3.78,3.78,0,0,0-2.79-1.11,4.86,4.86,0,0,0-3.1,1.05,6.9,6.9,0,0,0-2.07,2.74,8.74,8.74,0,0,0-.74,3.54,4.27,4.27,0,0,0,1.07,3.11,3.67,3.67,0,0,0,2.75,1.09A5,5,0,0,0,464.16,364.47Z"/><path class="cls-1" d="M488.29,353.49a13,13,0,0,1,4.34-4.12,10.76,10.76,0,0,1,5.37-1.44,8,8,0,0,1,4,.95,5.8,5.8,0,0,1,2.48,2.55l1.89-10.67h7L508,371.25h-7l.57-3.3a9.64,9.64,0,0,1-7.67,3.63,8.11,8.11,0,0,1-4.28-1.12,7.58,7.58,0,0,1-2.91-3.17,10.47,10.47,0,0,1-1.05-4.82,17.45,17.45,0,0,1,.25-2.76A15.76,15.76,0,0,1,488.29,353.49Zm14.84,4.9a4.26,4.26,0,0,0-1.17-3.17,4,4,0,0,0-3-1.15,5.64,5.64,0,0,0-3.81,1.5,6.85,6.85,0,0,0-2.18,4.14,8.65,8.65,0,0,0-.12,1.36,4.31,4.31,0,0,0,1.17,3.19,3.93,3.93,0,0,0,2.93,1.18,5.61,5.61,0,0,0,3.81-1.53,7.07,7.07,0,0,0,2.22-4.16A8.45,8.45,0,0,0,503.13,358.39Z"/><path class="cls-1" d="M518.25,370.38a8.43,8.43,0,0,1-3.54-3.38,10,10,0,0,1-1.25-5.06,14.06,14.06,0,0,1,1.84-7.13,13.42,13.42,0,0,1,5.09-5.05,14.39,14.39,0,0,1,7.21-1.83,11.16,11.16,0,0,1,5.27,1.22,8.83,8.83,0,0,1,3.59,3.39,10,10,0,0,1,1.27,5.07,13.85,13.85,0,0,1-1.87,7.15,13.23,13.23,0,0,1-5.12,5,14.63,14.63,0,0,1-7.24,1.82A11.19,11.19,0,0,1,518.25,370.38Zm9.33-5.91a6.93,6.93,0,0,0,2.13-2.72,8.24,8.24,0,0,0,.76-3.48,4.33,4.33,0,0,0-1.1-3.17,3.78,3.78,0,0,0-2.79-1.11,4.86,4.86,0,0,0-3.1,1.05,6.9,6.9,0,0,0-2.07,2.74,8.74,8.74,0,0,0-.74,3.54,4.27,4.27,0,0,0,1.07,3.11,3.67,3.67,0,0,0,2.75,1.09A5,5,0,0,0,527.58,364.47Z"/><path class="cls-1" d="M558.14,363.34a3.59,3.59,0,0,0,0,.53,1.27,1.27,0,0,0,.43,1.07,2.37,2.37,0,0,0,1.42.33h2.5l-1.07,6h-3.56q-6.9,0-6.89-5.81a15.37,15.37,0,0,1,.2-2.18l1.64-9.15H550l1-5.85h2.79l1-5.6h7l-1,5.6h4.59l-1,5.85h-4.6Z"/><path class="cls-1" d="M579.24,349.19a8.57,8.57,0,0,1,4.32-1.18l-1.31,7.46h-1.93a6.8,6.8,0,0,0-4.14,1.13,6,6,0,0,0-2,4l-1.88,10.67h-7l4-23h7l-.73,4.16A12.17,12.17,0,0,1,579.24,349.19Z"/><path class="cls-1" d="M585.9,353.49a13,13,0,0,1,4.34-4.12,10.76,10.76,0,0,1,5.37-1.44,7.73,7.73,0,0,1,4.06,1,5.87,5.87,0,0,1,2.38,2.59l.57-3.25h7l-4.06,23h-7l.62-3.26a9.93,9.93,0,0,1-7.75,3.59,8.11,8.11,0,0,1-4.28-1.12,7.42,7.42,0,0,1-2.89-3.15,10.48,10.48,0,0,1-1-4.8,16.61,16.61,0,0,1,.25-2.8A15.76,15.76,0,0,1,585.9,353.49Zm14.84,4.9a4.26,4.26,0,0,0-1.17-3.17,4,4,0,0,0-3-1.15,5.68,5.68,0,0,0-3.82,1.5,6.89,6.89,0,0,0-2.17,4.14,8.65,8.65,0,0,0-.12,1.36,4.31,4.31,0,0,0,1.17,3.19,3.93,3.93,0,0,0,2.93,1.18,5.61,5.61,0,0,0,3.81-1.53,7,7,0,0,0,2.21-4.16A7.5,7.5,0,0,0,600.74,358.39Z"/><path class="cls-1" d="M624.43,348.92a9.79,9.79,0,0,1,4.39-1,7.79,7.79,0,0,1,6,2.41,9.18,9.18,0,0,1,2.28,6.57,16.52,16.52,0,0,1-.25,2.8,15.85,15.85,0,0,1-2.42,6.24,13,13,0,0,1-4.34,4.16,10.59,10.59,0,0,1-5.37,1.47,7.9,7.9,0,0,1-4.06-1,5.74,5.74,0,0,1-2.38-2.58l-.57,3.22h-7L616,340.76h7l-1.93,10.75A9.86,9.86,0,0,1,624.43,348.92Zm5.41,9.52a4.32,4.32,0,0,0-1.17-3.22,4,4,0,0,0-3-1.15,5.65,5.65,0,0,0-3.81,1.52,7.07,7.07,0,0,0-2.21,4.16,7.67,7.67,0,0,0-.13,1.36,4.34,4.34,0,0,0,1.15,3.18,4,4,0,0,0,2.95,1.15,5.68,5.68,0,0,0,3.84-1.55,7.15,7.15,0,0,0,2.23-4.18A7.52,7.52,0,0,0,629.84,358.44Z"/><path class="cls-1" d="M641.57,353.49a13,13,0,0,1,4.34-4.12,10.76,10.76,0,0,1,5.37-1.44,7.73,7.73,0,0,1,4.06,1,5.87,5.87,0,0,1,2.38,2.59l.57-3.25h7l-4.06,23h-7l.62-3.26a9.93,9.93,0,0,1-7.75,3.59,8.11,8.11,0,0,1-4.28-1.12,7.42,7.42,0,0,1-2.89-3.15,10.48,10.48,0,0,1-1-4.8,16.61,16.61,0,0,1,.25-2.8A15.76,15.76,0,0,1,641.57,353.49Zm14.84,4.9a4.26,4.26,0,0,0-1.17-3.17,4,4,0,0,0-3-1.15,5.68,5.68,0,0,0-3.82,1.5,6.89,6.89,0,0,0-2.17,4.14,8.65,8.65,0,0,0-.12,1.36,4.31,4.31,0,0,0,1.17,3.19,3.93,3.93,0,0,0,2.93,1.18,5.61,5.61,0,0,0,3.81-1.53,7,7,0,0,0,2.21-4.16A7.5,7.5,0,0,0,656.41,358.39Z"/><path class="cls-1" d="M678.71,340.76l-5.37,30.49h-7l5.37-30.49Z"/><path class="cls-1" d="M701.85,350a7.27,7.27,0,0,1,1.95,5.4,14,14,0,0,1-.25,2.47l-2.38,13.43h-7l2.22-12.48a7.47,7.47,0,0,0,.12-1.24,3.6,3.6,0,0,0-1-2.68,3.69,3.69,0,0,0-2.69-1,4.92,4.92,0,0,0-3.44,1.28,6.19,6.19,0,0,0-1.81,3.59v-.09l-2.21,12.57h-7l5.37-30.49h7L689,351.31a9.54,9.54,0,0,1,3.32-2.41,10.26,10.26,0,0,1,4.26-.89A7.21,7.21,0,0,1,701.85,350Z"/><path class="cls-1" d="M711.26,370.38a8.46,8.46,0,0,1-3.55-3.38,10,10,0,0,1-1.25-5.06,14.06,14.06,0,0,1,1.85-7.13,13.39,13.39,0,0,1,5.08-5.05,14.39,14.39,0,0,1,7.21-1.83,11.16,11.16,0,0,1,5.27,1.22,8.77,8.77,0,0,1,3.59,3.39,9.89,9.89,0,0,1,1.27,5.07,13.94,13.94,0,0,1-1.86,7.15,13.32,13.32,0,0,1-5.13,5,14.59,14.59,0,0,1-7.23,1.82A11.16,11.16,0,0,1,711.26,370.38Zm9.32-5.91a7,7,0,0,0,2.14-2.72,8.38,8.38,0,0,0,.75-3.48,4.29,4.29,0,0,0-1.1-3.17,3.78,3.78,0,0,0-2.79-1.11,4.82,4.82,0,0,0-3.09,1.05,6.9,6.9,0,0,0-2.07,2.74,8.58,8.58,0,0,0-.74,3.54,4.26,4.26,0,0,0,1.06,3.11,3.67,3.67,0,0,0,2.75,1.09A4.94,4.94,0,0,0,720.58,364.47Z"/><path class="cls-1" d="M202.61,117.06q1.38,12,7.79,18.27a21.93,21.93,0,0,0,15.91,6.23q7,0,11.08-3.87a13.52,13.52,0,0,0,4.07-10.25q0-9.69-13.09-14.81L214.87,107q-15.7-6.51-15.7-21.46a24,24,0,0,1,3.17-12.18,22.82,22.82,0,0,1,9.5-8.86,33,33,0,0,1,15.43-3.32,36.81,36.81,0,0,1,7.71.69,57.93,57.93,0,0,1,6.34,1.8q3.17,1.11,4.55,1.53A12.59,12.59,0,0,0,250,66a11.31,11.31,0,0,0,3.85-.56A96.65,96.65,0,0,0,253.44,76c0,2.68.05,4.62.14,5.82a12.38,12.38,0,0,0,.69,3.32h-4.69a17.93,17.93,0,0,0-5.85-13.91,20.43,20.43,0,0,0-14.26-5.33,16.73,16.73,0,0,0-10.88,3.46,11,11,0,0,0-4.27,9,10.13,10.13,0,0,0,2.83,7q2.82,3.11,9,5.6l11.71,5q10.74,4.71,15.35,10t4.62,14a26.73,26.73,0,0,1-3.44,13.49,24.4,24.4,0,0,1-10.2,9.55q-6.75,3.54-16.39,3.53a52.85,52.85,0,0,1-13.08-1.8q-7.86-2.07-10.75-2.07a25.08,25.08,0,0,0-3,.21,8,8,0,0,0-2.27.48,68.65,68.65,0,0,0,.55-10.66q0-5.53-.28-10.24c-.18-3.14-.46-4.8-.82-5Z"/><path class="cls-1" d="M313.84,91.8q7.5,6.86,7.64,19.45v5.12H281.81q0,11.91,4.34,18.13t13,6.37a19.17,19.17,0,0,0,11.16-3.25,19.94,19.94,0,0,0,6.88-8l3.72,2.63a22.63,22.63,0,0,1-10.12,10.52q-7,3.74-16.74,3.73-16.4,0-24-7.47T262.53,116q0-15.92,7.85-23.46T293.8,85Q306.32,85,313.84,91.8Zm-29.13,4Q282,102,282,111.8h18.32a2.37,2.37,0,0,0,2.07-1,6.6,6.6,0,0,0,.69-3.6q0-9-2.28-13.28a7.72,7.72,0,0,0-7.37-4.29C289.44,89.66,286.54,91.71,284.71,95.82Z"/><path class="cls-1" d="M432.5,140.45v4.71H401.37v-4.71l5,.28c1.19-.28,1.79-1.15,1.79-2.63V104.6q0-7-1-10.1a4.18,4.18,0,0,0-4.34-3q-3,0-6.41,3a23.54,23.54,0,0,0-5.71,8.86,38.33,38.33,0,0,0-2.48,13.7v21c0,1.75.6,2.63,1.79,2.63l4.82-.28v4.71h-31.4v-4.71l4.95.28c1.2-.28,1.79-1.15,1.79-2.63V104.6c0-4.89-.36-8.3-1.1-10.24a4.38,4.38,0,0,0-4.54-2.91c-1.93,0-4,1-6.13,2.91a23.47,23.47,0,0,0-5.58,8.38A38.21,38.21,0,0,0,350,115.68V138.1c0,1.85.6,2.72,1.8,2.63l4.95-.28v4.71H325.61v-4.71l4.55.28c1.19-.28,1.79-1.15,1.79-2.63V93.39c0-1.57-.6-2.49-1.79-2.77l-4.55.28V86.33h25.21a15,15,0,0,0-.69,4.71v7.75a23.56,23.56,0,0,1,8.27-10.17A22.12,22.12,0,0,1,371.21,85q7.44,0,11.5,3.46t5,11.21a23.64,23.64,0,0,1,8.4-10.86A22.41,22.41,0,0,1,409.22,85q8.82,0,12.88,4.77t4.07,15V138.1c0,1.75.59,2.63,1.79,2.63Z"/><path class="cls-1" d="M459.77,138.1c0,1.85.6,2.72,1.8,2.63l4.54-.28v4.71H435.39v-4.71l4.55.28h.28c1,0,1.51-.88,1.51-2.63V93.39c0-1.57-.55-2.49-1.65-2.77l-4.55.28V86.33h24.24Zm-1.72-81.53a7.55,7.55,0,0,1,3,6.23,7.69,7.69,0,0,1-3,6.37,13.61,13.61,0,0,1-15.29,0,7.72,7.72,0,0,1-3-6.37,7.58,7.58,0,0,1,3-6.23,13.61,13.61,0,0,1,15.29,0Z"/><path class="cls-1" d="M540.21,140.45v4.71h-31.4v-4.71l5.23.28c1.2-.28,1.79-1.15,1.79-2.63V104.6q0-7.18-1.17-10.17c-.78-2-2.54-3-5.3-3a10.36,10.36,0,0,0-7,3,22.21,22.21,0,0,0-5.57,9,41.1,41.1,0,0,0-2.21,14.25V138.1c0,1.75.6,2.63,1.79,2.63l5.37-.28v4.71H470.24v-4.71l4.55.28c1.19-.28,1.79-1.15,1.79-2.63V93.39c0-1.57-.6-2.49-1.79-2.77l-4.55.28V86.33h25.07a15.42,15.42,0,0,0-.69,4.85v7.75a24.12,24.12,0,0,1,8.47-10.31A22.46,22.46,0,0,1,516,85q9.36,0,13.64,4.77t4.27,15V138.1c0,1.75.59,2.63,1.79,2.63Z"/><path class="cls-1" d="M603.16,140.45v4.71H578.09a33.38,33.38,0,0,0,.55-5.12l.14-3.74q-6.06,9.55-19,9.55-8.67,0-13.15-3.94t-4.48-11.7a16,16,0,0,1,8.82-15q8.81-4.85,27.82-4.84v-9.69q0-5.26-1.79-8.17c-1.19-1.94-3.67-2.9-7.44-2.9-3.21,0-5.49.55-6.82,1.66a5,5,0,0,0-2,4,7,7,0,0,0,.68,3.18,11.91,11.91,0,0,1,.56,2.77,5.64,5.64,0,0,1-2.14,4.71,8.58,8.58,0,0,1-5.44,1.66,8.76,8.76,0,0,1-6.27-2.28,7.62,7.62,0,0,1-2.41-5.75q0-6.65,6.89-10.66t18.6-4q25.62,0,25.62,18.41V138.1c0,1.75.59,2.63,1.79,2.63ZM575,134a17.67,17.67,0,0,0,3.79-9.62v-9.14q-9.36,0-13.64,3.32t-4.27,10q0,9.13,6.75,9.14A9.37,9.37,0,0,0,575,134ZM590.08,61.7l-23,14.11a5.91,5.91,0,0,1-3.3,1.25c-1,0-1.52-.46-1.52-1.38s.74-2.17,2.21-3.74l13.08-14.4a25.46,25.46,0,0,1,2.82-2.9,3.58,3.58,0,0,1,2.14-.56A13,13,0,0,1,588.42,56q3.45,1.88,3.45,3.25C591.87,59.94,591.27,60.77,590.08,61.7Z"/><path class="cls-1" d="M656.4,88.41a11.65,11.65,0,0,1,3.79,9c0,2.77-.81,4.84-2.42,6.23a8.67,8.67,0,0,1-5.85,2.07,9.34,9.34,0,0,1-5.16-1.45,4.71,4.71,0,0,1-2.28-4.22,12.11,12.11,0,0,1,.55-2.91c.28-1.66.42-2.58.42-2.77,0-2-.88-3-2.62-3-2.39,0-4.52,1.36-6.41,4.08a30.87,30.87,0,0,0-4.33,10.17,53.54,53.54,0,0,0-1.66,11.77V138.1c0,1.75.6,2.63,1.79,2.63l9.51-.28v4.71h-35v-4.71l3.86.28c1.19,0,1.79-.88,1.79-2.63V93.39c0-1.84-.6-2.77-1.79-2.77l-4.41.28V86.33h25.07a16.85,16.85,0,0,0-.55,2.7,24.36,24.36,0,0,0-.28,3.67v6.37Q635.4,85,646.69,85A13.85,13.85,0,0,1,656.4,88.41Z"/><path class="cls-1" d="M686.77,138.1c0,1.85.6,2.72,1.79,2.63l4.55-.28v4.71H662.39v-4.71l4.54.28h.28c1,0,1.51-.88,1.51-2.63V93.39c0-1.57-.55-2.49-1.65-2.77l-4.54.28V86.33h24.24Zm-1.72-81.53a7.58,7.58,0,0,1,3,6.23,7.72,7.72,0,0,1-3,6.37,13.61,13.61,0,0,1-15.29,0,7.69,7.69,0,0,1-3-6.37,7.55,7.55,0,0,1,3-6.23,13.61,13.61,0,0,1,15.29,0Z"/><path class="cls-1" d="M705,92.84q7.71-7.89,23.14-7.89t23.14,7.89q7.57,7.89,7.58,22.84,0,30.87-30.72,30.86-15.44,0-23.14-7.89t-7.71-23Q697.24,100.73,705,92.84Zm14.26,43q2.68,5.88,8.88,5.88a9,9,0,0,0,8.82-5.81q2.61-5.82,2.61-19.94,0-14.39-2.61-20.34t-8.82-6q-6.2,0-8.88,6T716.52,116Q716.52,129.95,719.21,135.82Z"/><path class="cls-1" d="M153.66,77.7q-11.7-9.84-30.3-9.85a57.81,57.81,0,0,0-16.09,2.51,58.48,58.48,0,0,0-7.38,2.79,64.49,64.49,0,0,1-11.4,14.39Q82.7,93.21,74,100.23h0L84.71,91.6c7.83-6.31,10.79-8.75,15.46-10.79a34.67,34.67,0,0,1,9.18-2.61,38.81,38.81,0,0,1,4.42-.3Q139,77.9,139,108.24q0,14.46-4.8,22.3T118,138.38a19.77,19.77,0,0,1-10.6-2.72,8.91,8.91,0,0,1-4.4-8.13,16.74,16.74,0,0,1,.8-4.22,19.91,19.91,0,0,0,1.2-6,9.38,9.38,0,0,0-3.5-7.54,13.14,13.14,0,0,0-8.7-2.91,13.33,13.33,0,0,0-9.7,3.82q-3.9,3.82-3.89,10.45,0,12.66,12.09,18.38a62.06,62.06,0,0,0,26.9,5.73,58.28,58.28,0,0,0,24-4.82,39.69,39.69,0,0,0,17-13.87,36.73,36.73,0,0,0,6.2-21.3Q165.35,87.55,153.66,77.7Z"/><path class="cls-2" d="M158.32,35.76c.16-1.18.34-2.4.53-3.67.29-1.85.58-3.52.88-5A29.61,29.61,0,0,0,158.32,35.76Z"/><path class="cls-1" d="M141,40.39Q141,30,147.5,24.08c.33-.29.67-.56,1-.83H62.69L88.62,42.54H141C141,41.83,141,41.12,141,40.39Z"/><path class="cls-1" d="M79.66,125.81c-.79.07-1.57.11-2.35.11H39.52l26-19.09q4.59-3.47,8.56-6.67l-.09.08h0q6-4.8,10.59-9l.06,0,.77-.71.44-.41.74-.7.67-.62c.1-.11.21-.21.32-.31l.93-.91,1-1,.36-.37.58-.59.44-.47.45-.48.5-.54.36-.39.54-.61.26-.3.59-.68.15-.18a55.45,55.45,0,0,0,6.2-8.81h0c.31-.56.61-1.12.89-1.68a36.91,36.91,0,0,0,3.9-16.68q0-15.67-11.7-23.61T62.71,23.25a56,56,0,0,0-20.89,3.62q-9.1,3.61-14,9.64a20.28,20.28,0,0,0-4.9,13.06,14.79,14.79,0,0,0,3.6,10.25q3.6,4,10.2,4a14.47,14.47,0,0,0,8.69-2.51A8.46,8.46,0,0,0,48.91,54a34.34,34.34,0,0,0-.8-6,21.61,21.61,0,0,1-1-6A10.64,10.64,0,0,1,51,33.29a15.06,15.06,0,0,1,9.9-3.21,15.08,15.08,0,0,1,12.2,5.53q4.59,5.52,4.6,17,0,15.89-7.8,28t-22.2,25.82l-24.39,22.7.6,16.08h94.26a62,62,0,0,1-26.89-5.73Q81.57,134.89,79.66,125.81Z"/><path class="cls-1" d="M79.69,125.92H26.77l-3.45,3.21.6,16.08h94.26a62,62,0,0,1-26.89-5.73Q81.63,134.91,79.69,125.92Z"/><path class="cls-1" d="M151.64,27.78q5.06-4.52,13.8-4.52t14,4.46q5.12,4.46,5.12,12.63c0,5.29-1.69,9.41-5.06,12.39s-8.05,4.45-14.05,4.45q-9.24,0-14-4.7a16.23,16.23,0,0,1-4.81-12.14Q146.59,32.31,151.64,27.78ZM161,50.38a4.31,4.31,0,0,0,4.43,2.85,4.92,4.92,0,0,0,3.39-1,6.87,6.87,0,0,0,1.73-3.78,43.47,43.47,0,0,0,.55-8q0-7.55-1.17-10.4a4.42,4.42,0,0,0-4.5-2.85,4.33,4.33,0,0,0-4.37,3q-1.17,3-1.17,10.28T161,50.38Z"/><rect class="cls-1" x="150.17" y="61.38" width="30.8" height="3.01"/><path class="cls-1" d="M29.7,202.85q4-5,11.86-5a12.23,12.23,0,0,1,7,2,9.55,9.55,0,0,1,3.92,4.92V176.14c0-1.18-.38-1.77-1.15-1.77l-4.05.18v-2.84H64v60.16c0,1.12.38,1.68,1.15,1.68l2.91-.18v3H51.87a5.82,5.82,0,0,0,.18-1.42V233a9.7,9.7,0,0,1,.09-1.51,5.25,5.25,0,0,0,.09-.71,9.62,9.62,0,0,1-3.79,4.74,12.16,12.16,0,0,1-6.79,1.73q-8.55,0-12.26-4.78t-3.7-14.8Q25.69,207.86,29.7,202.85Zm8.91,24.06a9.25,9.25,0,0,0,2,4.78,5.15,5.15,0,0,0,4,1.51,6.29,6.29,0,0,0,5.86-3.33c1.26-2.21,1.9-5.53,1.9-10V216.1q0-6.73-2-10.5c-1.36-2.51-3.29-3.77-5.82-3.77q-3.53,0-5,4c-1,2.68-1.46,6.63-1.46,11.82A55.82,55.82,0,0,0,38.61,226.91Z"/><path class="cls-1" d="M103.32,202.23q4.8,4.4,4.89,12.45V218H82.82q0,7.62,2.78,11.6t8.33,4.08a12.19,12.19,0,0,0,7.14-2.08,12.77,12.77,0,0,0,4.41-5.1l2.38,1.69a14.55,14.55,0,0,1-6.48,6.73,22.41,22.41,0,0,1-10.71,2.39q-10.5,0-15.35-4.78t-4.84-14.8q0-10.19,5-15t15-4.83Q98.52,197.85,103.32,202.23ZM84.67,204.8A25.22,25.22,0,0,0,82.91,215H94.63a1.54,1.54,0,0,0,1.33-.62,4.34,4.34,0,0,0,.44-2.31q0-5.76-1.46-8.5a5,5,0,0,0-4.72-2.75C87.7,200.86,85.84,202.18,84.67,204.8Z"/><path class="cls-1" d="M129.72,233.11l3.09.18H133q1.5,0,1.5-1.95V188.55A2.32,2.32,0,0,0,134,187a1.89,1.89,0,0,0-1.59-.39l-2.73.17V183.5h23.19q10,0,14.72,3.67t4.76,11.21q0,7.26-4.63,11.65t-12.47,4.39h-8.64v16.92c0,1.3.58,1.95,1.76,1.95l4.32-.18v3.28h-23Zm21.78-21.88q3.52,0,5.86-3.64a16.7,16.7,0,0,0,2.34-9.21,14.34,14.34,0,0,0-2.34-8.51,7.2,7.2,0,0,0-6.13-3.27h-3.52a1.05,1.05,0,0,0-.71.31.93.93,0,0,0-.35.75v23.57Z"/><path class="cls-1" d="M206,202.23q4.8,4.4,4.89,12.45V218H185.53q0,7.62,2.78,11.6t8.33,4.08a12.19,12.19,0,0,0,7.14-2.08,12.77,12.77,0,0,0,4.41-5.1l2.38,1.69a14.55,14.55,0,0,1-6.48,6.73,22.41,22.41,0,0,1-10.71,2.39q-10.5,0-15.35-4.78t-4.84-14.8q0-10.19,5-15t15-4.83Q201.23,197.85,206,202.23Zm-18.65,2.57A25.22,25.22,0,0,0,185.62,215h11.72a1.54,1.54,0,0,0,1.33-.62,4.34,4.34,0,0,0,.44-2.31q0-5.76-1.46-8.5a5,5,0,0,0-4.72-2.75C190.41,200.86,188.55,202.18,187.38,204.8Z"/><path class="cls-1" d="M215.33,223.81l3-.18a9.29,9.29,0,0,0,3.75,7.53,14,14,0,0,0,9,3,7.25,7.25,0,0,0,4.63-1.37,4.68,4.68,0,0,0,1.72-3.86,4.23,4.23,0,0,0-1.28-3.23,10.25,10.25,0,0,0-4.37-2L225.47,222c-3.41-.95-5.93-2.4-7.54-4.35a11.23,11.23,0,0,1-2.43-7.44,11.43,11.43,0,0,1,3.79-8.9q3.79-3.4,10.67-3.41a20,20,0,0,1,3.35.26c1,.18,2.23.48,3.7.89a17.67,17.67,0,0,0,4.41.8,5.29,5.29,0,0,0,2.65-.71l-.53,10.1h-2.65a7.6,7.6,0,0,0-2.77-5.85,10.93,10.93,0,0,0-7.54-2.48,6.61,6.61,0,0,0-4.37,1.37,4.32,4.32,0,0,0-1.63,3.41,3.82,3.82,0,0,0,1.24,2.88,8,8,0,0,0,3.61,1.82l6.09,1.59q6.07,1.6,8.33,4.52A12,12,0,0,1,246.1,224q0,6.3-4.24,9.79t-11.19,3.5a21.25,21.25,0,0,1-4.1-.4q-2.07-.39-6.48-1.55a10.66,10.66,0,0,0-2.47-.35,5.2,5.2,0,0,0-2.73.53Z"/><path class="cls-1" d="M272.1,199a10.83,10.83,0,0,1,4.5,3.72,7.39,7.39,0,0,1,.48.66,1.76,1.76,0,0,0,1.55.58q3.08,0,3.08-5.23H288V253c0,1.18.39,1.74,1.15,1.69l2.47-.09v2.92H270.34v-2.92l4.94.09c.76-.06,1.14-.62,1.14-1.69V230.89a10.28,10.28,0,0,1-4,4.43,13,13,0,0,1-7.41,2q-7.5,0-11.46-5t-4-14.71q0-9.65,4.1-14.7t12-5.05A15.78,15.78,0,0,1,272.1,199Zm-8.68,6.33Q262,208.84,262,217c0,6.15.52,10.38,1.55,12.72a5.18,5.18,0,0,0,5,3.5q4,0,5.91-4.26a22.63,22.63,0,0,0,1.85-9.12v-3.9a26.21,26.21,0,0,0-1.68-10,6,6,0,0,0-5.9-4A5.26,5.26,0,0,0,263.42,205.33Z"/><path class="cls-1" d="M337,233.37v3H320.86a13.28,13.28,0,0,0,.44-3.9v-4q-4,8.77-13.4,8.77-5.73,0-8.38-3.14t-2.64-10v-21c0-1.12-.39-1.68-1.15-1.68l-2.91.18v-2.93h15.61v26a19.8,19.8,0,0,0,.75,6.47,3,3,0,0,0,3.13,2,6.27,6.27,0,0,0,4.18-1.86,13.4,13.4,0,0,0,3.4-5.54,27.6,27.6,0,0,0,1.41-8.81V203.25c0-1.18-.35-1.77-1.06-1.77l-3.44.18v-2.93h16.14v33.14q0,1.59,1.14,1.68Z"/><path class="cls-1" d="M355.24,231.87c0,1.18.38,1.74,1.15,1.68l2.91-.18v3H339.64v-3l2.91.18h.17c.65,0,1-.56,1-1.68V203.25c0-1-.35-1.59-1.06-1.77l-2.9.18v-2.93h15.51Zm-1.1-52.18a4.84,4.84,0,0,1,1.9,4,5,5,0,0,1-1.9,4.08,8.74,8.74,0,0,1-9.79,0,4.94,4.94,0,0,1-1.89-4.08,4.83,4.83,0,0,1,1.89-4,8.69,8.69,0,0,1,9.79,0Z"/><path class="cls-1" d="M363.71,223.81l3-.18a9.29,9.29,0,0,0,3.75,7.53,14,14,0,0,0,9,3,7.25,7.25,0,0,0,4.63-1.37,4.67,4.67,0,0,0,1.71-3.86,4.23,4.23,0,0,0-1.27-3.23,10.25,10.25,0,0,0-4.37-2L373.84,222q-5.11-1.42-7.53-4.35a11.23,11.23,0,0,1-2.43-7.44,11.39,11.39,0,0,1,3.79-8.9q3.79-3.4,10.67-3.41a20,20,0,0,1,3.35.26c1,.18,2.23.48,3.7.89a17.52,17.52,0,0,0,4.41.8,5.29,5.29,0,0,0,2.65-.71l-.53,10.1h-2.65a7.6,7.6,0,0,0-2.77-5.85,11,11,0,0,0-7.54-2.48,6.61,6.61,0,0,0-4.37,1.37,4.29,4.29,0,0,0-1.63,3.41,3.82,3.82,0,0,0,1.24,2.88,7.9,7.9,0,0,0,3.61,1.82l6.09,1.59q6.08,1.6,8.33,4.52a12,12,0,0,1,2.24,7.53q0,6.3-4.23,9.79t-11.19,3.5a21.25,21.25,0,0,1-4.1-.4q-2.08-.39-6.48-1.55A10.66,10.66,0,0,0,366,235a5.22,5.22,0,0,0-2.74.53Z"/><path class="cls-1" d="M436.09,233.37v3H420a20.91,20.91,0,0,0,.35-3.28l.09-2.39q-3.87,6.1-12.16,6.11c-3.71,0-6.51-.84-8.42-2.53s-2.87-4.17-2.87-7.48a10.22,10.22,0,0,1,5.64-9.57q5.64-3.1,17.81-3.1V208a10,10,0,0,0-1.14-5.23c-.77-1.24-2.35-1.86-4.76-1.86-2.06,0-3.52.35-4.37,1.06a3.25,3.25,0,0,0-1.28,2.57,4.57,4.57,0,0,0,.44,2,7.46,7.46,0,0,1,.36,1.77,3.58,3.58,0,0,1-1.37,3,5.49,5.49,0,0,1-3.48,1.07,5.59,5.59,0,0,1-4-1.46,4.86,4.86,0,0,1-1.55-3.68q0-4.26,4.41-6.82t11.9-2.57q16.41,0,16.4,11.78v22.24c0,1.12.38,1.68,1.15,1.68Zm-18-4.12a11.26,11.26,0,0,0,2.42-6.15v-5.85q-6,0-8.73,2.13T409,225.76q0,5.84,4.32,5.84A6,6,0,0,0,418.06,229.25Z"/><path class="cls-1" d="M459.49,202.85q4-5,11.86-5a12.23,12.23,0,0,1,7,2,9.5,9.5,0,0,1,3.92,4.92V176.14q0-1.77-1.14-1.77l-4.06.18v-2.84h16.75v60.16c0,1.12.39,1.68,1.15,1.68l2.91-.18v3H481.67a6.33,6.33,0,0,0,.17-1.42V233a9.7,9.7,0,0,1,.09-1.51,5.25,5.25,0,0,0,.09-.71,9.62,9.62,0,0,1-3.79,4.74,12.13,12.13,0,0,1-6.79,1.73q-8.55,0-12.25-4.78t-3.71-14.8Q455.48,207.86,459.49,202.85Zm8.91,24.06a9.25,9.25,0,0,0,2,4.78,5.15,5.15,0,0,0,4,1.51,6.29,6.29,0,0,0,5.86-3.33q1.91-3.31,1.9-10V216.1q0-6.73-2-10.5a6.34,6.34,0,0,0-5.82-3.77q-3.52,0-5,4c-1,2.68-1.45,6.63-1.45,11.82A57.16,57.16,0,0,0,468.4,226.91Z"/><path class="cls-1" d="M505.21,202.9q4.94-5.06,14.81-5.05t14.81,5.05q4.84,5,4.85,14.62,0,19.75-19.66,19.75-9.89,0-14.81-5.05t-4.94-14.7Q500.27,208,505.21,202.9Zm9.12,27.51a5.85,5.85,0,0,0,5.69,3.76,5.78,5.78,0,0,0,5.64-3.72q1.68-3.72,1.67-12.76,0-9.21-1.67-13a5.78,5.78,0,0,0-5.64-3.81,5.86,5.86,0,0,0-5.69,3.81q-1.73,3.81-1.72,13Q512.61,226.65,514.33,230.41Z"/><path class="cls-1" d="M567.67,189.87q7.27-7.26,20.15-7.26a26.63,26.63,0,0,1,5.81.53q2.29.54,5.56,1.6a32.23,32.23,0,0,0,4,1.28,15.72,15.72,0,0,0,3.7.4,52.37,52.37,0,0,0-.35,6.64c0,1.24,0,2.35.08,3.33a4.06,4.06,0,0,0,.27,1.64H604a15.52,15.52,0,0,0-5.38-8.91,14.47,14.47,0,0,0-9.61-3.68,12.65,12.65,0,0,0-11.33,6.43q-4,6.42-4,18.38,0,11.43,4.23,17.68a13.17,13.17,0,0,0,11.46,6.24,14.46,14.46,0,0,0,9.74-3.59,15.86,15.86,0,0,0,5.34-9h3.17a64.17,64.17,0,0,0-.53,7.53,26,26,0,0,0,.27,4.17h-.53a15,15,0,0,0-3.31.39c-1.14.27-2.63.7-4.45,1.29-2.64.77-4.78,1.34-6.39,1.73a23.39,23.39,0,0,1-5.34.57A29.84,29.84,0,0,1,573,234a22.49,22.49,0,0,1-9.34-9.34,30,30,0,0,1-3.26-14.4Q560.4,197.14,567.67,189.87Z"/><path class="cls-1" d="M619.33,189.87q7.27-7.26,20.15-7.26a26.73,26.73,0,0,1,5.82.53q2.3.54,5.55,1.6a32.23,32.23,0,0,0,4,1.28,15.78,15.78,0,0,0,3.7.4,54.31,54.31,0,0,0-.35,6.64q0,1.86.09,3.33a4.15,4.15,0,0,0,.26,1.64H655.7a15.47,15.47,0,0,0-5.38-8.91,14.47,14.47,0,0,0-9.61-3.68,12.67,12.67,0,0,0-11.33,6.43q-4,6.42-4,18.38,0,11.43,4.23,17.68a13.2,13.2,0,0,0,11.47,6.24,14.48,14.48,0,0,0,9.74-3.59,15.85,15.85,0,0,0,5.33-9h3.18a62.07,62.07,0,0,0-.53,7.53,27.37,27.37,0,0,0,.26,4.17h-.53a14.83,14.83,0,0,0-3.3.39c-1.15.27-2.63.7-4.46,1.29-2.64.77-4.77,1.34-6.39,1.73a23.3,23.3,0,0,1-5.33.57A29.78,29.78,0,0,1,624.67,234a22.51,22.51,0,0,1-9.35-9.34,30.07,30.07,0,0,1-3.26-14.4Q612.06,197.14,619.33,189.87Z"/><path class="cls-1" d="M667.51,218.4q.88,7.71,5,11.7a14,14,0,0,0,10.18,4,9.84,9.84,0,0,0,7.1-2.48,8.65,8.65,0,0,0,2.6-6.55q0-6.21-8.38-9.48l-8.64-3.64q-10.05-4.16-10.05-13.73a15.43,15.43,0,0,1,2-7.79,14.49,14.49,0,0,1,6.08-5.67,21,21,0,0,1,9.88-2.13,23.82,23.82,0,0,1,4.93.44,36.32,36.32,0,0,1,4.06,1.15c1.35.48,2.32.8,2.91,1a8.17,8.17,0,0,0,2.64.53,7.44,7.44,0,0,0,2.47-.35,62.49,62.49,0,0,0-.26,6.73q0,2.57.09,3.72a7.53,7.53,0,0,0,.44,2.13h-3a11.5,11.5,0,0,0-3.75-8.91,13.08,13.08,0,0,0-9.12-3.41,10.7,10.7,0,0,0-7,2.22A7.05,7.05,0,0,0,675,193.6a6.47,6.47,0,0,0,1.81,4.47,15.65,15.65,0,0,0,5.77,3.59l7.49,3.19q6.88,3,9.84,6.42a13.28,13.28,0,0,1,3,9,17.19,17.19,0,0,1-2.2,8.64,15.6,15.6,0,0,1-6.53,6.11,22.36,22.36,0,0,1-10.49,2.26,33.79,33.79,0,0,1-8.38-1.15,32.75,32.75,0,0,0-6.87-1.33,18.34,18.34,0,0,0-1.9.13,5.58,5.58,0,0,0-1.45.31,44,44,0,0,0,.35-6.82q0-3.54-.18-6.55c-.12-2-.29-3.07-.53-3.19Z"/><path class="cls-1" d="M759.91,233.11v3.28H733.46v-3.28l4.06.18q2.64.26,2.64-2.13a8.56,8.56,0,0,0-.88-3.46L736,219.91h-19.4l-3,7.26a11.6,11.6,0,0,0-1.23,4.43c0,1.24.65,1.83,1.94,1.77l4-.26v3.28h-16v-3.28l2.56.18h.35a3.44,3.44,0,0,0,2.91-1.69,29.15,29.15,0,0,0,2.64-5.14L729,182.61h4.33l18.33,44a23.74,23.74,0,0,0,2.56,5.05,3.77,3.77,0,0,0,3.09,1.6h.44Zm-42-16.3h16.92l-8.55-20.38Z"/></g></svg>