<svg xmlns="http://www.w3.org/2000/svg" viewBox="0 0 1500 170"><defs><style>.cls-1{fill:#fff;}</style></defs><g id="Camada_10" data-name="Camada 10"><path class="cls-1" d="M105.94,41.8q-8.34-7-21.59-7a41,41,0,0,0-11.47,1.79,40.35,40.35,0,0,0-5.26,2,46.06,46.06,0,0,1-8.13,10.26c-2.74,2.69-6.2,5.71-10.34,9h0c3.56-2.85,6.24-5,7.65-6.15,5.58-4.5,7.7-6.24,11-7.69a24.33,24.33,0,0,1,6.54-1.86A28.13,28.13,0,0,1,77.51,42q18,0,17.95,21.62,0,10.31-3.42,15.89T80.5,85A14.1,14.1,0,0,1,73,83.11a6.36,6.36,0,0,1-3.13-5.8,12.1,12.1,0,0,1,.56-3A13.88,13.88,0,0,0,71.24,70a6.66,6.66,0,0,0-2.49-5.37,10.2,10.2,0,0,0-13.11.64,10,10,0,0,0-2.78,7.45q0,9,8.62,13.1a44.22,44.22,0,0,0,19.16,4.08,41.33,41.33,0,0,0,17.1-3.44,28.27,28.27,0,0,0,12.11-9.87,26.17,26.17,0,0,0,4.42-15.18Q114.27,48.82,105.94,41.8Z"/><path class="cls-1" d="M109.26,11.91c.12-.84.24-1.71.38-2.61.2-1.31.41-2.51.63-3.58A20.82,20.82,0,0,0,109.26,11.91Z"/><path class="cls-1" d="M96.88,15.21q0-7.44,4.67-11.61.35-.31.72-.6H41.11L59.59,16.74H96.94Q96.88,16,96.88,15.21Z"/><path class="cls-1" d="M53.21,76.09c-.57,0-1.13.08-1.68.08H24.6L43.12,62.56c2.18-1.65,4.22-3.23,6.1-4.75l-.06,0h0q4.26-3.42,7.54-6.4l0,0,.55-.5.32-.29.53-.5.47-.45.23-.22.67-.64.69-.69.26-.27.41-.42.32-.33c.1-.12.21-.23.32-.35s.23-.25.35-.38l.26-.28.38-.43a2,2,0,0,0,.19-.22l.42-.49.11-.12a39.48,39.48,0,0,0,4.41-6.28h0q.33-.6.63-1.2a26.33,26.33,0,0,0,2.78-11.88q0-11.17-8.34-16.82T41.13,3A40,40,0,0,0,26.24,5.58a23.9,23.9,0,0,0-10,6.87,14.45,14.45,0,0,0-3.49,9.31,10.53,10.53,0,0,0,2.57,7.3,9.24,9.24,0,0,0,7.26,2.86,10.31,10.31,0,0,0,6.2-1.79,6,6,0,0,0,2.49-5.22,24.22,24.22,0,0,0-.57-4.3A15.67,15.67,0,0,1,30,16.32a7.58,7.58,0,0,1,2.78-6.16,10.69,10.69,0,0,1,7.05-2.29,10.72,10.72,0,0,1,8.69,3.94q3.28,3.93,3.28,12.09a36.15,36.15,0,0,1-5.56,20,102.28,102.28,0,0,1-15.81,18.4L13.06,78.46l.42,11.45H80.66a44.24,44.24,0,0,1-19.17-4.08Q54.56,82.56,53.21,76.09Z"/><path class="cls-1" d="M53.23,76.17H15.52l-2.46,2.29.42,11.45H80.66a44.24,44.24,0,0,1-19.17-4.08Q54.61,82.57,53.23,76.17Z"/><path class="cls-1" d="M104.5,6.23Q108.1,3,114.34,3t10,3.18c2.43,2.11,3.65,5.12,3.65,9s-1.2,6.71-3.6,8.82-5.74,3.18-10,3.18-7.73-1.12-10-3.35a11.59,11.59,0,0,1-3.42-8.65Q100.9,9.45,104.5,6.23Zm6.67,16.11a3.09,3.09,0,0,0,3.17,2,3.5,3.5,0,0,0,2.41-.75,4.86,4.86,0,0,0,1.23-2.7,31.07,31.07,0,0,0,.4-5.73q0-5.38-.84-7.41a3.14,3.14,0,0,0-3.2-2,3.08,3.08,0,0,0-3.12,2.11q-.84,2.13-.84,7.33A22.41,22.41,0,0,0,111.17,22.34Z"/><rect class="cls-1" x="103.45" y="30.17" width="21.95" height="2.15"/><path class="cls-1" d="M153.24,71.32q.94,8.28,5.35,12.55a15,15,0,0,0,10.93,4.28,10.55,10.55,0,0,0,7.61-2.66,9.28,9.28,0,0,0,2.8-7q0-6.65-9-10.17l-9.28-3.9q-10.78-4.47-10.79-14.74a16.59,16.59,0,0,1,2.18-8.37,15.67,15.67,0,0,1,6.53-6.08,22.59,22.59,0,0,1,10.6-2.29,25,25,0,0,1,5.3.48,37.36,37.36,0,0,1,4.35,1.24c1.45.5,2.49.85,3.12,1a8.7,8.7,0,0,0,2.84.57,7.66,7.66,0,0,0,2.65-.38,65.22,65.22,0,0,0-.28,7.23q0,2.76.09,4a8.62,8.62,0,0,0,.48,2.29h-3.22a12.33,12.33,0,0,0-4-9.56,14.05,14.05,0,0,0-9.8-3.66,11.49,11.49,0,0,0-7.47,2.37,7.6,7.6,0,0,0-2.94,6.19,7,7,0,0,0,1.94,4.8,16.87,16.87,0,0,0,6.2,3.85l8,3.42c4.93,2.16,8.44,4.46,10.56,6.9a14.24,14.24,0,0,1,3.17,9.65,18.32,18.32,0,0,1-2.37,9.27,16.73,16.73,0,0,1-7,6.56,24,24,0,0,1-11.26,2.43,36.5,36.5,0,0,1-9-1.24,35.66,35.66,0,0,0-7.38-1.43,16.58,16.58,0,0,0-2,.15,5.31,5.31,0,0,0-1.56.33,46.68,46.68,0,0,0,.38-7.32c0-2.54-.07-4.88-.19-7s-.32-3.29-.57-3.42Z"/><path class="cls-1" d="M229.65,54q5.16,4.71,5.26,13.36v3.52H207.65q0,8.18,3,12.45t8.94,4.38a13.12,13.12,0,0,0,7.67-2.24A13.69,13.69,0,0,0,232,80l2.56,1.8a15.55,15.55,0,0,1-7,7.23,24,24,0,0,1-11.5,2.57q-11.26,0-16.46-5.14T194.4,70.56q0-10.94,5.4-16.12t16.08-5.18Q224.49,49.26,229.65,54Zm-20,2.76a27.14,27.14,0,0,0-1.89,11h12.58a1.62,1.62,0,0,0,1.42-.67,4.49,4.49,0,0,0,.47-2.47q0-6.18-1.56-9.13a5.32,5.32,0,0,0-5.06-2.95C212.89,52.49,210.9,53.91,209.64,56.73Z"/><path class="cls-1" d="M311.18,87.39v3.24H289.79V87.39l3.41.19a1.6,1.6,0,0,0,1.23-1.8v-23a24,24,0,0,0-.71-6.94,2.88,2.88,0,0,0-3-2.09,6.78,6.78,0,0,0-4.4,2.09,16.21,16.21,0,0,0-3.93,6.09,26.12,26.12,0,0,0-1.7,9.41V85.78q0,1.8,1.23,1.8l3.31-.19v3.24H263.67V87.39l3.41.19a1.6,1.6,0,0,0,1.23-1.8v-23a22.13,22.13,0,0,0-.76-7,3,3,0,0,0-3.12-2,6.51,6.51,0,0,0-4.21,2,16.17,16.17,0,0,0-3.84,5.75,26.33,26.33,0,0,0-1.89,8.89V85.78c0,1.26.41,1.87,1.23,1.8l3.41-.19v3.24H237.74V87.39l3.13.19a1.61,1.61,0,0,0,1.23-1.8V55.06c0-1.08-.42-1.71-1.23-1.9l-3.13.19V50.21h17.32a10.11,10.11,0,0,0-.47,3.23v5.33a16.15,16.15,0,0,1,5.67-7,15.27,15.27,0,0,1,8.81-2.52c3.4,0,6,.79,7.9,2.38s3,4.15,3.45,7.7a16.33,16.33,0,0,1,5.77-7.46,15.39,15.39,0,0,1,9-2.62q6.06,0,8.85,3.28t2.79,10.32V85.78q0,1.8,1.23,1.8Z"/><path class="cls-1" d="M329.91,85.78c0,1.26.41,1.87,1.23,1.8l3.13-.19v3.24H313.16V87.39l3.13.19h.19c.69,0,1-.6,1-1.8V55.06c0-1.08-.38-1.71-1.14-1.9l-3.12.19V50.21h16.65Zm-1.18-56a5.17,5.17,0,0,1,2,4.28,5.28,5.28,0,0,1-2,4.37,9.32,9.32,0,0,1-10.5,0,5.29,5.29,0,0,1-2-4.37,5.17,5.17,0,0,1,2-4.28,9.32,9.32,0,0,1,10.5,0Z"/><path class="cls-1" d="M385.18,87.39v3.24H363.6V87.39l3.6.19a1.6,1.6,0,0,0,1.23-1.8v-23a21.1,21.1,0,0,0-.81-7c-.53-1.36-1.75-2-3.64-2a7.14,7.14,0,0,0-4.78,2.09A15.37,15.37,0,0,0,355.37,62a28.26,28.26,0,0,0-1.52,9.8v14q0,1.8,1.23,1.8l3.69-.19v3.24H337.1V87.39l3.13.19a1.6,1.6,0,0,0,1.23-1.8V55.06c0-1.08-.41-1.71-1.23-1.9l-3.13.19V50.21h17.23a10.44,10.44,0,0,0-.48,3.33v5.33a16.62,16.62,0,0,1,5.82-7.09,15.47,15.47,0,0,1,8.85-2.52q6.44,0,9.37,3.28t2.93,10.32V85.78q0,1.8,1.23,1.8Z"/><path class="cls-1" d="M428.42,87.39v3.24H411.2a23.69,23.69,0,0,0,.38-3.52l.09-2.57q-4.17,6.55-13.06,6.56c-4,0-7-.9-9-2.71s-3.08-4.48-3.08-8a11,11,0,0,1,6.06-10.27q6-3.33,19.11-3.33V60.1a10.71,10.71,0,0,0-1.23-5.61q-1.23-2-5.11-2-3.31,0-4.68,1.14a3.48,3.48,0,0,0-1.37,2.76,4.77,4.77,0,0,0,.47,2.19,8.26,8.26,0,0,1,.38,1.9,3.84,3.84,0,0,1-1.47,3.23,5.86,5.86,0,0,1-3.74,1.15,6,6,0,0,1-4.3-1.57A5.2,5.2,0,0,1,389,59.34q0-4.56,4.73-7.32c3.16-1.84,7.41-2.76,12.78-2.76q17.59,0,17.6,12.65V85.78q0,1.8,1.23,1.8ZM409.07,83a12.09,12.09,0,0,0,2.6-6.61V70.09q-6.44,0-9.37,2.28t-2.93,6.84q0,6.29,4.64,6.28A6.44,6.44,0,0,0,409.07,83Zm10.36-49.68L403.63,43a4.09,4.09,0,0,1-2.27.86c-.7,0-1-.32-1-1a4.5,4.5,0,0,1,1.51-2.57l9-9.89a17.13,17.13,0,0,1,1.94-2,2.5,2.5,0,0,1,1.47-.38,8.89,8.89,0,0,1,4.07,1.29c1.57.85,2.36,1.6,2.36,2.23S420.25,32.65,419.43,33.29Z"/><path class="cls-1" d="M465,51.64a8,8,0,0,1,2.6,6.18,5.33,5.33,0,0,1-1.66,4.28,5.93,5.93,0,0,1-4,1.42,6.5,6.5,0,0,1-3.55-1,3.25,3.25,0,0,1-1.56-2.9,8.22,8.22,0,0,1,.38-2c.19-1.14.28-1.78.28-1.9q0-2.1-1.8-2.1c-1.64,0-3.1.94-4.4,2.81a21.39,21.39,0,0,0-3,7,37.22,37.22,0,0,0-1.13,8.08V85.78q0,1.8,1.23,1.8l6.53-.19v3.24h-24V87.39l2.65.19q1.23,0,1.23-1.8V55.06c0-1.27-.41-1.9-1.23-1.9l-3,.19V50.21h17.23a11,11,0,0,0-.38,1.86,16.64,16.64,0,0,0-.19,2.52V59q3.4-9.7,11.16-9.7A9.5,9.5,0,0,1,465,51.64Z"/><path class="cls-1" d="M485.86,85.78c0,1.26.41,1.87,1.23,1.8l3.12-.19v3.24h-21.1V87.39l3.13.19h.18q1.05,0,1.05-1.8V55.06c0-1.08-.38-1.71-1.14-1.9l-3.12.19V50.21h16.65Zm-1.18-56a5.17,5.17,0,0,1,2,4.28,5.28,5.28,0,0,1-2,4.37,9.33,9.33,0,0,1-10.51,0,5.31,5.31,0,0,1-2-4.37,5.19,5.19,0,0,1,2-4.28,9.33,9.33,0,0,1,10.51,0Z"/><path class="cls-1" d="M498.35,54.68q5.29-5.41,15.9-5.42t15.9,5.42q5.21,5.41,5.2,15.69,0,21.21-21.1,21.21-10.61,0-15.9-5.42t-5.3-15.79Q493.05,60.1,498.35,54.68Zm9.8,29.53a6.28,6.28,0,0,0,6.1,4,6.2,6.2,0,0,0,6.06-4q1.79-4,1.79-13.69,0-9.89-1.79-14a6.21,6.21,0,0,0-6.06-4.09,6.29,6.29,0,0,0-6.1,4.09q-1.84,4.1-1.85,14Q506.3,80.16,508.15,84.21Z"/><path class="cls-1" d="M561.33,54.63q4.3-5.37,12.73-5.37a13.09,13.09,0,0,1,7.52,2.14,10.26,10.26,0,0,1,4.21,5.28V26c0-1.26-.41-1.9-1.23-1.9l-4.35.19v-3h18V85.78q0,1.8,1.23,1.8l3.12-.19v3.24H585.13a6.68,6.68,0,0,0,.19-1.53V87a11,11,0,0,1,.09-1.61,6.92,6.92,0,0,0,.1-.77,10.26,10.26,0,0,1-4.07,5.09,13.06,13.06,0,0,1-7.29,1.86q-9.18,0-13.15-5.14t-4-15.88Q557,60,561.33,54.63Zm9.56,25.82A10,10,0,0,0,573,85.59a5.5,5.5,0,0,0,4.25,1.61,6.78,6.78,0,0,0,6.3-3.56q2-3.57,2-10.7V68.85q0-7.23-2.17-11.27t-6.25-4c-2.52,0-4.31,1.44-5.35,4.33s-1.56,7.11-1.56,12.69A60.76,60.76,0,0,0,570.89,80.45Z"/><path class="cls-1" d="M640.34,54q5.16,4.71,5.26,13.36v3.52H618.34q0,8.18,3,12.45t8.95,4.38a13.08,13.08,0,0,0,7.66-2.24A13.61,13.61,0,0,0,642.66,80l2.56,1.8a15.51,15.51,0,0,1-7,7.23,24,24,0,0,1-11.49,2.57q-11.26,0-16.47-5.14t-5.21-15.88q0-10.94,5.4-16.12t16.09-5.18Q635.19,49.26,640.34,54Zm-20,2.76a27.14,27.14,0,0,0-1.89,11H631a1.61,1.61,0,0,0,1.42-.67,4.48,4.48,0,0,0,.48-2.47q0-6.18-1.56-9.13a5.33,5.33,0,0,0-5.07-2.95C623.58,52.49,621.59,53.91,620.33,56.73Z"/><path class="cls-1" d="M668.68,87.11l3.32.19h.19c1.07,0,1.6-.7,1.6-2.09V39.28a2.42,2.42,0,0,0-.47-1.67,2,2,0,0,0-1.7-.43l-2.94.19V33.86h24.89q10.7,0,15.81,3.94t5.11,12q0,7.8-5,12.51T696.13,67h-9.28V85.21c0,1.39.63,2.09,1.9,2.09l4.63-.19v3.52h-24.7Zm23.38-23.49q3.78,0,6.29-3.9a18,18,0,0,0,2.51-9.89,15.4,15.4,0,0,0-2.51-9.13,7.73,7.73,0,0,0-6.57-3.52H688a1.13,1.13,0,0,0-.76.34,1,1,0,0,0-.38.81V63.62Z"/><path class="cls-1" d="M750.59,54q5.16,4.71,5.25,13.36v3.52H728.59q0,8.18,3,12.45t8.94,4.38a13.12,13.12,0,0,0,7.67-2.24A13.69,13.69,0,0,0,752.91,80l2.55,1.8a15.53,15.53,0,0,1-7,7.23A24,24,0,0,1,737,91.58q-11.26,0-16.47-5.14t-5.2-15.88q0-10.94,5.39-16.12t16.09-5.18Q745.43,49.26,750.59,54Zm-20,2.76a27.14,27.14,0,0,0-1.89,11h12.59a1.62,1.62,0,0,0,1.42-.67,4.59,4.59,0,0,0,.47-2.47q0-6.18-1.56-9.13a5.32,5.32,0,0,0-5.06-2.95C733.82,52.49,731.84,53.91,730.57,56.73Z"/><path class="cls-1" d="M760.57,77.12l3.22-.19a10,10,0,0,0,4,8.09,15,15,0,0,0,9.7,3.23,7.71,7.71,0,0,0,5-1.48,5,5,0,0,0,1.84-4.13A4.49,4.49,0,0,0,783,79.17,10.87,10.87,0,0,0,778.27,77l-6.82-1.9q-5.49-1.53-8.09-4.66a12.15,12.15,0,0,1-2.6-8,12.27,12.27,0,0,1,4.07-9.56q4.06-3.66,11.45-3.66a20.75,20.75,0,0,1,3.6.29c1.07.19,2.39.5,4,1a18.71,18.71,0,0,0,4.73.85,5.57,5.57,0,0,0,2.84-.76l-.57,10.84H788a8.14,8.14,0,0,0-3-6.27,11.66,11.66,0,0,0-8.09-2.67A7,7,0,0,0,772.26,54a4.58,4.58,0,0,0-1.75,3.66,4.17,4.17,0,0,0,1.32,3.09,8.57,8.57,0,0,0,3.88,2l6.53,1.71c4.35,1.14,7.34,2.76,8.94,4.85a12.88,12.88,0,0,1,2.42,8.08q0,6.76-4.54,10.51t-12,3.76a23.59,23.59,0,0,1-4.4-.43c-1.49-.29-3.81-.84-7-1.67A11.24,11.24,0,0,0,763,89.1a5.52,5.52,0,0,0-2.93.57Z"/><path class="cls-1" d="M821.51,50.5a11.59,11.59,0,0,1,4.83,4,7.73,7.73,0,0,1,.52.71,1.86,1.86,0,0,0,1.66.62c2.2,0,3.31-1.87,3.31-5.61h6.72V108.5c0,1.27.41,1.87,1.23,1.81l2.65-.1v3.14H819.62v-3.14l5.3.1c.82-.06,1.23-.67,1.23-1.81V84.73a11.1,11.1,0,0,1-4.26,4.75,14,14,0,0,1-7.95,2.1q-8,0-12.3-5.33t-4.26-15.78q0-10.36,4.4-15.79t12.92-5.42A16.87,16.87,0,0,1,821.51,50.5Zm-9.32,6.8q-1.56,3.75-1.56,12.5,0,9.89,1.66,13.65t5.34,3.75c2.9,0,5-1.52,6.34-4.56a24.22,24.22,0,0,0,2-9.8V68.66a28.19,28.19,0,0,0-1.8-10.79,6.39,6.39,0,0,0-6.34-4.33A5.63,5.63,0,0,0,812.19,57.3Z"/><path class="cls-1" d="M891.16,87.39v3.24H873.84a14,14,0,0,0,.48-4.19V82.16q-4.26,9.42-14.39,9.42-6.15,0-9-3.38T848.1,77.5V55c0-1.21-.41-1.81-1.23-1.81l-3.12.19V50.21H860.5V78.07a21.49,21.49,0,0,0,.8,7,3.24,3.24,0,0,0,3.36,2.09,6.76,6.76,0,0,0,4.5-2,14.3,14.3,0,0,0,3.64-5.94,29.65,29.65,0,0,0,1.52-9.46V55.06c0-1.27-.38-1.9-1.14-1.9l-3.69.19V50.21h17.32V85.78q0,1.71,1.23,1.8Z"/><path class="cls-1" d="M910.75,85.78c0,1.26.41,1.87,1.23,1.8l3.12-.19v3.24H894V87.39l3.12.19h.19c.69,0,1-.6,1-1.8V55.06c0-1.08-.38-1.71-1.13-1.9l-3.13.19V50.21h16.66Zm-1.18-56a5.19,5.19,0,0,1,2,4.28,5.31,5.31,0,0,1-2,4.37,9.33,9.33,0,0,1-10.51,0,5.28,5.28,0,0,1-2-4.37,5.17,5.17,0,0,1,2-4.28,9.33,9.33,0,0,1,10.51,0Z"/><path class="cls-1" d="M919.83,77.12l3.22-.19a10,10,0,0,0,4,8.09,15,15,0,0,0,9.7,3.23,7.71,7.71,0,0,0,5-1.48,5,5,0,0,0,1.84-4.13,4.49,4.49,0,0,0-1.37-3.47A10.87,10.87,0,0,0,937.53,77l-6.82-1.9q-5.48-1.53-8.09-4.66a12.15,12.15,0,0,1-2.6-8,12.27,12.27,0,0,1,4.07-9.56q4.06-3.66,11.45-3.66a20.75,20.75,0,0,1,3.6.29c1.07.19,2.39.5,4,1a18.71,18.71,0,0,0,4.73.85,5.57,5.57,0,0,0,2.84-.76l-.57,10.84h-2.83a8.15,8.15,0,0,0-3-6.27,11.66,11.66,0,0,0-8.09-2.67A7.06,7.06,0,0,0,931.52,54a4.58,4.58,0,0,0-1.75,3.66,4.17,4.17,0,0,0,1.32,3.09,8.57,8.57,0,0,0,3.88,2l6.53,1.71q6.54,1.71,9,4.85a12.94,12.94,0,0,1,2.41,8.08q0,6.76-4.54,10.51t-12,3.76a23.68,23.68,0,0,1-4.4-.43c-1.48-.29-3.8-.84-7-1.67a11.24,11.24,0,0,0-2.65-.38,5.52,5.52,0,0,0-2.93.57Z"/><path class="cls-1" d="M997.52,87.39v3.24H980.3a23.69,23.69,0,0,0,.38-3.52l.09-2.57q-4.15,6.55-13.06,6.56-6,0-9-2.71c-2-1.81-3.08-4.48-3.08-8a11,11,0,0,1,6.06-10.27q6.06-3.33,19.11-3.33V60.1a10.71,10.71,0,0,0-1.23-5.61q-1.23-2-5.11-2-3.31,0-4.68,1.14a3.48,3.48,0,0,0-1.37,2.76,4.77,4.77,0,0,0,.47,2.19,8.26,8.26,0,0,1,.38,1.9,3.84,3.84,0,0,1-1.47,3.23A5.86,5.86,0,0,1,964,64.86a6,6,0,0,1-4.3-1.57,5.2,5.2,0,0,1-1.66-3.95q0-4.56,4.73-7.32t12.78-2.76q17.59,0,17.6,12.65V85.78q0,1.8,1.23,1.8ZM978.17,83a12.09,12.09,0,0,0,2.6-6.61V70.09q-6.43,0-9.36,2.28t-2.94,6.84q0,6.29,4.64,6.28A6.44,6.44,0,0,0,978.17,83Z"/><path class="cls-1" d="M1022.65,54.63q4.3-5.37,12.73-5.37a13.11,13.11,0,0,1,7.52,2.14,10.26,10.26,0,0,1,4.21,5.28V26c0-1.26-.41-1.9-1.23-1.9l-4.35.19v-3h18V85.78q0,1.8,1.23,1.8l3.12-.19v3.24h-17.41a6.68,6.68,0,0,0,.19-1.53V87a11,11,0,0,1,.09-1.61,6.92,6.92,0,0,0,.1-.77,10.31,10.31,0,0,1-4.07,5.09,13.1,13.1,0,0,1-7.29,1.86q-9.18,0-13.15-5.14t-4-15.88Q1018.34,60,1022.65,54.63Zm9.56,25.82a9.88,9.88,0,0,0,2.12,5.14,5.54,5.54,0,0,0,4.26,1.61,6.78,6.78,0,0,0,6.3-3.56q2-3.57,2-10.7V68.85q0-7.23-2.18-11.27t-6.24-4q-3.8,0-5.35,4.33t-1.56,12.69A59.64,59.64,0,0,0,1032.21,80.45Z"/><path class="cls-1" d="M1071.71,54.68q5.31-5.41,15.9-5.42t15.9,5.42q5.21,5.41,5.2,15.69,0,21.21-21.1,21.21-10.6,0-15.9-5.42t-5.3-15.79Q1066.41,60.1,1071.71,54.68Zm9.8,29.53a6.28,6.28,0,0,0,6.1,4,6.2,6.2,0,0,0,6.06-4q1.8-4,1.79-13.69,0-9.89-1.79-14a6.21,6.21,0,0,0-6.06-4.09,6.29,6.29,0,0,0-6.1,4.09q-1.85,4.1-1.85,14Q1079.66,80.16,1081.51,84.21Z"/><path class="cls-1" d="M1138.76,40.7q7.8-7.8,21.62-7.8a28.44,28.44,0,0,1,6.25.57c1.64.39,3.62,1,6,1.72a35.34,35.34,0,0,0,4.26,1.38,17.46,17.46,0,0,0,4,.42,57.7,57.7,0,0,0-.38,7.13c0,1.34,0,2.53.1,3.57a4.5,4.5,0,0,0,.28,1.76h-3a16.64,16.64,0,0,0-5.77-9.56A15.52,15.52,0,0,0,1161.71,36a13.58,13.58,0,0,0-12.16,6.89q-4.32,6.9-4.31,19.73,0,12.27,4.54,19a14.15,14.15,0,0,0,12.3,6.71,15.62,15.62,0,0,0,10.46-3.85,17,17,0,0,0,5.73-9.65h3.4a69.62,69.62,0,0,0-.56,8.08,28.32,28.32,0,0,0,.28,4.47h-.57a15.49,15.49,0,0,0-3.55.43q-1.85.42-4.77,1.37-4.26,1.25-6.87,1.86a24.82,24.82,0,0,1-5.72.62,32.16,32.16,0,0,1-15.43-3.52,24.24,24.24,0,0,1-10-10,32.29,32.29,0,0,1-3.5-15.46Q1131,48.5,1138.76,40.7Z"/><path class="cls-1" d="M1194.21,40.7q7.82-7.8,21.63-7.8a28.34,28.34,0,0,1,6.24.57q2.46.59,6,1.72a35.34,35.34,0,0,0,4.26,1.38,17.49,17.49,0,0,0,4,.42,55.8,55.8,0,0,0-.38,7.13q0,2,.09,3.57a4.22,4.22,0,0,0,.29,1.76h-3a16.69,16.69,0,0,0-5.77-9.56A15.55,15.55,0,0,0,1217.16,36,13.58,13.58,0,0,0,1205,42.84q-4.3,6.9-4.31,19.73,0,12.27,4.55,19a14.15,14.15,0,0,0,12.3,6.71A15.64,15.64,0,0,0,1228,84.4a17.09,17.09,0,0,0,5.72-9.65h3.41a67.7,67.7,0,0,0-.57,8.08,29.58,29.58,0,0,0,.28,4.47h-.56a15.43,15.43,0,0,0-3.55.43c-1.23.28-2.83.74-4.78,1.37q-4.26,1.25-6.86,1.86a25,25,0,0,1-5.73.62,32.09,32.09,0,0,1-15.42-3.52,24.13,24.13,0,0,1-10-10,32.17,32.17,0,0,1-3.5-15.46Q1186.41,48.5,1194.21,40.7Z"/><path class="cls-1" d="M1245.93,71.32q.94,8.28,5.35,12.55a15,15,0,0,0,10.93,4.28,10.55,10.55,0,0,0,7.61-2.66,9.28,9.28,0,0,0,2.8-7q0-6.65-9-10.17l-9.27-3.9q-10.78-4.47-10.79-14.74a16.59,16.59,0,0,1,2.18-8.37,15.67,15.67,0,0,1,6.53-6.08,22.59,22.59,0,0,1,10.6-2.29,25.1,25.1,0,0,1,5.3.48,37.36,37.36,0,0,1,4.35,1.24c1.45.5,2.49.85,3.12,1a8.65,8.65,0,0,0,2.84.57,7.66,7.66,0,0,0,2.65-.38,65.22,65.22,0,0,0-.28,7.23q0,2.76.09,4a8.24,8.24,0,0,0,.48,2.29h-3.22a12.33,12.33,0,0,0-4-9.56,14.05,14.05,0,0,0-9.8-3.66,11.49,11.49,0,0,0-7.47,2.37A7.6,7.6,0,0,0,1254,44.7a7,7,0,0,0,1.94,4.8,16.87,16.87,0,0,0,6.2,3.85l8,3.42c4.93,2.16,8.44,4.46,10.56,6.9a14.24,14.24,0,0,1,3.17,9.65,18.32,18.32,0,0,1-2.37,9.27,16.73,16.73,0,0,1-7,6.56,24,24,0,0,1-11.26,2.43,36.5,36.5,0,0,1-9-1.24,35.66,35.66,0,0,0-7.38-1.43,16.58,16.58,0,0,0-2,.15,5.31,5.31,0,0,0-1.56.33,46.68,46.68,0,0,0,.38-7.32c0-2.54-.07-4.88-.19-7s-.32-3.29-.57-3.42Z"/><path class="cls-1" d="M1345.1,87.11v3.52h-28.39V87.11l4.35.19c1.9.19,2.84-.57,2.84-2.28a9.16,9.16,0,0,0-.94-3.71l-3.5-8.37h-20.82l-3.22,7.8a12.48,12.48,0,0,0-1.33,4.75c0,1.33.7,2,2.09,1.9l4.25-.28v3.52h-17.12V87.11l2.74.19h.38a3.65,3.65,0,0,0,3.12-1.81,30.54,30.54,0,0,0,2.84-5.51l19.5-47.08h4.63l19.69,47.27a25.11,25.11,0,0,0,2.74,5.42,4,4,0,0,0,3.31,1.71h.48ZM1300,69.61h18.17L1309,47.74Z"/><path class="cls-1" d="M26.88,154.24H15.35l-2.82,5.48H4.66l16.63-31H30l5.72,31h-8ZM26,148.49,24.19,137l-5.89,11.5Z"/><path class="cls-1" d="M44.1,159.14a8.68,8.68,0,0,1-3.63-2.58,6,6,0,0,1-1.32-3.83c0-.2,0-.57.09-1.1H46.5a2.56,2.56,0,0,0,.82,2.19,3.72,3.72,0,0,0,2.57.81,4.54,4.54,0,0,0,2.33-.53,1.64,1.64,0,0,0,.93-1.5,1.66,1.66,0,0,0-1-1.48,22.65,22.65,0,0,0-3.28-1.35,33.41,33.41,0,0,1-4-1.57A7.77,7.77,0,0,1,42.15,146,5.75,5.75,0,0,1,41,142.3a6.5,6.5,0,0,1,1.28-3.92,8.23,8.23,0,0,1,3.58-2.71,13.69,13.69,0,0,1,5.35-1,12.82,12.82,0,0,1,5.28,1A8.07,8.07,0,0,1,60,138.45a6.82,6.82,0,0,1,1.23,4l0,.66H54.33a2.47,2.47,0,0,0-.79-2.12,3.59,3.59,0,0,0-2.5-.8,3.74,3.74,0,0,0-2.1.54,1.65,1.65,0,0,0-.81,1.46,1.87,1.87,0,0,0,1.08,1.61,20.13,20.13,0,0,0,3.37,1.44,31,31,0,0,1,3.93,1.57A7.89,7.89,0,0,1,59.2,149a5.35,5.35,0,0,1,1.12,3.47,6.28,6.28,0,0,1-1.43,4.12A9,9,0,0,1,55,159.17a16.5,16.5,0,0,1-5.65.9A13.88,13.88,0,0,1,44.1,159.14Z"/><path class="cls-1" d="M77.26,140.66a14.13,14.13,0,0,1,5.13-4.42,14.54,14.54,0,0,1,6.66-1.55,10.49,10.49,0,0,1,7.31,2.43A9.34,9.34,0,0,1,99.22,144h-8a3.1,3.1,0,0,0-3.43-2.83,4.73,4.73,0,0,0-3.57,1.61,8.91,8.91,0,0,0-2,4.62,10.25,10.25,0,0,0-.18,2,4.67,4.67,0,0,0,1,3.18,3.31,3.31,0,0,0,2.64,1.11A4.67,4.67,0,0,0,90,150.79h8a14.68,14.68,0,0,1-5.28,6.81,13.93,13.93,0,0,1-8.14,2.47,10.54,10.54,0,0,1-7.55-2.63,9.39,9.39,0,0,1-2.79-7.18,17.21,17.21,0,0,1,.26-2.88A16,16,0,0,1,77.26,140.66Z"/><path class="cls-1" d="M106,158.79a9,9,0,0,1-3.81-3.63,10.77,10.77,0,0,1-1.34-5.43,15.09,15.09,0,0,1,2-7.65,14.29,14.29,0,0,1,5.46-5.42,15.42,15.42,0,0,1,7.74-2,12,12,0,0,1,5.65,1.31,9.33,9.33,0,0,1,3.85,3.64,10.64,10.64,0,0,1,1.37,5.44,15,15,0,0,1-2,7.67,14.36,14.36,0,0,1-5.5,5.38,15.83,15.83,0,0,1-7.77,1.94A12,12,0,0,1,106,158.79Zm10-6.34a7.71,7.71,0,0,0,2.29-2.92,9,9,0,0,0,.81-3.74,4.61,4.61,0,0,0-1.19-3.4,4,4,0,0,0-3-1.2,5.21,5.21,0,0,0-3.32,1.13,7.31,7.31,0,0,0-2.22,2.94,9.39,9.39,0,0,0-.8,3.8,4.55,4.55,0,0,0,1.15,3.34,3.93,3.93,0,0,0,3,1.17A5.34,5.34,0,0,0,116.05,152.45Z"/><path class="cls-1" d="M153.6,136.86a7.73,7.73,0,0,1,2.12,5.79,14.1,14.1,0,0,1-.27,2.65l-2.55,14.42h-7.48l2.37-13.4a7.62,7.62,0,0,0,.14-1.33,3.86,3.86,0,0,0-1-2.87,3.93,3.93,0,0,0-2.88-1,5.29,5.29,0,0,0-3.7,1.37,6.65,6.65,0,0,0-1.93,3.85v-.22L136,159.72h-7.52l4.31-24.67h7.52l-.57,3.31a10.76,10.76,0,0,1,8-3.58A7.89,7.89,0,0,1,153.6,136.86Z"/><path class="cls-1" d="M168.34,151.23a3,3,0,0,0,0,.57,1.34,1.34,0,0,0,.46,1.15,2.52,2.52,0,0,0,1.52.36H173l-1.14,6.41H168q-7.4,0-7.39-6.24a15.38,15.38,0,0,1,.22-2.34l1.76-9.82h-3l1.1-6.27h3l1.06-6h7.52l-1.06,6h4.93l-1.1,6.27H170.1Z"/><path class="cls-1" d="M191,136a9.28,9.28,0,0,1,4.64-1.26l-1.4,8h-2.07A7.3,7.3,0,0,0,187.7,144a6.46,6.46,0,0,0-2.15,4.27l-2,11.45H176l4.31-24.67h7.53l-.8,4.46A13.42,13.42,0,0,1,191,136Z"/><path class="cls-1" d="M200.42,158.79a9.06,9.06,0,0,1-3.8-3.63,10.67,10.67,0,0,1-1.35-5.43,15.09,15.09,0,0,1,2-7.65,14.29,14.29,0,0,1,5.46-5.42,15.47,15.47,0,0,1,7.74-2,12,12,0,0,1,5.66,1.31,9.46,9.46,0,0,1,3.85,3.64,10.64,10.64,0,0,1,1.36,5.44,15,15,0,0,1-2,7.67,14.29,14.29,0,0,1-5.5,5.38,15.77,15.77,0,0,1-7.77,1.94A12,12,0,0,1,200.42,158.79Zm10-6.34a7.62,7.62,0,0,0,2.29-2.92,9,9,0,0,0,.81-3.74,4.61,4.61,0,0,0-1.18-3.4,4.05,4.05,0,0,0-3-1.2,5.21,5.21,0,0,0-3.32,1.13,7.5,7.5,0,0,0-2.22,2.94,9.38,9.38,0,0,0-.79,3.8,4.58,4.58,0,0,0,1.14,3.34,4,4,0,0,0,3,1.17A5.32,5.32,0,0,0,210.43,152.45Z"/><path class="cls-1" d="M235.14,152.64l8.45-17.59h8l-13.07,24.67h-9.33l-4.35-24.67h8Z"/><path class="cls-1" d="M273.27,137.28a9.13,9.13,0,0,1,2.79,7.05,13.75,13.75,0,0,1-.22,2.61,17.46,17.46,0,0,1-.53,2.17h-17a5.62,5.62,0,0,0,0,.84,3.59,3.59,0,0,0,3.87,4,4.78,4.78,0,0,0,4.31-2.39h8a13.65,13.65,0,0,1-5.15,6.14,14,14,0,0,1-8,2.39,10.65,10.65,0,0,1-7.59-2.65,9.36,9.36,0,0,1-2.84-7.21,15.52,15.52,0,0,1,.26-2.83,16,16,0,0,1,2.73-6.72,14,14,0,0,1,5.15-4.42,14.77,14.77,0,0,1,6.73-1.55A10.67,10.67,0,0,1,273.27,137.28Zm-4.73,7.14a3.4,3.4,0,0,0-1.1-2.72,4.34,4.34,0,0,0-2.91-.95,5.32,5.32,0,0,0-3.41,1.17,6.59,6.59,0,0,0-2.13,3.34h9.46A7,7,0,0,0,268.54,144.42Zm3.6-15.52-11.44,4.47.93-5.22L273.16,123Z"/><path class="cls-1" d="M292.5,136a9.25,9.25,0,0,1,4.64-1.26l-1.41,8h-2.07a7.25,7.25,0,0,0-4.44,1.22,6.42,6.42,0,0,0-2.16,4.27l-2,11.45h-7.53l4.31-24.67h7.53l-.79,4.46A13.18,13.18,0,0,1,292.5,136Z"/><path class="cls-1" d="M301.34,159.14a8.68,8.68,0,0,1-3.63-2.58,6,6,0,0,1-1.32-3.83c0-.2,0-.57.09-1.1h7.26a2.58,2.58,0,0,0,.81,2.19,3.73,3.73,0,0,0,2.58.81,4.59,4.59,0,0,0,2.33-.53,1.64,1.64,0,0,0-.07-3,22.16,22.16,0,0,0-3.28-1.35,34.1,34.1,0,0,1-4-1.57,7.77,7.77,0,0,1-2.75-2.23,5.8,5.8,0,0,1-1.14-3.67,6.49,6.49,0,0,1,1.27-3.92,8.26,8.26,0,0,1,3.59-2.71,13.65,13.65,0,0,1,5.35-1,12.85,12.85,0,0,1,5.28,1,8.1,8.1,0,0,1,3.47,2.76,6.82,6.82,0,0,1,1.23,4l0,.66h-6.82a2.5,2.5,0,0,0-.79-2.12,3.62,3.62,0,0,0-2.51-.8,3.71,3.71,0,0,0-2.09.54,1.65,1.65,0,0,0-.81,1.46,1.86,1.86,0,0,0,1.07,1.61,20.13,20.13,0,0,0,3.37,1.44,31.24,31.24,0,0,1,3.94,1.57,7.85,7.85,0,0,1,2.68,2.16,5.35,5.35,0,0,1,1.12,3.47,6.23,6.23,0,0,1-1.43,4.12,9,9,0,0,1-3.91,2.63,16.56,16.56,0,0,1-5.66.9A13.86,13.86,0,0,1,301.34,159.14Z"/><path class="cls-1" d="M332.74,135.05l-4.32,24.67H320.9l4.31-24.67Zm-6.05-3.52a3.13,3.13,0,0,1-1-2.41,4.43,4.43,0,0,1,1.54-3.4,5.3,5.3,0,0,1,3.74-1.42,3.9,3.9,0,0,1,2.77,1,3.21,3.21,0,0,1,1,2.46,4.46,4.46,0,0,1-1.54,3.36,5.29,5.29,0,0,1-3.7,1.41A3.92,3.92,0,0,1,326.69,131.53Z"/><path class="cls-1" d="M337.18,140.66a13.89,13.89,0,0,1,4.66-4.42,11.54,11.54,0,0,1,5.77-1.55,8.34,8.34,0,0,1,4.35,1.06,6.3,6.3,0,0,1,2.56,2.79l.61-3.49h7.53l-4.36,24.67h-7.52l.66-3.49a10.71,10.71,0,0,1-8.32,3.84,8.88,8.88,0,0,1-4.6-1.19,8.06,8.06,0,0,1-3.1-3.38,11.41,11.41,0,0,1-1.1-5.16,19,19,0,0,1,.26-3A17,17,0,0,1,337.18,140.66Zm15.93,5.26a4.54,4.54,0,0,0-1.26-3.4,4.31,4.31,0,0,0-3.19-1.24,6.1,6.1,0,0,0-4.09,1.61,7.32,7.32,0,0,0-2.33,4.45,8.67,8.67,0,0,0-.13,1.46,4.66,4.66,0,0,0,1.25,3.42,4.27,4.27,0,0,0,3.15,1.26,6,6,0,0,0,4.09-1.63,7.67,7.67,0,0,0,2.38-4.47A9.86,9.86,0,0,0,353.11,145.92Z"/><path class="cls-1" d="M368.75,159.14a8.68,8.68,0,0,1-3.63-2.58,6,6,0,0,1-1.32-3.83c0-.2,0-.57.09-1.1h7.26a2.58,2.58,0,0,0,.81,2.19,3.73,3.73,0,0,0,2.58.81,4.57,4.57,0,0,0,2.33-.53,1.63,1.63,0,0,0,.92-1.5,1.66,1.66,0,0,0-1-1.48,22.41,22.41,0,0,0-3.27-1.35,33.63,33.63,0,0,1-4-1.57,7.77,7.77,0,0,1-2.75-2.23,5.8,5.8,0,0,1-1.14-3.67,6.49,6.49,0,0,1,1.27-3.92,8.32,8.32,0,0,1,3.59-2.71,13.65,13.65,0,0,1,5.35-1,12.85,12.85,0,0,1,5.28,1,8.1,8.1,0,0,1,3.47,2.76,6.83,6.83,0,0,1,1.24,4l-.05.66H379a2.47,2.47,0,0,0-.79-2.12,3.62,3.62,0,0,0-2.51-.8,3.71,3.71,0,0,0-2.09.54,1.65,1.65,0,0,0-.81,1.46,1.87,1.87,0,0,0,1.08,1.61,20,20,0,0,0,3.36,1.44,30.64,30.64,0,0,1,3.94,1.57,7.76,7.76,0,0,1,2.68,2.16,5.36,5.36,0,0,1,1.13,3.47,6.28,6.28,0,0,1-1.43,4.12,9.09,9.09,0,0,1-3.92,2.63,16.56,16.56,0,0,1-5.66.9A13.86,13.86,0,0,1,368.75,159.14Z"/><path class="cls-1" d="M401.77,140.66a14,14,0,0,1,4.67-4.42,11.53,11.53,0,0,1,5.76-1.55,8.57,8.57,0,0,1,4.25,1,6.22,6.22,0,0,1,2.66,2.74l2-11.45h7.52l-5.76,32.72h-7.53l.62-3.54a10.34,10.34,0,0,1-8.23,3.89,8.88,8.88,0,0,1-4.6-1.19,8.13,8.13,0,0,1-3.12-3.41,11.23,11.23,0,0,1-1.13-5.17,17.78,17.78,0,0,1,.27-3A17,17,0,0,1,401.77,140.66Zm15.93,5.26a4.54,4.54,0,0,0-1.25-3.4,4.34,4.34,0,0,0-3.19-1.24,6.09,6.09,0,0,0-4.09,1.61,7.33,7.33,0,0,0-2.34,4.45,9.86,9.86,0,0,0-.13,1.46,4.62,4.62,0,0,0,1.26,3.42,4.24,4.24,0,0,0,3.14,1.26,6.06,6.06,0,0,0,4.1-1.63,7.61,7.61,0,0,0,2.37-4.47A8.67,8.67,0,0,0,417.7,145.92Z"/><path class="cls-1" d="M431.65,140.66a13.91,13.91,0,0,1,4.67-4.42,11.5,11.5,0,0,1,5.76-1.55,8.41,8.41,0,0,1,4.36,1.06,6.33,6.33,0,0,1,2.55,2.79l.61-3.49h7.53l-4.36,24.67h-7.52l.66-3.49a10.71,10.71,0,0,1-8.32,3.84,8.88,8.88,0,0,1-4.6-1.19,8.06,8.06,0,0,1-3.1-3.38,11.41,11.41,0,0,1-1.1-5.16,18,18,0,0,1,.27-3A17,17,0,0,1,431.65,140.66Zm15.93,5.26a4.58,4.58,0,0,0-1.25-3.4,4.34,4.34,0,0,0-3.19-1.24,6.13,6.13,0,0,0-4.1,1.61,7.32,7.32,0,0,0-2.33,4.45,8.67,8.67,0,0,0-.13,1.46,4.66,4.66,0,0,0,1.25,3.42,4.27,4.27,0,0,0,3.15,1.26,6,6,0,0,0,4.09-1.63,7.62,7.62,0,0,0,2.38-4.47A8.67,8.67,0,0,0,447.58,145.92Z"/><path class="cls-1" d="M480.23,135.05l-4.31,24.67h-7.53l4.31-24.67Zm-6.05-3.52a3.13,3.13,0,0,1-1-2.41,4.46,4.46,0,0,1,1.54-3.4,5.32,5.32,0,0,1,3.74-1.42,3.92,3.92,0,0,1,2.78,1,3.24,3.24,0,0,1,1,2.46,4.42,4.42,0,0,1-1.54,3.36,5.29,5.29,0,0,1-3.7,1.41A3.94,3.94,0,0,1,474.18,131.53Z"/><path class="cls-1" d="M506.5,136.86a7.73,7.73,0,0,1,2.11,5.79,14.93,14.93,0,0,1-.26,2.65l-2.56,14.42h-7.48l2.38-13.4a7.53,7.53,0,0,0,.13-1.33,3.85,3.85,0,0,0-1-2.87,3.93,3.93,0,0,0-2.88-1,5.29,5.29,0,0,0-3.7,1.37,6.65,6.65,0,0,0-1.94,3.85v-.22l-2.37,13.62h-7.53l4.31-24.67h7.53l-.57,3.31a10.8,10.8,0,0,1,3.54-2.61,10.68,10.68,0,0,1,4.51-1A7.92,7.92,0,0,1,506.5,136.86Z"/><path class="cls-1" d="M516.62,158.79a9.08,9.08,0,0,1-3.81-3.63,10.77,10.77,0,0,1-1.34-5.43,15.09,15.09,0,0,1,2-7.65,14.29,14.29,0,0,1,5.46-5.42,15.42,15.42,0,0,1,7.74-2,12,12,0,0,1,5.66,1.31,9.46,9.46,0,0,1,3.85,3.64,10.74,10.74,0,0,1,1.36,5.44,15,15,0,0,1-2,7.67,14.36,14.36,0,0,1-5.5,5.38,15.8,15.8,0,0,1-7.77,1.94A12,12,0,0,1,516.62,158.79Zm10-6.34a7.71,7.71,0,0,0,2.29-2.92,9,9,0,0,0,.81-3.74,4.61,4.61,0,0,0-1.19-3.4,4,4,0,0,0-3-1.2,5.21,5.21,0,0,0-3.32,1.13,7.41,7.41,0,0,0-2.22,2.94,9.39,9.39,0,0,0-.8,3.8,4.59,4.59,0,0,0,1.15,3.34,3.93,3.93,0,0,0,2.95,1.17A5.32,5.32,0,0,0,526.63,152.45Z"/><path class="cls-1" d="M551.34,152.64l8.44-17.59h8.06l-13.07,24.67h-9.33l-4.36-24.67h8Z"/><path class="cls-1" d="M569.9,140.66a14,14,0,0,1,4.67-4.42,11.53,11.53,0,0,1,5.76-1.55,8.38,8.38,0,0,1,4.36,1.06,6.33,6.33,0,0,1,2.55,2.79l.62-3.49h7.52L591,159.72H583.5l.66-3.49a10.67,10.67,0,0,1-8.32,3.84,8.82,8.82,0,0,1-4.59-1.19,8.08,8.08,0,0,1-3.11-3.38,11.41,11.41,0,0,1-1.1-5.16,18,18,0,0,1,.27-3A17,17,0,0,1,569.9,140.66Zm15.93,5.26a4.54,4.54,0,0,0-1.25-3.4,4.34,4.34,0,0,0-3.19-1.24,6.09,6.09,0,0,0-4.09,1.61,7.33,7.33,0,0,0-2.34,4.45,9.86,9.86,0,0,0-.13,1.46,4.62,4.62,0,0,0,1.26,3.42,4.24,4.24,0,0,0,3.14,1.26,6.06,6.06,0,0,0,4.1-1.63,7.61,7.61,0,0,0,2.37-4.47A8.67,8.67,0,0,0,585.83,145.92Z"/><path class="cls-1" d="M612.63,150.79h8a15.29,15.29,0,0,1-4.44,6.14,13.67,13.67,0,0,1-6.73,3l-.31,1.63a5.83,5.83,0,0,1,3.45,1,3.36,3.36,0,0,1,1.43,3,5,5,0,0,1-.09,1.06,5.44,5.44,0,0,1-2.46,3.83,8.18,8.18,0,0,1-4.53,1.3h-6.78l.75-4.16h5.72a3,3,0,0,0,1.39-.26,1.13,1.13,0,0,0,.59-.88.74.74,0,0,0-.26-.87,2.59,2.59,0,0,0-1.28-.24H604l1-5.39a9.45,9.45,0,0,1-5.89-3.17,9.7,9.7,0,0,1-2.16-6.52,15.55,15.55,0,0,1,.27-2.83,15.83,15.83,0,0,1,2.72-6.72,14.13,14.13,0,0,1,5.13-4.42,14.58,14.58,0,0,1,6.67-1.55,10.47,10.47,0,0,1,7.3,2.43,9.34,9.34,0,0,1,2.86,6.86h-8a3.1,3.1,0,0,0-3.43-2.83,4.69,4.69,0,0,0-3.56,1.61,8.91,8.91,0,0,0-2,4.62,10.26,10.26,0,0,0-.17,2,4.72,4.72,0,0,0,1,3.18,3.33,3.33,0,0,0,2.64,1.11A4.67,4.67,0,0,0,612.63,150.79Z"/><path class="cls-1" d="M626.4,140.66a13.91,13.91,0,0,1,4.67-4.42,11.5,11.5,0,0,1,5.76-1.55,8.41,8.41,0,0,1,4.36,1.06,6.33,6.33,0,0,1,2.55,2.79l.62-3.49h7.52l-4.36,24.67H640l.66-3.49a10.71,10.71,0,0,1-8.32,3.84,8.88,8.88,0,0,1-4.6-1.19,8.12,8.12,0,0,1-3.1-3.38,11.41,11.41,0,0,1-1.1-5.16,18,18,0,0,1,.27-3A17,17,0,0,1,626.4,140.66Zm15.93,5.26a4.58,4.58,0,0,0-1.25-3.4,4.34,4.34,0,0,0-3.19-1.24,6.13,6.13,0,0,0-4.1,1.61,7.38,7.38,0,0,0-2.33,4.45,9.86,9.86,0,0,0-.13,1.46,4.66,4.66,0,0,0,1.25,3.42,4.27,4.27,0,0,0,3.15,1.26,6,6,0,0,0,4.09-1.63,7.56,7.56,0,0,0,2.38-4.47A8.67,8.67,0,0,0,642.33,145.92Zm-3.7-19.72a4.47,4.47,0,0,1,1.68.29,9.8,9.8,0,0,1,1.58.86A6,6,0,0,0,643,128a2.5,2.5,0,0,0,1,.2c1.11,0,1.86-.66,2.24-2h3.87q-2.14,6.55-7.21,6.55a4.38,4.38,0,0,1-1.67-.29,9.85,9.85,0,0,1-1.59-.86,6.31,6.31,0,0,0-1.14-.64,2.53,2.53,0,0,0-1-.2c-1.06,0-1.82.66-2.29,2h-3.83Q633.58,126.2,638.63,126.2Z"/><path class="cls-1" d="M658.57,158.79a9.08,9.08,0,0,1-3.81-3.63,10.77,10.77,0,0,1-1.34-5.43,15.09,15.09,0,0,1,2-7.65,14.29,14.29,0,0,1,5.46-5.42,15.42,15.42,0,0,1,7.74-2,12,12,0,0,1,5.65,1.31,9.33,9.33,0,0,1,3.85,3.64,10.64,10.64,0,0,1,1.37,5.44,15,15,0,0,1-2,7.67,14.36,14.36,0,0,1-5.5,5.38,15.83,15.83,0,0,1-7.77,1.94A12,12,0,0,1,658.57,158.79Zm10-6.34a7.71,7.71,0,0,0,2.29-2.92,9,9,0,0,0,.81-3.74,4.61,4.61,0,0,0-1.19-3.4,4,4,0,0,0-3-1.2,5.21,5.21,0,0,0-3.32,1.13,7.31,7.31,0,0,0-2.22,2.94,9.39,9.39,0,0,0-.8,3.8,4.55,4.55,0,0,0,1.15,3.34,3.93,3.93,0,0,0,3,1.17A5.34,5.34,0,0,0,668.58,152.45Z"/><path class="cls-1" d="M714,137.28a9.14,9.14,0,0,1,2.8,7.05,14.62,14.62,0,0,1-.22,2.61,19.44,19.44,0,0,1-.53,2.17h-17a5.29,5.29,0,0,0,0,.84,4,4,0,0,0,1.06,3,3.87,3.87,0,0,0,2.82,1,4.81,4.81,0,0,0,4.31-2.39h8a13.71,13.71,0,0,1-5.15,6.14,14,14,0,0,1-8,2.39,10.65,10.65,0,0,1-7.59-2.65,9.4,9.4,0,0,1-2.84-7.21,15.55,15.55,0,0,1,.27-2.83,16.09,16.09,0,0,1,2.72-6.72,14.11,14.11,0,0,1,5.15-4.42,14.84,14.84,0,0,1,6.74-1.55A10.64,10.64,0,0,1,714,137.28Zm-4.73,7.14a3.4,3.4,0,0,0-1.1-2.72,4.29,4.29,0,0,0-2.9-.95,5.32,5.32,0,0,0-3.41,1.17,6.54,6.54,0,0,0-2.14,3.34h9.46A7,7,0,0,0,709.3,144.42Z"/><path class="cls-1" d="M738.65,151.23a3,3,0,0,0,0,.57,1.34,1.34,0,0,0,.46,1.15,2.5,2.5,0,0,0,1.52.36h2.68l-1.14,6.41H738.3q-7.39,0-7.39-6.24a15.38,15.38,0,0,1,.22-2.34l1.76-9.82h-3l1.1-6.27h3l1-6h7.53l-1.06,6h4.93l-1.1,6.27h-4.93Z"/><path class="cls-1" d="M769.17,137.28a9.13,9.13,0,0,1,2.79,7.05,13.75,13.75,0,0,1-.22,2.61,17.46,17.46,0,0,1-.53,2.17h-17a5.62,5.62,0,0,0,0,.84,3.59,3.59,0,0,0,3.87,4,4.78,4.78,0,0,0,4.31-2.39h8a13.65,13.65,0,0,1-5.15,6.14,14,14,0,0,1-8,2.39,10.69,10.69,0,0,1-7.59-2.65,9.39,9.39,0,0,1-2.83-7.21,15.52,15.52,0,0,1,.26-2.83,16,16,0,0,1,2.73-6.72,14,14,0,0,1,5.15-4.42,14.77,14.77,0,0,1,6.73-1.55A10.67,10.67,0,0,1,769.17,137.28Zm-4.73,7.14a3.38,3.38,0,0,0-1.11-2.72,4.29,4.29,0,0,0-2.9-.95,5.32,5.32,0,0,0-3.41,1.17,6.59,6.59,0,0,0-2.13,3.34h9.46A7,7,0,0,0,764.44,144.42Z"/><path class="cls-1" d="M776.84,140.66a14.13,14.13,0,0,1,5.13-4.42,14.58,14.58,0,0,1,6.67-1.55,10.47,10.47,0,0,1,7.3,2.43A9.34,9.34,0,0,1,798.8,144h-8a3.1,3.1,0,0,0-3.43-2.83,4.69,4.69,0,0,0-3.56,1.61,8.91,8.91,0,0,0-2,4.62,10.26,10.26,0,0,0-.17,2,4.72,4.72,0,0,0,1,3.18,3.33,3.33,0,0,0,2.64,1.11,4.67,4.67,0,0,0,4.36-2.83h8.05a14.55,14.55,0,0,1-5.28,6.81,13.91,13.91,0,0,1-8.14,2.47,10.51,10.51,0,0,1-7.54-2.63,9.36,9.36,0,0,1-2.8-7.18,16.26,16.26,0,0,1,.27-2.88A16,16,0,0,1,776.84,140.66Z"/><path class="cls-1" d="M825.16,136.86a7.73,7.73,0,0,1,2.11,5.79,14.93,14.93,0,0,1-.26,2.65l-2.56,14.42H817l2.38-13.4a7.53,7.53,0,0,0,.13-1.33,3.85,3.85,0,0,0-1-2.87,3.93,3.93,0,0,0-2.88-1,5.29,5.29,0,0,0-3.7,1.37,6.65,6.65,0,0,0-1.94,3.85v-.22l-2.37,13.62H800l4.31-24.67h7.53l-.57,3.31a10.8,10.8,0,0,1,3.54-2.61,10.68,10.68,0,0,1,4.51-1A7.92,7.92,0,0,1,825.16,136.86Z"/><path class="cls-1" d="M835.28,158.79a9.08,9.08,0,0,1-3.81-3.63,10.77,10.77,0,0,1-1.34-5.43,15.09,15.09,0,0,1,2-7.65,14.29,14.29,0,0,1,5.46-5.42,15.42,15.42,0,0,1,7.74-2A12,12,0,0,1,851,136a9.46,9.46,0,0,1,3.85,3.64,10.74,10.74,0,0,1,1.36,5.44,15,15,0,0,1-2,7.67,14.36,14.36,0,0,1-5.5,5.38,15.8,15.8,0,0,1-7.77,1.94A12,12,0,0,1,835.28,158.79Zm10-6.34a7.71,7.71,0,0,0,2.29-2.92,9,9,0,0,0,.81-3.74,4.57,4.57,0,0,0-1.19-3.4,4,4,0,0,0-3-1.2,5.21,5.21,0,0,0-3.32,1.13,7.41,7.41,0,0,0-2.22,2.94,9.38,9.38,0,0,0-.79,3.8A4.58,4.58,0,0,0,839,152.4a3.93,3.93,0,0,0,3,1.17A5.32,5.32,0,0,0,845.29,152.45Z"/><path class="cls-1" d="M871,127l-5.77,32.72h-7.52L863.48,127Z"/><path class="cls-1" d="M876.29,158.79a9.08,9.08,0,0,1-3.81-3.63,10.77,10.77,0,0,1-1.34-5.43,15.09,15.09,0,0,1,2-7.65,14.29,14.29,0,0,1,5.46-5.42,15.42,15.42,0,0,1,7.74-2A12,12,0,0,1,892,136a9.46,9.46,0,0,1,3.85,3.64,10.74,10.74,0,0,1,1.36,5.44,15,15,0,0,1-2,7.67,14.36,14.36,0,0,1-5.5,5.38,15.8,15.8,0,0,1-7.77,1.94A12,12,0,0,1,876.29,158.79Zm10-6.34a7.71,7.71,0,0,0,2.29-2.92,9,9,0,0,0,.81-3.74,4.61,4.61,0,0,0-1.19-3.4,4,4,0,0,0-3-1.2,5.21,5.21,0,0,0-3.32,1.13,7.41,7.41,0,0,0-2.22,2.94,9.39,9.39,0,0,0-.8,3.8A4.59,4.59,0,0,0,880,152.4a3.93,3.93,0,0,0,3,1.17A5.32,5.32,0,0,0,886.3,152.45Z"/><path class="cls-1" d="M916.86,135.75a5.76,5.76,0,0,1,2.51,2.79l.61-3.49h7.53l-4.32,24.62a16.27,16.27,0,0,1-2.44,6.17,13.14,13.14,0,0,1-4.88,4.4,14.86,14.86,0,0,1-7.11,1.64q-5.46,0-8.4-2.59a8,8,0,0,1-2.64-7h7.43a3,3,0,0,0,1.3,2.24,5.34,5.34,0,0,0,3.1.81,6,6,0,0,0,4-1.34,6.94,6.94,0,0,0,2.16-4.32l.62-3.49a10.77,10.77,0,0,1-3.55,2.81,10.32,10.32,0,0,1-4.73,1.08,8.82,8.82,0,0,1-4.59-1.19,8.15,8.15,0,0,1-3.13-3.41,11.22,11.22,0,0,1-1.12-5.17,18.84,18.84,0,0,1,.26-3,17,17,0,0,1,2.6-6.68,13.89,13.89,0,0,1,4.66-4.42,11.54,11.54,0,0,1,5.77-1.55A8.61,8.61,0,0,1,916.86,135.75Zm1.1,10.17a4.54,4.54,0,0,0-1.26-3.4,4.33,4.33,0,0,0-3.19-1.24,6.1,6.1,0,0,0-4.09,1.61,7.32,7.32,0,0,0-2.33,4.45,8.67,8.67,0,0,0-.13,1.46,4.66,4.66,0,0,0,1.25,3.42,4.27,4.27,0,0,0,3.15,1.26,6,6,0,0,0,4.09-1.63,7.67,7.67,0,0,0,2.38-4.47A9.86,9.86,0,0,0,918,145.92Z"/><path class="cls-1" d="M940.44,135.05l-4.31,24.67h-7.52l4.31-24.67Zm-6.05-3.52a3.12,3.12,0,0,1-1-2.41,4.43,4.43,0,0,1,1.54-3.4,5.29,5.29,0,0,1,3.74-1.42,3.9,3.9,0,0,1,2.77,1,3.24,3.24,0,0,1,1,2.46,4.42,4.42,0,0,1-1.54,3.36,5.27,5.27,0,0,1-3.69,1.41A3.94,3.94,0,0,1,934.39,131.53Z"/><path class="cls-1" d="M944.89,140.66a13.89,13.89,0,0,1,4.66-4.42,11.54,11.54,0,0,1,5.77-1.55,8.34,8.34,0,0,1,4.35,1.06,6.27,6.27,0,0,1,2.55,2.79l.62-3.49h7.52L966,159.72h-7.53l.66-3.49a10.67,10.67,0,0,1-8.31,3.84,8.85,8.85,0,0,1-4.6-1.19,8,8,0,0,1-3.1-3.38,11.28,11.28,0,0,1-1.1-5.16,17.9,17.9,0,0,1,.26-3A17,17,0,0,1,944.89,140.66Zm15.93,5.26a4.54,4.54,0,0,0-1.26-3.4,4.33,4.33,0,0,0-3.19-1.24,6.1,6.1,0,0,0-4.09,1.61,7.32,7.32,0,0,0-2.33,4.45,8.67,8.67,0,0,0-.13,1.46,4.62,4.62,0,0,0,1.25,3.42,4.25,4.25,0,0,0,3.14,1.26,6,6,0,0,0,4.1-1.63,7.61,7.61,0,0,0,2.37-4.47A8.75,8.75,0,0,0,960.82,145.92Z"/><path class="cls-1" d="M1006.75,136.86a7.73,7.73,0,0,1,2.12,5.79,14.1,14.1,0,0,1-.27,2.65l-2.55,14.42h-7.48l2.37-13.4a7.62,7.62,0,0,0,.14-1.33,3.86,3.86,0,0,0-1-2.87,3.93,3.93,0,0,0-2.88-1,5.29,5.29,0,0,0-3.7,1.37,6.65,6.65,0,0,0-1.93,3.85v-.22l-2.38,13.62h-7.52l4.31-24.67h7.52l-.57,3.31a10.72,10.72,0,0,1,8.05-3.58A7.9,7.9,0,0,1,1006.75,136.86Z"/><path class="cls-1" d="M1016.87,158.79a9.06,9.06,0,0,1-3.8-3.63,10.67,10.67,0,0,1-1.35-5.43,15,15,0,0,1,2-7.65,14.26,14.26,0,0,1,5.45-5.42,15.48,15.48,0,0,1,7.75-2,12,12,0,0,1,5.65,1.31,9.39,9.39,0,0,1,3.85,3.64,10.64,10.64,0,0,1,1.36,5.44,14.85,14.85,0,0,1-2,7.67,14.29,14.29,0,0,1-5.5,5.38,15.76,15.76,0,0,1-7.76,1.94A12,12,0,0,1,1016.87,158.79Zm10-6.34a7.53,7.53,0,0,0,2.29-2.92,9,9,0,0,0,.82-3.74,4.61,4.61,0,0,0-1.19-3.4,4,4,0,0,0-3-1.2,5.24,5.24,0,0,0-3.33,1.13,7.5,7.5,0,0,0-2.22,2.94,9.38,9.38,0,0,0-.79,3.8,4.58,4.58,0,0,0,1.14,3.34,4,4,0,0,0,2.95,1.17A5.32,5.32,0,0,0,1026.88,152.45Z"/><path class="cls-1" d="M1091.39,136.88a7.67,7.67,0,0,1,2.22,5.86,14.51,14.51,0,0,1-.26,2.56l-2.55,14.42h-7.48l2.37-13.4a6.18,6.18,0,0,0,.09-1.19,3.7,3.7,0,0,0-1-2.83,4,4,0,0,0-2.89-1,5.43,5.43,0,0,0-3.69,1.31,6,6,0,0,0-1.89,3.69l-2.38,13.4h-7.48l2.37-13.4a6.18,6.18,0,0,0,.09-1.19,3.7,3.7,0,0,0-1-2.83,4,4,0,0,0-2.88-1,5.44,5.44,0,0,0-3.7,1.31,6,6,0,0,0-1.89,3.69v-.22L1057,159.72h-7.52l4.31-24.67h7.52l-.52,3.13a9.9,9.9,0,0,1,3.41-2.49,10.28,10.28,0,0,1,4.33-.91,9.09,9.09,0,0,1,4.78,1.19,6.65,6.65,0,0,1,2.79,3.45,12.53,12.53,0,0,1,4.05-3.36,10.71,10.71,0,0,1,5.06-1.28A8.64,8.64,0,0,1,1091.39,136.88Z"/><path class="cls-1" d="M1124.63,135.05l-4.31,24.67h-7.52l.57-3.36a11,11,0,0,1-3.54,2.63,10.32,10.32,0,0,1-4.47,1,7.29,7.29,0,0,1-7.92-7.95,13.46,13.46,0,0,1,.22-2.57l2.55-14.41h7.48l-2.33,13.39a7.37,7.37,0,0,0-.13,1.37,3.8,3.8,0,0,0,1,2.86,4,4,0,0,0,2.89,1,5.32,5.32,0,0,0,3.58-1.26,6.22,6.22,0,0,0,2-3.6l2.42-13.75Z"/><path class="cls-1" d="M1150.86,136.86a7.73,7.73,0,0,1,2.11,5.79,14.93,14.93,0,0,1-.26,2.65l-2.55,14.42h-7.49l2.38-13.4a7.53,7.53,0,0,0,.13-1.33,3.85,3.85,0,0,0-1-2.87,3.93,3.93,0,0,0-2.88-1,5.29,5.29,0,0,0-3.7,1.37,6.65,6.65,0,0,0-1.94,3.85v-.22l-2.37,13.62h-7.53l4.32-24.67h7.52l-.57,3.31a10.8,10.8,0,0,1,3.54-2.61,10.68,10.68,0,0,1,4.51-1A7.9,7.9,0,0,1,1150.86,136.86Z"/><path class="cls-1" d="M1158.69,140.66a13.91,13.91,0,0,1,4.67-4.42,11.5,11.5,0,0,1,5.76-1.55,8.59,8.59,0,0,1,4.25,1,6.27,6.27,0,0,1,2.66,2.74l2-11.45h7.53l-5.77,32.72h-7.52l.61-3.54a10.41,10.41,0,0,1-3.52,2.83,10.25,10.25,0,0,1-4.7,1.06,8.83,8.83,0,0,1-4.6-1.19,8.15,8.15,0,0,1-3.13-3.41,11.35,11.35,0,0,1-1.12-5.17,17.78,17.78,0,0,1,.27-3A17,17,0,0,1,1158.69,140.66Zm15.93,5.26a4.58,4.58,0,0,0-1.25-3.4,4.34,4.34,0,0,0-3.19-1.24,6.13,6.13,0,0,0-4.1,1.61,7.32,7.32,0,0,0-2.33,4.45,8.67,8.67,0,0,0-.13,1.46,4.66,4.66,0,0,0,1.25,3.42,4.27,4.27,0,0,0,3.15,1.26,6,6,0,0,0,4.09-1.63,7.62,7.62,0,0,0,2.38-4.47A8.67,8.67,0,0,0,1174.62,145.92Z"/><path class="cls-1" d="M1190.86,158.79a9,9,0,0,1-3.81-3.63,10.77,10.77,0,0,1-1.34-5.43,15.09,15.09,0,0,1,2-7.65,14.33,14.33,0,0,1,5.45-5.42,15.48,15.48,0,0,1,7.75-2,12,12,0,0,1,5.65,1.31,9.39,9.39,0,0,1,3.85,3.64,10.64,10.64,0,0,1,1.37,5.44,15,15,0,0,1-2,7.67,14.31,14.31,0,0,1-5.51,5.38,15.76,15.76,0,0,1-7.76,1.94A12,12,0,0,1,1190.86,158.79Zm10-6.34a7.71,7.71,0,0,0,2.29-2.92,9,9,0,0,0,.81-3.74,4.61,4.61,0,0,0-1.19-3.4,4,4,0,0,0-3-1.2,5.21,5.21,0,0,0-3.32,1.13,7.31,7.31,0,0,0-2.22,2.94,9.39,9.39,0,0,0-.8,3.8,4.55,4.55,0,0,0,1.15,3.34,3.92,3.92,0,0,0,2.94,1.17A5.35,5.35,0,0,0,1200.87,152.45Z"/><path class="cls-1" d="M1226.76,140.66a13.91,13.91,0,0,1,4.67-4.42,11.5,11.5,0,0,1,5.76-1.55,8.59,8.59,0,0,1,4.25,1,6.27,6.27,0,0,1,2.66,2.74l2-11.45h7.53l-5.77,32.72h-7.52l.61-3.54a10.34,10.34,0,0,1-8.22,3.89,8.83,8.83,0,0,1-4.6-1.19,8.15,8.15,0,0,1-3.13-3.41,11.35,11.35,0,0,1-1.12-5.17,17.78,17.78,0,0,1,.27-3A17,17,0,0,1,1226.76,140.66Zm15.93,5.26a4.58,4.58,0,0,0-1.25-3.4,4.34,4.34,0,0,0-3.19-1.24,6.13,6.13,0,0,0-4.1,1.61,7.32,7.32,0,0,0-2.33,4.45,8.67,8.67,0,0,0-.13,1.46,4.66,4.66,0,0,0,1.25,3.42,4.27,4.27,0,0,0,3.15,1.26,6,6,0,0,0,4.09-1.63,7.56,7.56,0,0,0,2.38-4.47A8.67,8.67,0,0,0,1242.69,145.92Z"/><path class="cls-1" d="M1258.93,158.79a9,9,0,0,1-3.81-3.63,10.77,10.77,0,0,1-1.34-5.43,15.09,15.09,0,0,1,2-7.65,14.33,14.33,0,0,1,5.45-5.42,15.48,15.48,0,0,1,7.75-2,12,12,0,0,1,5.65,1.31,9.39,9.39,0,0,1,3.85,3.64,10.64,10.64,0,0,1,1.37,5.44,15,15,0,0,1-2,7.67,14.36,14.36,0,0,1-5.5,5.38,15.83,15.83,0,0,1-7.77,1.94A12,12,0,0,1,1258.93,158.79Zm10-6.34a7.71,7.71,0,0,0,2.29-2.92,9,9,0,0,0,.81-3.74,4.61,4.61,0,0,0-1.19-3.4,4,4,0,0,0-3-1.2,5.21,5.21,0,0,0-3.32,1.13,7.31,7.31,0,0,0-2.22,2.94,9.39,9.39,0,0,0-.8,3.8,4.55,4.55,0,0,0,1.15,3.34,3.93,3.93,0,0,0,2.95,1.17A5.34,5.34,0,0,0,1268.94,152.45Z"/><path class="cls-1" d="M1301.74,151.23a3,3,0,0,0,0,.57,1.34,1.34,0,0,0,.46,1.15,2.5,2.5,0,0,0,1.52.36h2.68l-1.14,6.41h-3.83q-7.4,0-7.39-6.24a15.38,15.38,0,0,1,.22-2.34l1.76-9.82h-3l1.1-6.27h3l1.05-6h7.53l-1.06,6h4.93l-1.1,6.27h-4.93Z"/><path class="cls-1" d="M1324.38,136a9.28,9.28,0,0,1,4.64-1.26l-1.41,8h-2.07a7.29,7.29,0,0,0-4.44,1.22,6.51,6.51,0,0,0-2.16,4.27l-2,11.45h-7.52l4.31-24.67h7.52l-.79,4.46A13.3,13.3,0,0,1,1324.38,136Z"/><path class="cls-1" d="M1331.53,140.66a13.89,13.89,0,0,1,4.66-4.42,11.54,11.54,0,0,1,5.77-1.55,8.34,8.34,0,0,1,4.35,1.06,6.3,6.3,0,0,1,2.56,2.79l.61-3.49H1357l-4.36,24.67h-7.52l.66-3.49a10.71,10.71,0,0,1-8.32,3.84,8.88,8.88,0,0,1-4.6-1.19,8.06,8.06,0,0,1-3.1-3.38,11.41,11.41,0,0,1-1.1-5.16,19,19,0,0,1,.26-3A17,17,0,0,1,1331.53,140.66Zm15.93,5.26a4.54,4.54,0,0,0-1.26-3.4,4.33,4.33,0,0,0-3.19-1.24,6.1,6.1,0,0,0-4.09,1.61,7.32,7.32,0,0,0-2.33,4.45,8.67,8.67,0,0,0-.13,1.46,4.66,4.66,0,0,0,1.25,3.42,4.27,4.27,0,0,0,3.15,1.26,6,6,0,0,0,4.09-1.63,7.67,7.67,0,0,0,2.38-4.47A9.86,9.86,0,0,0,1347.46,145.92Z"/><path class="cls-1" d="M1372.89,135.75a10.64,10.64,0,0,1,4.71-1.06,8.38,8.38,0,0,1,6.4,2.59,9.83,9.83,0,0,1,2.44,7.05,17.93,17.93,0,0,1-.26,3,17.23,17.23,0,0,1-2.6,6.7,13.92,13.92,0,0,1-4.66,4.46,11.35,11.35,0,0,1-5.76,1.57,8.35,8.35,0,0,1-4.36-1,6.05,6.05,0,0,1-2.55-2.76l-.62,3.45h-7.52l5.76-32.72h7.52l-2.06,11.54A10.53,10.53,0,0,1,1372.89,135.75ZM1378.7,146a4.63,4.63,0,0,0-1.25-3.45,4.35,4.35,0,0,0-3.2-1.24,6,6,0,0,0-4.09,1.64,7.61,7.61,0,0,0-2.37,4.46,8.85,8.85,0,0,0-.14,1.46,4.63,4.63,0,0,0,1.24,3.41,4.27,4.27,0,0,0,3.16,1.23,6.1,6.1,0,0,0,4.12-1.65,8.27,8.27,0,0,0,2.53-5.86Z"/><path class="cls-1" d="M1391.28,140.66a13.91,13.91,0,0,1,4.67-4.42,11.53,11.53,0,0,1,5.76-1.55,8.41,8.41,0,0,1,4.36,1.06,6.33,6.33,0,0,1,2.55,2.79l.62-3.49h7.52l-4.36,24.67h-7.52l.66-3.49a10.67,10.67,0,0,1-8.32,3.84,8.88,8.88,0,0,1-4.6-1.19,8.12,8.12,0,0,1-3.1-3.38,11.41,11.41,0,0,1-1.1-5.16,18,18,0,0,1,.27-3A17,17,0,0,1,1391.28,140.66Zm15.93,5.26a4.58,4.58,0,0,0-1.25-3.4,4.34,4.34,0,0,0-3.19-1.24,6.09,6.09,0,0,0-4.09,1.61,7.33,7.33,0,0,0-2.34,4.45,9.86,9.86,0,0,0-.13,1.46,4.62,4.62,0,0,0,1.26,3.42,4.24,4.24,0,0,0,3.14,1.26,6,6,0,0,0,4.09-1.63,7.56,7.56,0,0,0,2.38-4.47A8.67,8.67,0,0,0,1407.21,145.92Z"/><path class="cls-1" d="M1431.15,127l-5.77,32.72h-7.52l5.76-32.72Z"/><path class="cls-1" d="M1456,136.86a7.8,7.8,0,0,1,2.09,5.79,14.1,14.1,0,0,1-.27,2.65l-2.55,14.42h-7.48l2.38-13.4a7.53,7.53,0,0,0,.13-1.33,3.89,3.89,0,0,0-1-2.87,3.93,3.93,0,0,0-2.89-1,5.27,5.27,0,0,0-3.69,1.37,6.6,6.6,0,0,0-1.94,3.85v-.09l-2.37,13.49h-7.53L1436.6,127h7.53l-2,11.32a10.59,10.59,0,0,1,3.56-2.59,11.11,11.11,0,0,1,4.58-.95A7.73,7.73,0,0,1,1456,136.86Z"/><path class="cls-1" d="M1466.09,158.79a9,9,0,0,1-3.81-3.63,10.67,10.67,0,0,1-1.34-5.43,15.09,15.09,0,0,1,2-7.65,14.33,14.33,0,0,1,5.45-5.42,15.48,15.48,0,0,1,7.75-2,12,12,0,0,1,5.65,1.31,9.39,9.39,0,0,1,3.85,3.64,10.64,10.64,0,0,1,1.37,5.44,15,15,0,0,1-2,7.67,14.31,14.31,0,0,1-5.51,5.38,15.76,15.76,0,0,1-7.76,1.94A12,12,0,0,1,1466.09,158.79Zm10-6.34a7.6,7.6,0,0,0,2.28-2.92,8.85,8.85,0,0,0,.82-3.74,4.61,4.61,0,0,0-1.19-3.4,4,4,0,0,0-3-1.2,5.21,5.21,0,0,0-3.32,1.13,7.43,7.43,0,0,0-2.23,2.94,9.55,9.55,0,0,0-.79,3.8,4.55,4.55,0,0,0,1.15,3.34,3.92,3.92,0,0,0,2.94,1.17A5.35,5.35,0,0,0,1476.1,152.45Z"/></g></svg>